STARTFONT 2.1
FONT sungP24n3
SIZE 24 75 75
FONTBOUNDINGBOX 24 24 0 -2

STARTPROPERTIES 11
COPYRIGHT "Copyright (c) 1994 Hewlett-Packard Company."
_HP_ASXVERSION "@(#) ASX 3.00 $Revision: 13.9 $ sungP24n3"
POINT_SIZE 240
WEIGHT 10
RESOLUTION_X 75
RESOLUTION_Y 75
X_HEIGHT 22
QUAD_WIDTH 24
DEFAULT_CHAR 25159
FONT_DESCENT 2
FONT_ASCENT 22
ENDPROPERTIES

CHARS 6149

STARTCHAR cns3_2121
ENCODING 8481
SWIDTH 960 0
DWIDTH 24 0
BBX 24 24 0 -2
BITMAP
000000
000000
001800
001800
001800
001800
001800
001800
001800
001800
001800
001800
001800
001800
001800
001800
001800
001800
001800
001800
001800
001800
001800
000000
ENDCHAR

STARTCHAR cns3_2122
ENCODING 8482
SWIDTH 960 0
DWIDTH 24 0
BBX 24 24 0 -2
BITMAP
000000
000000
000000
000000
000000
000000
000000
000000
018000
007000
001C00
000700
000380
000180
000000
000000
000000
000000
000000
000000
000000
000000
000000
000000
ENDCHAR

STARTCHAR cns3_2123
ENCODING 8483
SWIDTH 960 0
DWIDTH 24 0
BBX 24 24 0 -2
BITMAP
000000
000300
000380
000300
000300
000300
000300
000300
000700
000600
000600
000600
000C00
000C00
000C00
001800
001800
003000
003000
006000
00C000
018000
060000
000000
ENDCHAR

STARTCHAR cns3_2124
ENCODING 8484
SWIDTH 960 0
DWIDTH 24 0
BBX 24 24 0 -2
BITMAP
000000
001C00
001800
001800
001800
001800
001800
001800
001800
001800
001800
001800
001800
001800
001800
001800
001800
001800
001800
001800
001800
07F800
007000
000000
ENDCHAR

STARTCHAR cns3_2125
ENCODING 8485
SWIDTH 960 0
DWIDTH 24 0
BBX 24 24 0 -2
BITMAP
000000
00000C
7FFFFE
001800
001800
001800
001800
001800
001800
001800
001800
001800
001800
001800
001800
001800
001800
001800
001800
001800
001800
001800
001800
000000
ENDCHAR

STARTCHAR cns3_2126
ENCODING 8486
SWIDTH 960 0
DWIDTH 24 0
BBX 24 24 0 -2
BITMAP
001800
001C00
001800
001800
001800
001800
001800
001800
001800
001800
001800
001800
001800
001800
001800
001800
001800
001800
001800
001800
001800
001806
FFFFFF
000000
ENDCHAR

STARTCHAR cns3_2127
ENCODING 8487
SWIDTH 960 0
DWIDTH 24 0
BBX 24 24 0 -2
BITMAP
000000
200004
3FFFFE
30000E
30000C
30000C
30000C
30000C
30000C
30000C
30000C
30000C
30000C
30000C
30000C
30000C
30000C
30000C
30000C
30000C
30000C
3000FC
300018
000000
ENDCHAR

STARTCHAR cns3_2128
ENCODING 8488
SWIDTH 960 0
DWIDTH 24 0
BBX 24 24 0 -2
BITMAP
000000
000000
000000
000000
000000
000000
000000
100004
1FFFFE
300006
70000C
70000C
200018
000000
000000
000000
000000
000000
000000
000000
000000
000000
000000
000000
ENDCHAR

STARTCHAR cns3_2129
ENCODING 8489
SWIDTH 960 0
DWIDTH 24 0
BBX 24 24 0 -2
BITMAP
000000
000000
000000
000000
000004
00000E
FFFFFF
0C0000
0C0000
0C0000
0C0000
0C0000
0C0000
0C0000
0C0000
0C0000
0C0000
0C0000
0C0000
0C0000
0FFFFC
07FFF8
000000
000000
ENDCHAR

STARTCHAR cns3_212A
ENCODING 8490
SWIDTH 960 0
DWIDTH 24 0
BBX 24 24 0 -2
BITMAP
010080
01FFC0
0181C0
018180
018180
018180
018180
018180
018180
018180
018180
018180
018180
018180
018180
018180
018180
018180
019F80
018700
018000
018000
018000
018000
ENDCHAR

STARTCHAR cns3_212B
ENCODING 8491
SWIDTH 960 0
DWIDTH 24 0
BBX 24 24 0 -2
BITMAP
000000
000000
000000
003800
003000
007000
006000
00E000
00C000
01C000
018000
030080
060040
0C0060
180030
300018
7FFFFC
3F801C
18000C
000008
000000
000000
000000
000000
ENDCHAR

STARTCHAR cns3_212C
ENCODING 8492
SWIDTH 960 0
DWIDTH 24 0
BBX 24 24 0 -2
BITMAP
003800
003800
007400
006200
00C300
018100
030180
0600C0
0C0070
18003C
30001F
C00006
001800
001800
001800
001800
001800
001800
001800
001800
001800
001800
001800
001800
ENDCHAR

STARTCHAR cns3_212D
ENCODING 8493
SWIDTH 960 0
DWIDTH 24 0
BBX 24 24 0 -2
BITMAP
018000
01C000
018000
018000
030004
03000E
07FFFF
060600
0C0600
180600
300600
400600
000600
000600
000600
000600
000600
000600
000600
000600
000600
000600
00FE00
001C00
ENDCHAR

STARTCHAR cns3_212E
ENCODING 8494
SWIDTH 960 0
DWIDTH 24 0
BBX 24 24 0 -2
BITMAP
000000
000000
00001C
020018
023030
021830
021860
010C60
018CC0
0080C0
00C180
004180
006300
002300
003600
001C00
001C00
003600
006300
00C180
0180E0
060078
18001F
E00006
ENDCHAR

STARTCHAR cns3_212F
ENCODING 8495
SWIDTH 960 0
DWIDTH 24 0
BBX 24 24 0 -2
BITMAP
003000
003800
003000
006000
02C040
03FFE0
0300E0
0300C0
0300C0
0300C0
0300C0
0300C0
0300C0
0300C0
0300C0
0300C0
0600C2
0600C2
0600C2
0C00C2
0C00C3
1800FF
30007E
C00000
ENDCHAR

STARTCHAR cns3_2130
ENCODING 8496
SWIDTH 960 0
DWIDTH 24 0
BBX 24 24 0 -2
BITMAP
000000
0381C0
030180
030180
030180
030180
060300
060300
060300
0FFF00
0C0600
000600
000600
000C00
000C00
001A00
003100
006180
00C0C0
018070
06003C
18001F
E00006
000000
ENDCHAR

STARTCHAR cns3_2131
ENCODING 8497
SWIDTH 960 0
DWIDTH 24 0
BBX 24 24 0 -2
BITMAP
000000
000060
0FFFF0
000000
000000
000000
000018
3FFFFC
00C000
00C000
018000
018008
01FFFC
01801C
000018
000018
000018
000018
000038
000030
000070
0000E0
003FC0
000380
ENDCHAR

STARTCHAR cns3_2132
ENCODING 8498
SWIDTH 960 0
DWIDTH 24 0
BBX 24 24 0 -2
BITMAP
001C00
001800
001800
001800
001800
001800
001800
003400
003400
003600
006200
006300
00C180
0181C0
0300E0
060070
0C003C
38001F
E00006
000000
000060
0FFFF0
000000
000000
ENDCHAR

STARTCHAR cns3_2133
ENCODING 8499
SWIDTH 960 0
DWIDTH 24 0
BBX 24 24 0 -2
BITMAP
600000
700700
600600
600600
600600
600600
600600
600C00
600C00
600C00
601A00
601A00
603100
603180
6060C0
606060
60C038
63801E
6E000C
600000
60000E
7FFFFF
600000
600000
ENDCHAR

STARTCHAR cns3_2134
ENCODING 8500
SWIDTH 960 0
DWIDTH 24 0
BBX 24 24 0 -2
BITMAP
600000
703800
601800
601800
601800
600C00
600C00
600C00
600600
600E00
600B00
601B00
601980
603180
6030C0
606060
60C038
63801E
6E000C
600000
600006
7FFFFF
600000
600000
ENDCHAR

STARTCHAR cns3_2135
ENCODING 8501
SWIDTH 960 0
DWIDTH 24 0
BBX 24 24 0 -2
BITMAP
001C00
001800
001800
001800
001800
021840
03FFE0
0300E0
0300C0
0300C0
0300C0
0300C0
0300C0
0300C0
0300C0
0300C0
0600C2
0600C2
0600C2
0C00C2
0C00C3
1800FF
30007E
C00000
ENDCHAR

STARTCHAR cns3_2136
ENCODING 8502
SWIDTH 960 0
DWIDTH 24 0
BBX 24 24 0 -2
BITMAP
000000
000040
3FFFE0
0060E0
0060C0
0C60C0
0460C0
0660C0
03C0C0
01C0C0
01C0C0
00C0C0
01E0C0
01B0C0
031CC0
030FC0
0603C0
0601F0
0C01FE
180398
300700
60FE00
001C00
000000
ENDCHAR

STARTCHAR cns3_2137
ENCODING 8503
SWIDTH 960 0
DWIDTH 24 0
BBX 24 24 0 -2
BITMAP
070180
0601C0
060180
060180
060180
061180
7FF980
063980
063180
063180
063180
0C3180
0C3180
0C3180
0C3180
183180
183180
183180
303182
307182
206182
60E183
47C1FF
8180FE
ENDCHAR

STARTCHAR cns3_2138
ENCODING 8504
SWIDTH 960 0
DWIDTH 24 0
BBX 24 24 0 -2
BITMAP
0380E0
0300C0
0300C0
0300C0
0300C0
0300C0
0300C0
0300C0
0300C6
FFFFFF
0300C0
0300C0
0300C0
0300C0
0300C0
0300C0
0300C0
0300C0
0300C0
0300C0
0300C0
0300C0
0300C0
0300C0
ENDCHAR

STARTCHAR cns3_2139
ENCODING 8505
SWIDTH 960 0
DWIDTH 24 0
BBX 24 24 0 -2
BITMAP
00E000
00C000
00C000
00C000
018020
01FFF0
038070
030060
060060
0600C0
0D00C0
088180
10C180
006300
003300
001E00
000E00
001F00
003380
0061C0
00C070
03803C
0E001F
700006
ENDCHAR

STARTCHAR cns3_213A
ENCODING 8506
SWIDTH 960 0
DWIDTH 24 0
BBX 24 24 0 -2
BITMAP
00C000
00E000
00C000
00C000
018040
21FFF0
138070
1B0060
0E0060
0600C0
0B00C0
118180
20C380
406300
003600
001C00
001C00
003600
007380
00E1C0
01C0F0
07007C
1C001F
E00006
ENDCHAR

STARTCHAR cns3_213B
ENCODING 8507
SWIDTH 960 0
DWIDTH 24 0
BBX 24 24 0 -2
BITMAP
000000
000000
000000
000000
000000
003000
003800
001800
201802
3FFFFF
600007
E00006
C0000C
000000
000000
000000
000000
000000
000000
000000
000000
000000
000000
000000
ENDCHAR

STARTCHAR cns3_213C
ENCODING 8508
SWIDTH 960 0
DWIDTH 24 0
BBX 24 24 0 -2
BITMAP
000000
000000
000000
070E1C
060C18
060C30
0C1830
0C1830
183060
183060
3060C0
60C180
60C180
3060C0
183060
081020
0C1830
060C18
070E1C
03060C
000000
000000
000000
000000
ENDCHAR

STARTCHAR cns3_213D
ENCODING 8509
SWIDTH 960 0
DWIDTH 24 0
BBX 24 24 0 -2
BITMAP
000000
003800
003000
006000
006000
00C000
00C000
018300
030380
0C0300
060600
030600
018C00
00CC00
007800
003000
003080
006040
00C060
018030
0207F0
0FFC38
0F8018
060000
ENDCHAR

STARTCHAR cns3_213E
ENCODING 8510
SWIDTH 960 0
DWIDTH 24 0
BBX 24 24 0 -2
BITMAP
001800
000C00
000E00
100406
1FFFFF
180000
180000
180000
180000
180000
180000
180000
180000
180000
180000
180000
180000
300000
300000
200000
600000
400000
800000
000000
ENDCHAR

STARTCHAR cns3_213F
ENCODING 8511
SWIDTH 960 0
DWIDTH 24 0
BBX 24 24 0 -2
BITMAP
020000
7F0000
070000
060000
0C0000
0C0000
180000
320000
3F0000
070000
060000
060000
060000
060000
8C0000
CC0000
680000
380000
1C0000
3C0000
360000
638000
41FFFF
007FFE
ENDCHAR

STARTCHAR cns3_2140
ENCODING 8512
SWIDTH 960 0
DWIDTH 24 0
BBX 24 24 0 -2
BITMAP
000000
000000
000020
3FFFF0
000070
000060
000060
000060
000060
000060
000060
0FFFC0
0000C0
0000C0
0000C0
0000C0
0000C0
0000C0
0000C0
0000C6
FFFFFF
000000
000000
000000
ENDCHAR

STARTCHAR cns3_2141
ENCODING 8513
SWIDTH 960 0
DWIDTH 24 0
BBX 24 24 0 -2
BITMAP
00E000
00C000
00C000
00C000
00C000
00C020
01FFF0
018070
018060
018060
018060
030060
030060
030060
030060
03FFE0
0300C0
0000C0
0000C0
000180
000180
000186
FFFFFF
000000
ENDCHAR

STARTCHAR cns3_2142
ENCODING 8514
SWIDTH 960 0
DWIDTH 24 0
BBX 24 24 0 -2
BITMAP
000300
000300
000600
000C00
001800
003000
006000
038180
000180
000300
000600
000C00
001800
007000
0380C0
0000C0
000180
000300
000600
000C00
003800
00E000
038000
040000
ENDCHAR

STARTCHAR cns3_2143
ENCODING 8515
SWIDTH 960 0
DWIDTH 24 0
BBX 24 24 0 -2
BITMAP
010100
01FF80
018380
018300
018600
018400
018C00
018800
019000
018800
018C00
018600
018300
018300
018180
018180
018180
018180
018380
019F00
018600
018000
018000
018000
ENDCHAR

STARTCHAR cns3_2144
ENCODING 8516
SWIDTH 960 0
DWIDTH 24 0
BBX 24 24 0 -2
BITMAP
000E00
000C60
000C30
000C10
000C06
FFFFFF
000C00
000C00
000C00
060C00
060C00
031800
031800
019800
00F000
006000
007000
00F800
00CC00
018700
0303C0
0600F8
1C007F
F0001C
ENDCHAR

STARTCHAR cns3_2145
ENCODING 8517
SWIDTH 960 0
DWIDTH 24 0
BBX 24 24 0 -2
BITMAP
0601C0
060180
060180
0C0180
0C0180
180180
180180
30C180
60C180
E0C180
618180
318180
1B0180
0F0180
060180
0C4180
0C2180
183180
307182
61D982
FF9982
F019FF
0000FE
000000
ENDCHAR

STARTCHAR cns3_2146
ENCODING 8518
SWIDTH 960 0
DWIDTH 24 0
BBX 24 24 0 -2
BITMAP
070380
060300
060300
060300
060300
060300
060300
060300
060300
060300
667300
666300
666300
666300
666300
666300
666302
666302
666302
666302
666303
7FE303
6063FF
6001FE
ENDCHAR

STARTCHAR cns3_2147
ENCODING 8519
SWIDTH 960 0
DWIDTH 24 0
BBX 24 24 0 -2
BITMAP
006000
003800
001800
001804
00000E
FFFFFF
018180
018180
018180
018180
018180
018180
018180
018180
030180
030180
030180
060180
060180
0C0180
0C0180
180180
100180
200180
ENDCHAR

STARTCHAR cns3_2148
ENCODING 8520
SWIDTH 960 0
DWIDTH 24 0
BBX 24 24 0 -2
BITMAP
001C00
001800
001800
001800
201804
3FFFFE
30180E
30180C
30180C
30380C
30340C
30620C
30630C
30C18C
3180CC
33006C
32006C
34000C
30000C
30000C
30000C
30000C
3000FC
300038
ENDCHAR

STARTCHAR cns3_2149
ENCODING 8521
SWIDTH 960 0
DWIDTH 24 0
BBX 24 24 0 -2
BITMAP
038000
030000
030002
060FFF
060007
0C0006
0C0806
180806
1C0806
3C0406
6C040C
4C040C
8C040C
0C0618
0C0218
0C0330
0C0330
0C01E0
0C00C0
0C01E0
0C0330
0C061C
0C180F
0C6006
ENDCHAR

STARTCHAR cns3_214A
ENCODING 8522
SWIDTH 960 0
DWIDTH 24 0
BBX 24 24 0 -2
BITMAP
060300
070380
060380
0C0300
0C0700
0C0600
180600
180600
300C00
300C00
700C00
580C00
981800
981800
181800
181820
183010
183018
18300C
186006
1861FF
19FF87
187803
180003
ENDCHAR

STARTCHAR cns3_214B
ENCODING 8523
SWIDTH 960 0
DWIDTH 24 0
BBX 24 24 0 -2
BITMAP
0701C0
060180
060180
060180
060180
060180
060180
060180
060180
0E0180
0D0180
0D03C0
0D8340
1C8340
18C360
18C660
186620
306630
306C10
204C18
60180C
40300E
802007
004002
ENDCHAR

STARTCHAR cns3_214C
ENCODING 8524
SWIDTH 960 0
DWIDTH 24 0
BBX 24 24 0 -2
BITMAP
001C00
001800
001800
003000
003800
006E00
00C300
0181C0
0700F0
38003F
C0000C
003800
003000
003000
003800
007800
006C00
00C600
00C300
018180
0300C0
060070
0C003C
70001F
ENDCHAR

STARTCHAR cns3_214D
ENCODING 8525
SWIDTH 960 0
DWIDTH 24 0
BBX 24 24 0 -2
BITMAP
0C0010
0FFFF8
0C0038
0C0030
0C0030
0C0030
0C0030
0C0032
FFFFFF
0C0030
0C0030
0C0030
0C0030
0C0032
FFFFFF
0C0030
0C0030
0C0030
0C0030
0C0030
0C0030
0C0030
0C03F0
0C0060
ENDCHAR

STARTCHAR cns3_214E
ENCODING 8526
SWIDTH 960 0
DWIDTH 24 0
BBX 24 24 0 -2
BITMAP
000000
200004
3FFFFE
30180E
30180C
30180C
30180C
30180C
30180C
30180C
30180C
30180C
3FFFFC
30000C
30000C
30000C
30000C
30000C
30000C
30000C
30000C
30000C
3000FC
300038
ENDCHAR

STARTCHAR cns3_214F
ENCODING 8527
SWIDTH 960 0
DWIDTH 24 0
BBX 24 24 0 -2
BITMAP
200000
200002
3FFFFF
600007
60000E
E00018
C18300
018380
018300
018300
018300
018300
018300
018300
018300
018300
030302
030302
030302
060302
060302
0C0303
1803FF
E001FE
ENDCHAR

STARTCHAR cns3_2150
ENCODING 8528
SWIDTH 960 0
DWIDTH 24 0
BBX 24 24 0 -2
BITMAP
600000
380006
18FFFF
0000C0
0000C0
0200C0
0200C0
0200C0
0400C0
0400C0
0C00C0
0C00C0
1800C0
1800C0
3000C0
3000C0
F000C0
6000C0
6000C0
6000C0
3000C0
3000C0
301FC0
300380
ENDCHAR

STARTCHAR cns3_2151
ENCODING 8529
SWIDTH 960 0
DWIDTH 24 0
BBX 24 24 0 -2
BITMAP
200010
3FFFF8
300038
300030
300130
37FFB0
300330
320330
320330
310630
318630
308630
30CC30
306C30
303818
303818
303819
606C19
606619
60C38D
4381ED
CE00CD
800007
800002
ENDCHAR

STARTCHAR cns3_2152
ENCODING 8530
SWIDTH 960 0
DWIDTH 24 0
BBX 24 24 0 -2
BITMAP
000000
000020
7FFFF0
00C070
00C060
00C060
00C060
30C060
0CC060
07C070
03C068
00C06C
018066
018067
018063
030060
030060
060060
060060
0C00E0
1800C0
3001C0
603F80
800F00
ENDCHAR

STARTCHAR cns3_2153
ENCODING 8531
SWIDTH 960 0
DWIDTH 24 0
BBX 24 24 0 -2
BITMAP
007000
006000
006000
006000
006020
3FFFF0
006070
006060
006060
086060
0C6070
0C6068
18C06C
18C066
30C067
218063
418060
030060
030060
0600E0
0C00C0
1801C0
301F80
C00700
ENDCHAR

STARTCHAR cns3_2154
ENCODING 8532
SWIDTH 960 0
DWIDTH 24 0
BBX 24 24 0 -2
BITMAP
0040E0
FFE0C0
00E0C0
80C0C0
80C0C0
40C0C2
418FFF
4180C7
6180C6
2180C6
3300C6
1300C6
1B00C6
0E00C6
0E00C6
0E00C6
1B0186
1B0186
318186
318306
60C306
40E60E
804C7C
001018
ENDCHAR

STARTCHAR cns3_2155
ENCODING 8533
SWIDTH 960 0
DWIDTH 24 0
BBX 24 24 0 -2
BITMAP
070000
060000
060000
0C0002
0FFFFF
1C0007
180006
303806
303006
603006
806006
006006
006006
00D006
00D006
019806
030C06
060E06
0C0706
1803EE
60018C
00001C
0003F8
0000E0
ENDCHAR

STARTCHAR cns3_2156
ENCODING 8534
SWIDTH 960 0
DWIDTH 24 0
BBX 24 24 0 -2
BITMAP
070000
060000
060000
060000
0E0002
0FFFFF
0C0007
180006
186006
303806
201C06
400C06
800006
000006
000F06
007806
03C006
030006
000006
00000E
00000C
00001C
000FF8
0000E0
ENDCHAR

STARTCHAR cns3_2157
ENCODING 8535
SWIDTH 960 0
DWIDTH 24 0
BBX 24 24 0 -2
BITMAP
400006
7FFFFF
600000
600038
600030
630030
60C060
606060
6030C0
6018C0
600D80
600780
600300
600780
600CC0
601860
603030
60E018
63801C
6E000C
600000
600006
7FFFFF
600000
ENDCHAR

STARTCHAR cns3_2158
ENCODING 8536
SWIDTH 960 0
DWIDTH 24 0
BBX 24 24 0 -2
BITMAP
0E01C0
0C0180
0C0180
0C0180
0C0180
0C8182
FFDFFF
0C0187
0C0186
0C0186
0C0186
0C0186
0C0186
0C0306
0C0306
0C0306
0C0606
0C0606
0C0606
0C0C06
0C0C0C
0C181C
0C30F8
0C4030
ENDCHAR

STARTCHAR cns3_2159
ENCODING 8537
SWIDTH 960 0
DWIDTH 24 0
BBX 24 24 0 -2
BITMAP
007000
006000
006000
006040
7FFFE0
0060E0
0060C0
00C0C0
00C0C2
0180C2
0300C2
0600C3
1800FF
E0007E
001C00
001800
001806
FFFFFF
001800
001800
001800
001800
001800
001800
ENDCHAR

STARTCHAR cns3_215A
ENCODING 8538
SWIDTH 960 0
DWIDTH 24 0
BBX 24 24 0 -2
BITMAP
00E1C0
00C180
00C180
00C180
00C180
00C180
00C180
00C180
00C186
7FC1FF
00C180
00C180
00C180
00C180
00C180
00C180
00C180
00C180
00C180
00C180
00C180
00C180
00C180
00C180
ENDCHAR

STARTCHAR cns3_215B
ENCODING 8539
SWIDTH 960 0
DWIDTH 24 0
BBX 24 24 0 -2
BITMAP
200006
3FFFFF
300000
301C00
301800
301800
301808
37FFFC
30181C
301818
301818
303018
303018
303018
306018
306018
606018
60C038
60C030
418070
4307E0
8C00C0
800000
000000
ENDCHAR

STARTCHAR cns3_215C
ENCODING 8540
SWIDTH 960 0
DWIDTH 24 0
BBX 24 24 0 -2
BITMAP
007000
006000
006000
006000
006006
FFFFFF
00C000
00C000
00C000
018600
018700
038600
030600
030C00
060C60
0E1830
0C1838
183018
3020FC
60FF8C
83FC0C
01C004
008000
000000
ENDCHAR

STARTCHAR cns3_215D
ENCODING 8541
SWIDTH 960 0
DWIDTH 24 0
BBX 24 24 0 -2
BITMAP
00E000
00C000
018000
018000
030300
0300C0
060060
0C0038
1007FC
7FFC0E
3E0006
000004
000000
01C000
018000
018000
030300
0300C0
060060
0C0038
1007FC
7FFC0E
3E0006
000004
ENDCHAR

STARTCHAR cns3_215E
ENCODING 8542
SWIDTH 960 0
DWIDTH 24 0
BBX 24 24 0 -2
BITMAP
008008
FFDFFC
01C01C
018018
018418
018418
018418
618630
1B0230
0F0330
070330
038160
0781E0
06C0E0
0CE0C0
0C60C0
1861E0
1803B0
300338
60061C
801C0F
003006
00C000
000000
ENDCHAR

STARTCHAR cns3_215F
ENCODING 8543
SWIDTH 960 0
DWIDTH 24 0
BBX 24 24 0 -2
BITMAP
000060
0FFFF0
0200E0
018180
00C300
006600
003C00
007700
01C1F0
0F003F
78000C
000010
1FFFF8
020070
0100E0
0180C0
00C180
006300
003E00
001C00
007700
03C1E0
1E007F
F00018
ENDCHAR

STARTCHAR cns3_2160
ENCODING 8544
SWIDTH 960 0
DWIDTH 24 0
BBX 24 24 0 -2
BITMAP
01C000
018000
018004
018FFE
71800E
61840C
61840C
61840C
61860C
61820C
61820C
618218
618318
618118
6181B0
7F81B0
6180E0
0180C0
0181E0
0181B0
018330
01861C
018C0F
01B006
ENDCHAR

STARTCHAR cns3_2161
ENCODING 8545
SWIDTH 960 0
DWIDTH 24 0
BBX 24 24 0 -2
BITMAP
000000
001C00
001800
001800
001800
001800
001800
001800
001800
001818
3FFFFC
001800
001800
001800
001980
0018C0
001860
001870
001820
001800
001804
00180E
FFFFFF
000000
ENDCHAR

STARTCHAR cns3_2162
ENCODING 8546
SWIDTH 960 0
DWIDTH 24 0
BBX 24 24 0 -2
BITMAP
381C0E
30180C
30180C
30180C
30180C
30180C
30180C
30180C
30180C
30180C
30180C
30180C
30180C
3FFFFC
30180C
30180C
001800
001800
001800
001800
001804
00180E
FFFFFF
000000
ENDCHAR

STARTCHAR cns3_2163
ENCODING 8547
SWIDTH 960 0
DWIDTH 24 0
BBX 24 24 0 -2
BITMAP
000006
FFFFFF
001800
001800
001800
001800
201804
3FFFFE
30180E
30180C
30180C
30180C
30180C
30180C
30180C
30180C
30180C
30180C
30180C
3018FC
301838
001800
001800
001800
ENDCHAR

STARTCHAR cns3_2164
ENCODING 8548
SWIDTH 960 0
DWIDTH 24 0
BBX 24 24 0 -2
BITMAP
000700
000640
000630
000618
000610
000600
000606
00067F
FFFF80
000600
000600
000600
000300
000300
000300
003180
FFF980
0000C2
0000C2
000062
000072
00003B
00001F
00000E
ENDCHAR

STARTCHAR cns3_2165
ENCODING 8549
SWIDTH 960 0
DWIDTH 24 0
BBX 24 24 0 -2
BITMAP
006000
001800
000C00
000E00
000400
080008
0FFFFC
0C001C
0C0018
0C0018
0C0018
0C0018
0C0018
0FFFF8
0C0018
0C0000
180000
180000
180000
300000
300000
600000
400000
800000
ENDCHAR

STARTCHAR cns3_2166
ENCODING 8550
SWIDTH 960 0
DWIDTH 24 0
BBX 24 24 0 -2
BITMAP
000000
000018
1FFFFC
000000
000000
080008
0FFFFC
0C001C
0C0018
0C0018
0C0018
0C0018
0C0018
0FFFF8
0C0018
0C0000
180000
180000
180000
300000
300000
600000
400000
800000
ENDCHAR

STARTCHAR cns3_2167
ENCODING 8551
SWIDTH 960 0
DWIDTH 24 0
BBX 24 24 0 -2
BITMAP
007000
006000
006000
006008
00601C
007FFE
006000
006000
006000
006000
3FFFF0
020078
0300E0
0100C0
018180
00C300
006600
003C00
003C00
006E00
01C380
0701E0
1C007F
E0001C
ENDCHAR

STARTCHAR cns3_2168
ENCODING 8552
SWIDTH 960 0
DWIDTH 24 0
BBX 24 24 0 -2
BITMAP
01C000
018000
018000
018000
030000
03000C
07FFFE
060180
0C0180
188180
308300
404300
006300
003600
003600
001C00
001C00
003600
006300
00C180
0180E0
070078
1C003F
F0000C
ENDCHAR

STARTCHAR cns3_2169
ENCODING 8553
SWIDTH 960 0
DWIDTH 24 0
BBX 24 24 0 -2
BITMAP
000000
000018
3FFFFC
003000
003000
003000
003004
00300E
FFFFFF
003000
003000
003700
003600
003600
006600
006600
00C600
00C600
018602
038602
060602
0C0603
3007FF
C003FE
ENDCHAR

STARTCHAR cns3_216A
ENCODING 8554
SWIDTH 960 0
DWIDTH 24 0
BBX 24 24 0 -2
BITMAP
000000
000018
3FFFFC
180300
180300
180300
180300
180300
300300
300306
3FFFFF
000300
000300
070300
01E300
003B00
000F80
0003F0
00033E
00030E
000300
000300
00FF00
001E00
ENDCHAR

STARTCHAR cns3_216B
ENCODING 8555
SWIDTH 960 0
DWIDTH 24 0
BBX 24 24 0 -2
BITMAP
0E0000
0C0000
0C0018
1FFFFC
181800
301800
301800
601800
401800
801800
001800
00180C
7FFFFE
001800
001800
001800
001840
001860
001830
001820
001800
00180C
7FFFFE
000000
ENDCHAR

STARTCHAR cns3_216C
ENCODING 8556
SWIDTH 960 0
DWIDTH 24 0
BBX 24 24 0 -2
BITMAP
001C00
001800
001800
1C181C
181818
181818
181818
181818
181818
1FFFF8
180018
000000
000000
000000
000030
1FFFF8
000000
000000
000000
000000
00000C
7FFFFE
000000
000000
ENDCHAR

STARTCHAR cns3_216D
ENCODING 8557
SWIDTH 960 0
DWIDTH 24 0
BBX 24 24 0 -2
BITMAP
060000
070018
067FFC
0E0300
0C0300
0C0300
1C0300
180300
180300
380306
3DFFFF
6C0300
4C0300
CC0300
8C0300
0C0300
0C0300
0C0300
0C0300
0C0300
0C0300
0C0300
0C0300
0C0300
ENDCHAR

STARTCHAR cns3_216E
ENCODING 8558
SWIDTH 960 0
DWIDTH 24 0
BBX 24 24 0 -2
BITMAP
0C0380
0E0300
0C0300
0C0300
180300
180300
18030C
31FFFE
300300
780300
580700
980680
980680
180C80
180CC0
181840
181860
183060
183030
186038
18C01C
19800F
1A0004
180000
ENDCHAR

STARTCHAR cns3_216F
ENCODING 8559
SWIDTH 960 0
DWIDTH 24 0
BBX 24 24 0 -2
BITMAP
030810
038FF8
030C38
070C30
060C30
060C30
0E0C30
0C0C30
1C0C30
1C0E30
360DB0
360CF0
660CF0
460C30
860C30
060C30
060C30
061830
061832
061032
063032
062033
06403F
06001E
ENDCHAR

STARTCHAR cns3_2170
ENCODING 8560
SWIDTH 960 0
DWIDTH 24 0
BBX 24 24 0 -2
BITMAP
003800
003000
003000
003060
003FF0
003000
003000
003006
FFFFFF
000000
003800
003000
003000
003000
006800
006800
00CC00
00C600
018380
0301C0
0600F0
0C003C
38001F
E00006
ENDCHAR

STARTCHAR cns3_2171
ENCODING 8561
SWIDTH 960 0
DWIDTH 24 0
BBX 24 24 0 -2
BITMAP
070000
060000
060006
067FFF
0C0C30
0C0C30
0C0C30
180C30
180C30
3C0C30
6C0C30
4C0C30
8C0C30
0C0C30
0C0C30
0C0C30
0C0C30
0C1830
0C1832
0C1832
0C3032
0C3033
0C603F
0C801E
ENDCHAR

STARTCHAR cns3_2172
ENCODING 8562
SWIDTH 960 0
DWIDTH 24 0
BBX 24 24 0 -2
BITMAP
070000
0601C0
060180
0C0180
0C0180
0C0180
180180
180180
181998
3C1988
3C318C
6C3186
4C3186
8C6183
8C6183
0CC181
0C8181
0C0180
0C0180
0C0180
0C0180
0C0180
0C1F80
0C0300
ENDCHAR

STARTCHAR cns3_2173
ENCODING 8563
SWIDTH 960 0
DWIDTH 24 0
BBX 24 24 0 -2
BITMAP
038C00
030E00
030C00
061802
061FFF
0C1807
0C3006
183006
18600E
38680C
3C460C
6CC318
4C8198
8D01B0
0C0030
0C0060
0C0060
0C00C0
0C0180
0C0300
0C0600
0C0C00
0C3000
0DC000
ENDCHAR

STARTCHAR cns3_2174
ENCODING 8564
SWIDTH 960 0
DWIDTH 24 0
BBX 24 24 0 -2
BITMAP
038700
030600
030600
060600
060C00
0C0C00
0C0C00
180C18
18FFFF
381818
3C1818
6C1818
4C3030
8C3030
0C3060
0C6060
0C7CC0
0C6380
0C01C0
0C0370
0C061C
0C0C0E
0C3007
0DC003
ENDCHAR

STARTCHAR cns3_2175
ENCODING 8565
SWIDTH 960 0
DWIDTH 24 0
BBX 24 24 0 -2
BITMAP
001800
003800
006400
00C300
018180
0300E0
060078
18081F
E01C06
003800
006000
00C180
030380
000600
001800
003030
00C070
0700E0
0001C0
000700
001C00
00E000
0F0000
000000
ENDCHAR

STARTCHAR cns3_2176
ENCODING 8566
SWIDTH 960 0
DWIDTH 24 0
BBX 24 24 0 -2
BITMAP
007000
003800
003400
006200
00C300
018180
0300C0
060070
0C00BC
3BFFDF
E01806
001800
001800
001800
001800
001800
001800
001800
001800
001800
001804
00180E
FFFFFF
000000
ENDCHAR

STARTCHAR cns3_2177
ENCODING 8567
SWIDTH 960 0
DWIDTH 24 0
BBX 24 24 0 -2
BITMAP
000000
200004
3FFFFE
30000E
30000C
30000C
31008C
31FFCC
3181CC
31818C
31818C
31818C
31818C
31818C
31FF8C
31818C
31800C
31800C
31808C
31808C
31FFCC
30FF8C
30007C
300018
ENDCHAR

STARTCHAR cns3_2178
ENCODING 8568
SWIDTH 960 0
DWIDTH 24 0
BBX 24 24 0 -2
BITMAP
000000
400004
7FFFFE
60000E
60000E
60000E
60000C
60000C
61010C
61FF8C
61838C
61830C
61830C
61830C
61830C
61830C
61FF0C
61830C
61800C
60000C
60000C
60000C
6001FC
600038
ENDCHAR

STARTCHAR cns3_2179
ENCODING 8569
SWIDTH 960 0
DWIDTH 24 0
BBX 24 24 0 -2
BITMAP
104010
1FE7F8
18E638
18C630
18C630
18C630
18C630
18C630
18C630
18C632
FFFFFF
18C630
18C630
18C630
18C630
18C630
18C630
18C630
18C630
18C630
18C630
18C630
1BC6F0
188660
ENDCHAR

STARTCHAR cns3_217A
ENCODING 8570
SWIDTH 960 0
DWIDTH 24 0
BBX 24 24 0 -2
BITMAP
200000
200002
3FFFFF
600007
60000E
E1C018
C18000
018060
01FFF0
030000
030000
030008
07FFFC
06001C
000018
000018
00001A
3FFFFF
000018
000018
000018
000038
0007F0
0000E0
ENDCHAR

STARTCHAR cns3_217B
ENCODING 8571
SWIDTH 960 0
DWIDTH 24 0
BBX 24 24 0 -2
BITMAP
100004
1FFFFE
18000E
18000C
18000C
1FFFFC
18000C
180000
188040
18FFE0
18C0E0
18C0C0
18C0C0
18C0C0
18C0C0
18C0C0
30C0C0
30C0C2
3180C2
2180C2
6300C3
4600FF
48007E
800000
ENDCHAR

STARTCHAR cns3_217C
ENCODING 8572
SWIDTH 960 0
DWIDTH 24 0
BBX 24 24 0 -2
BITMAP
0E0000
0C0002
0C3FFF
0C0307
0C0306
0CC306
FFE306
0C0306
0C0306
0C0306
0C0306
0C0306
0C0306
0C0306
0C0606
0C0606
0C0606
0DEC06
FF0C0C
78180C
00180C
00301C
0063F8
008070
ENDCHAR

STARTCHAR cns3_217D
ENCODING 8573
SWIDTH 960 0
DWIDTH 24 0
BBX 24 24 0 -2
BITMAP
003807
03FC06
7F01C6
030186
030186
030186
030186
030186
030186
031986
FFFD86
030186
030186
030186
030186
030186
030186
030186
030186
060006
060006
0C0006
1800FE
30001C
ENDCHAR

STARTCHAR cns3_217E
ENCODING 8574
SWIDTH 960 0
DWIDTH 24 0
BBX 24 24 0 -2
BITMAP
0E0000
0C0002
0C1FFF
0C0187
180186
180186
300186
318186
618186
E18186
630186
330186
1E0186
0E0186
060186
0C8186
0C4186
186306
30E306
63B606
FE3606
702C0E
0018FC
002038
ENDCHAR

STARTCHAR cns3_2221
ENCODING 8737
SWIDTH 960 0
DWIDTH 24 0
BBX 24 24 0 -2
BITMAP
400004
7FFFFE
60000E
60700C
60600C
60600C
60600C
60604C
6FFFEC
6060EC
6060CC
6060CC
6060CC
6060CC
6060CC
6060CC
60C0CC
60C0CC
6181CC
631F8C
6C030C
60000C
7FFFFC
60000C
ENDCHAR

STARTCHAR cns3_2222
ENCODING 8738
SWIDTH 960 0
DWIDTH 24 0
BBX 24 24 0 -2
BITMAP
070000
060000
060000
0C0004
1FFFFE
18000E
30000C
30000C
60C00C
40600C
00600C
00618C
FFFFCC
30000C
30000C
30000C
30000C
30000C
30000C
3FFFCC
1FFF8C
00001C
0000F8
000030
ENDCHAR

STARTCHAR cns3_2223
ENCODING 8739
SWIDTH 960 0
DWIDTH 24 0
BBX 24 24 0 -2
BITMAP
070000
060000
060000
0E0002
0FFFFF
080007
180C06
100E06
200C06
260C06
461806
061C06
063206
063306
066186
0640C6
0680C6
060006
07FFCE
06000C
06000C
00001C
0001F8
000070
ENDCHAR

STARTCHAR cns3_2224
ENCODING 8740
SWIDTH 960 0
DWIDTH 24 0
BBX 24 24 0 -2
BITMAP
070000
060000
060000
060002
0FFFFF
180007
300006
E00006
038046
03FFE6
0300E6
0600C6
0600C6
0D8186
18C186
306306
003306
001E06
000C06
001806
003006
00600E
01C07C
0F0018
ENDCHAR

STARTCHAR cns3_2225
ENCODING 8741
SWIDTH 960 0
DWIDTH 24 0
BBX 24 24 0 -2
BITMAP
070000
060000
060000
0C0002
0FFFFF
0C6187
186186
106186
33C306
21C306
40E306
81B306
031E06
060706
0C0F86
180DC6
6018E6
003076
00603E
00C01E
01800F
06001F
3807F8
0001E0
ENDCHAR

STARTCHAR cns3_2226
ENCODING 8742
SWIDTH 960 0
DWIDTH 24 0
BBX 24 24 0 -2
BITMAP
400006
7FFFFF
600000
600000
600018
67FFFC
600C00
600C00
600C00
600C00
600C00
600C00
600C00
600C00
600C00
600C00
600C18
67FFFC
600000
600000
600006
7FFFFF
600000
600000
ENDCHAR

STARTCHAR cns3_2227
ENCODING 8743
SWIDTH 960 0
DWIDTH 24 0
BBX 24 24 0 -2
BITMAP
000700
000600
000600
608600
7F8600
618600
618600
618600
618780
618660
618630
618618
61861C
61860E
618606
618600
618600
618600
7F8600
618600
600600
000600
000600
000600
ENDCHAR

STARTCHAR cns3_2228
ENCODING 8744
SWIDTH 960 0
DWIDTH 24 0
BBX 24 24 0 -2
BITMAP
000202
0063FF
FFF307
060306
060306
060306
060306
060306
060306
060306
060306
060306
060306
060306
060306
060306
06733E
07C30C
FE0300
700300
000300
000300
000300
000300
ENDCHAR

STARTCHAR cns3_2229
ENCODING 8745
SWIDTH 960 0
DWIDTH 24 0
BBX 24 24 0 -2
BITMAP
200006
3FFFFF
300000
300000
30000C
37FFFE
301800
301800
301800
301800
301804
301FFE
30180E
30180C
30300C
30300C
30600C
60600C
60C00C
60C018
418018
C30038
8607F0
9801E0
ENDCHAR

STARTCHAR cns3_222A
ENCODING 8746
SWIDTH 960 0
DWIDTH 24 0
BBX 24 24 0 -2
BITMAP
001C00
001800
001800
00180C
7FFFFE
001800
003400
003200
006300
00C180
0180E0
070078
1C703F
F06018
006000
00C000
00C100
0180C0
030060
060060
080FF0
7FF838
3F0018
000018
ENDCHAR

STARTCHAR cns3_222B
ENCODING 8747
SWIDTH 960 0
DWIDTH 24 0
BBX 24 24 0 -2
BITMAP
0001F0
007FFC
3FE000
006000
006000
006006
FFFFFF
00C000
00C000
00C010
01FFF8
01A038
032030
032060
031060
0618C0
060D80
0C0700
0C0700
180D80
3018C0
403070
80C03F
07000E
ENDCHAR

STARTCHAR cns3_222C
ENCODING 8748
SWIDTH 960 0
DWIDTH 24 0
BBX 24 24 0 -2
BITMAP
000700
000600
000600
610600
7F8600
638600
630600
630600
630600
630600
630600
630E00
630D00
630D00
630C80
6318C0
631840
7F1860
633030
603030
006018
00C01C
01800F
060006
ENDCHAR

STARTCHAR cns3_222D
ENCODING 8749
SWIDTH 960 0
DWIDTH 24 0
BBX 24 24 0 -2
BITMAP
0000E0
0000C0
0000C0
0000C0
4080C0
7FC0C0
61C0C0
6180C0
6180C6
619FFF
6180C0
6180C0
6180C0
6180C0
6180C0
6180C0
6180C0
6180C0
7F80C0
6180C0
6000C0
0000C0
0000C0
0000C0
ENDCHAR

STARTCHAR cns3_222E
ENCODING 8750
SWIDTH 960 0
DWIDTH 24 0
BBX 24 24 0 -2
BITMAP
080010
0FFFF8
0C0038
0C0030
0C0030
0C0030
0FFFF0
0C0020
000000
00000C
7FFFFE
00C000
00C000
018000
018008
03FFFC
03001C
000018
000018
000018
000030
000070
001FE0
0003C0
ENDCHAR

STARTCHAR cns3_222F
ENCODING 8751
SWIDTH 960 0
DWIDTH 24 0
BBX 24 24 0 -2
BITMAP
000000
000000
000004
608FFE
7FC00E
61C00C
61880C
61880C
61840C
618418
618618
618218
618330
618130
6181E0
6180C0
6181E0
7F81A0
618330
600318
00061C
000C0E
001807
006002
ENDCHAR

STARTCHAR cns3_2230
ENCODING 8752
SWIDTH 960 0
DWIDTH 24 0
BBX 24 24 0 -2
BITMAP
000E00
000C00
000C00
610C00
7F8C00
638C60
637FF0
630C70
630C60
630C60
630C60
630C60
630C60
631860
631860
631860
631860
633062
7F3062
633062
606063
006063
00C07F
01003E
ENDCHAR

STARTCHAR cns3_2231
ENCODING 8753
SWIDTH 960 0
DWIDTH 24 0
BBX 24 24 0 -2
BITMAP
006000
006000
006080
7FFFC0
00C1C0
00C180
018180
018182
030182
030182
060182
0C0183
1801FF
E000FE
000000
080010
0FFFF8
0C0038
0C0030
0C0030
0C0030
0C0030
0FFFF0
0C0030
ENDCHAR

STARTCHAR cns3_2232
ENCODING 8754
SWIDTH 960 0
DWIDTH 24 0
BBX 24 24 0 -2
BITMAP
400002
7FFFFF
600007
600046
67FFE6
6100E6
6100C6
608186
60C186
606306
606306
603606
603E06
601C06
603C06
606606
60C386
6301F6
6C00C6
600006
600006
7FFFFE
600006
600000
ENDCHAR

STARTCHAR cns3_2233
ENCODING 8755
SWIDTH 960 0
DWIDTH 24 0
BBX 24 24 0 -2
BITMAP
0E01C0
0C0180
0C0180
0C0180
0C0180
0C0182
0C1FFF
0C8187
FFC186
0C0186
0C0186
0C0186
0C0306
0C0306
0C0306
0C0306
0C0606
0C0606
0C0606
0F8C0E
FC0C0C
70181C
0030F8
00C030
ENDCHAR

STARTCHAR cns3_2234
ENCODING 8756
SWIDTH 960 0
DWIDTH 24 0
BBX 24 24 0 -2
BITMAP
0001C0
180180
180180
180180
180180
180180
180180
188180
FFC180
1801E0
180198
18018C
180186
180187
180183
180183
19C180
1F0180
F80180
E00180
400180
000180
000180
000180
ENDCHAR

STARTCHAR cns3_2235
ENCODING 8757
SWIDTH 960 0
DWIDTH 24 0
BBX 24 24 0 -2
BITMAP
038070
030060
030060
060060
061860
0FFC60
0C1860
181860
1830E0
3030D0
2030D0
5860C8
8C6188
06C18C
03C306
018607
01C802
036000
063000
0C1800
180E00
3003FF
C000FE
000000
ENDCHAR

STARTCHAR cns3_2236
ENCODING 8758
SWIDTH 960 0
DWIDTH 24 0
BBX 24 24 0 -2
BITMAP
070000
060202
0603FF
0C0307
0C1306
0FFB06
183B06
183306
303306
383306
6C6306
876306
03E306
00C306
00C306
018306
018306
03037E
03031C
060300
0C0300
180300
300300
C00300
ENDCHAR

STARTCHAR cns3_2237
ENCODING 8759
SWIDTH 960 0
DWIDTH 24 0
BBX 24 24 0 -2
BITMAP
001C00
001800
001800
001800
001800
001806
FFFFFF
003800
003000
007400
006200
00E300
00DD80
0198C0
031870
06183C
0C181F
38188E
E3FFC4
001800
001800
001800
001800
001800
ENDCHAR

STARTCHAR cns3_2238
ENCODING 8760
SWIDTH 960 0
DWIDTH 24 0
BBX 24 24 0 -2
BITMAP
001C00
001800
003006
FFFFFF
006400
00C300
018180
0300C0
060070
0C003C
31C1DF
C1818C
018180
018180
018180
018180
030180
030180
030180
060180
060180
0C0180
180180
600180
ENDCHAR

STARTCHAR cns3_2239
ENCODING 8761
SWIDTH 960 0
DWIDTH 24 0
BBX 24 24 0 -2
BITMAP
000E00
180C00
0E0C00
070C00
030C00
000C00
180C00
0C0C00
070C00
030C00
020C04
00180E
FFFFFF
001800
003200
003200
006300
006300
00C180
0181C0
0300E0
060078
18003F
E0000C
ENDCHAR

STARTCHAR cns3_223A
ENCODING 8762
SWIDTH 960 0
DWIDTH 24 0
BBX 24 24 0 -2
BITMAP
001C00
001800
001800
001800
001806
FFFFFF
001800
003400
003400
006200
00C300
018180
0300C0
0E0070
38003F
E6006C
060060
060060
060060
060060
060060
07FFE0
060060
060000
ENDCHAR

STARTCHAR cns3_223B
ENCODING 8763
SWIDTH 960 0
DWIDTH 24 0
BBX 24 24 0 -2
BITMAP
1C0000
180006
183FFF
1800C0
1900C0
FF80C0
3300C0
3300C0
3300C0
6300C0
6300C0
6300C0
6600C0
C600C0
E600C0
DC00C0
0C00C0
0E00C0
1B00C0
1180C0
3180C0
20C0C0
409FC0
800380
ENDCHAR

STARTCHAR cns3_223C
ENCODING 8764
SWIDTH 960 0
DWIDTH 24 0
BBX 24 24 0 -2
BITMAP
003000
001800
201802
3FFFFF
600006
C00004
C00048
07FFE0
0000E0
0200C0
010180
008180
004300
006300
003600
001C00
001C00
003600
006300
00C180
0380E0
0E007E
780038
000000
ENDCHAR

STARTCHAR cns3_223D
ENCODING 8765
SWIDTH 960 0
DWIDTH 24 0
BBX 24 24 0 -2
BITMAP
003000
003800
201802
3FFFFF
600007
C00006
C0000C
000000
018380
018300
018300
018300
018300
018300
018300
018300
030302
030302
030302
060302
060302
0C0303
1803FF
E001FE
ENDCHAR

STARTCHAR cns3_223E
ENCODING 8766
SWIDTH 960 0
DWIDTH 24 0
BBX 24 24 0 -2
BITMAP
00001C
000018
003018
3FF818
003818
10301A
1037FF
103018
186018
086018
086218
086318
0CC118
04C198
06C198
078118
038018
030018
078018
06C018
0CC018
186018
3079F8
C03030
ENDCHAR

STARTCHAR cns3_223F
ENCODING 8767
SWIDTH 960 0
DWIDTH 24 0
BBX 24 24 0 -2
BITMAP
080000
0E0000
0C0000
0C0004
1FFFFE
18000E
30000C
601C18
801810
001800
001800
061880
071860
0E1830
0C1818
18180C
30180E
601806
801806
001800
001800
001800
07F800
007000
ENDCHAR

STARTCHAR cns3_2240
ENCODING 8768
SWIDTH 960 0
DWIDTH 24 0
BBX 24 24 0 -2
BITMAP
200004
3FFFFE
30000E
30000C
30000C
3FFFFC
300000
300000
300020
37FFF0
310070
310060
308060
30C0C0
3060C0
303180
301B00
600E00
600600
400F00
4019C0
8060F0
81C07E
0E0018
ENDCHAR

STARTCHAR cns3_2241
ENCODING 8769
SWIDTH 960 0
DWIDTH 24 0
BBX 24 24 0 -2
BITMAP
0E0810
0C0FF8
0C0C38
0C0C30
0C0C30
6D8C30
6D8C30
6D8C30
6D8C30
6D8C30
6D8C30
6D8C30
6D8C30
6D8C30
6D8C30
6D8C30
6D8C30
6D9830
6D9832
7F9032
61B032
602033
00403F
00801E
ENDCHAR

STARTCHAR cns3_2242
ENCODING 8770
SWIDTH 960 0
DWIDTH 24 0
BBX 24 24 0 -2
BITMAP
001C00
001800
001800
1C181C
181818
181818
181818
181818
1FFFF8
180018
001C00
001800
001800
001800
003400
003200
006300
00C180
0180C0
030060
060038
18001F
E0000C
000000
ENDCHAR

STARTCHAR cns3_2243
ENCODING 8771
SWIDTH 960 0
DWIDTH 24 0
BBX 24 24 0 -2
BITMAP
001C00
1C181C
181818
181818
181818
1FFFF8
180018
003000
001800
001800
000C00
000C00
001600
001600
003300
003300
006180
006180
00C0C0
018060
030070
060038
1C001F
F0000C
ENDCHAR

STARTCHAR cns3_2244
ENCODING 8772
SWIDTH 960 0
DWIDTH 24 0
BBX 24 24 0 -2
BITMAP
001C00
001800
38180E
30180C
30180C
3FFFFC
30000C
000080
3FFFC0
0180C0
0180C0
018180
018182
0183FF
030307
030006
060006
060006
0C000C
0C000C
180018
300038
6007F0
8000E0
ENDCHAR

STARTCHAR cns3_2245
ENCODING 8773
SWIDTH 960 0
DWIDTH 24 0
BBX 24 24 0 -2
BITMAP
000000
000010
1FFFF8
000038
000030
000030
000030
180030
1FFFF0
180030
180000
180000
180000
180010
1FFFF8
180038
180030
180030
180030
180030
180030
180030
1FFFF0
180030
ENDCHAR

STARTCHAR cns3_2246
ENCODING 8774
SWIDTH 960 0
DWIDTH 24 0
BBX 24 24 0 -2
BITMAP
0E0000
0C0E00
0C0C00
0C0C00
8C4C00
FFEC00
CCEC00
CCCC00
CCCC0C
CCCC7E
CCCFC0
CCCC00
CCCC00
CCCC00
CCCC00
CCCC00
CFCC02
CD8C02
0C0C02
0C0C02
0C0C03
0C0FFF
0C07FE
0C0000
ENDCHAR

STARTCHAR cns3_2247
ENCODING 8775
SWIDTH 960 0
DWIDTH 24 0
BBX 24 24 0 -2
BITMAP
001800
200C06
3FFFFF
300000
300000
300018
33FFFC
300600
300600
300600
300600
300600
300600
300600
300600
300600
300600
300600
600600
600600
400600
400600
807E00
800C00
ENDCHAR

STARTCHAR cns3_2248
ENCODING 8776
SWIDTH 960 0
DWIDTH 24 0
BBX 24 24 0 -2
BITMAP
001800
001C00
200C06
3FFFFF
300000
300000
300E00
300C00
301800
301800
303000
303000
306000
3060C0
30C030
308018
61800C
6101FE
67FF06
438006
400004
800000
800000
000000
ENDCHAR

STARTCHAR cns3_2249
ENCODING 8777
SWIDTH 960 0
DWIDTH 24 0
BBX 24 24 0 -2
BITMAP
000700
000660
000630
000630
000606
FFFFFF
000600
000600
000600
000600
006600
3FF600
000600
000300
000300
000300
000182
000182
0000C2
0030C2
7FF863
00003B
00001F
00000E
ENDCHAR

STARTCHAR cns3_224A
ENCODING 8778
SWIDTH 960 0
DWIDTH 24 0
BBX 24 24 0 -2
BITMAP
01C000
018000
018002
019FFF
018007
018006
018006
418006
218006
318006
198006
0D8FFE
0B0006
030006
030006
030006
060006
060006
060006
0C0006
0C1FFE
180006
300000
400000
ENDCHAR

STARTCHAR cns3_224B
ENCODING 8779
SWIDTH 960 0
DWIDTH 24 0
BBX 24 24 0 -2
BITMAP
0C0000
0C0006
183FFF
180030
300030
600030
860030
060030
0C0030
0C0030
180030
180030
3C0030
3C0030
6C0030
4C0030
8C0030
0C0030
0C0030
0C0030
0C0030
0C0030
0C0FF0
0C00E0
ENDCHAR

STARTCHAR cns3_224C
ENCODING 8780
SWIDTH 960 0
DWIDTH 24 0
BBX 24 24 0 -2
BITMAP
0E0000
0C0006
0C3FFF
0C0060
0C0060
0D0060
2D8060
2CC060
2CC060
6C8060
4C0060
4C0060
0C0060
0C0060
0C0060
0C0060
0C0060
0C0060
0C0060
0C0060
0C0060
0C0060
0C0FE0
0C01C0
ENDCHAR

STARTCHAR cns3_224D
ENCODING 8781
SWIDTH 960 0
DWIDTH 24 0
BBX 24 24 0 -2
BITMAP
1C0380
180300
180300
180300
180300
1C0302
5A7FFF
5B0307
5B0306
D90306
980606
980606
180606
180606
180C06
180C06
180C06
181806
181806
183006
18300C
18601C
18C3F8
1900F0
ENDCHAR

STARTCHAR cns3_224E
ENCODING 8782
SWIDTH 960 0
DWIDTH 24 0
BBX 24 24 0 -2
BITMAP
000E00
007F80
23E000
3F0000
300004
3FFFFE
30000E
30000C
3FFFFC
30000C
300000
300010
33FFFC
300038
300070
3001C0
300700
201C00
207000
40E004
41C004
438006
83FFFE
01FFFC
ENDCHAR

STARTCHAR cns3_224F
ENCODING 8783
SWIDTH 960 0
DWIDTH 24 0
BBX 24 24 0 -2
BITMAP
0E0000
0C0002
0C3FFF
0C0187
0C0186
0C8186
FFC186
0C0186
0C0186
0C0186
0C0186
0CC186
1F0186
FC0306
EC0306
0C0306
0C0306
0C0606
0C0606
0C0606
0C0C06
0C0C0C
FC18FC
182018
ENDCHAR

STARTCHAR cns3_2250
ENCODING 8784
SWIDTH 960 0
DWIDTH 24 0
BBX 24 24 0 -2
BITMAP
0E0380
0C0300
0C0300
0C0300
0C0300
0C8308
FFBFFC
0C031C
0C0318
0C0318
0C0318
0C0318
0F8318
FC0618
6C0618
0C0618
0C0618
0C0C18
0C0C1A
0C0C1A
0C181A
0C181B
FC301F
18400E
ENDCHAR

STARTCHAR cns3_2251
ENCODING 8785
SWIDTH 960 0
DWIDTH 24 0
BBX 24 24 0 -2
BITMAP
0E0000
0C1002
0C1FFF
0C1807
0C1806
0C1806
0C1806
0C1806
0C1806
0C1806
0C1806
0C1FFE
0C1806
0C1806
0C1806
0C1806
0C1806
0C1806
0C1806
0C1806
0C1806
0C1FFE
0C1806
0C1806
ENDCHAR

STARTCHAR cns3_2252
ENCODING 8786
SWIDTH 960 0
DWIDTH 24 0
BBX 24 24 0 -2
BITMAP
001C00
0018C0
001870
001830
001800
001806
FFFFFF
003800
007C00
007C00
00DA00
00DB00
019900
019980
0318C0
061860
0C1838
18181F
30180E
C01804
001800
001800
001800
001800
ENDCHAR

STARTCHAR cns3_2253
ENCODING 8787
SWIDTH 960 0
DWIDTH 24 0
BBX 24 24 0 -2
BITMAP
001C00
001800
001830
001FF8
039800
031800
031804
03FFFE
03000E
06000C
06001C
0E0018
0D8038
186030
303870
C01CE0
000DC0
000B80
000700
000E00
003800
00E000
078000
FC0000
ENDCHAR

STARTCHAR cns3_2254
ENCODING 8788
SWIDTH 960 0
DWIDTH 24 0
BBX 24 24 0 -2
BITMAP
004000
FFE380
00E300
01C300
038308
03031C
060BB0
0CFFE0
0C0F40
180F60
181B20
301B30
303318
60631C
60C30F
638306
C00300
C00302
C01F02
C00602
E00003
700007
3FFFFF
1FFFFE
ENDCHAR

STARTCHAR cns3_2255
ENCODING 8789
SWIDTH 960 0
DWIDTH 24 0
BBX 24 24 0 -2
BITMAP
000000
303000
1C3800
0C3800
003000
003000
C43000
643000
643038
0430F8
083F80
083000
183000
183000
303000
303000
F03000
603000
603000
603002
303002
303003
303FFF
301FFE
ENDCHAR

STARTCHAR cns3_2256
ENCODING 8790
SWIDTH 960 0
DWIDTH 24 0
BBX 24 24 0 -2
BITMAP
600000
380000
182010
003FF8
003038
023030
023030
C23030
643030
643030
0C3030
0C3030
183030
183030
303030
303030
F06030
606030
606032
60C032
30C032
318033
31003F
32001E
ENDCHAR

STARTCHAR cns3_2257
ENCODING 8791
SWIDTH 960 0
DWIDTH 24 0
BBX 24 24 0 -2
BITMAP
001C00
001800
301800
1C1800
0E1804
04180E
00981C
7FDC18
01DC30
019A60
019A80
031B00
031900
031980
0618C0
0618E0
0C1870
181838
30181C
60180F
801806
001800
01F800
003000
ENDCHAR

STARTCHAR cns3_2258
ENCODING 8792
SWIDTH 960 0
DWIDTH 24 0
BBX 24 24 0 -2
BITMAP
000700
300600
1C0600
0C0600
000600
000600
C20600
620600
640600
040600
0C0600
080D00
180D00
180D80
300D80
3018C0
F018C0
701860
303070
303038
18601C
18C00E
188007
190002
ENDCHAR

STARTCHAR cns3_2259
ENCODING 8793
SWIDTH 960 0
DWIDTH 24 0
BBX 24 24 0 -2
BITMAP
300006
19FFFF
0C0600
0C0600
010600
610600
310C00
320C00
020C00
061804
041FFE
0C180E
0C000C
18000C
38000C
70000C
30000C
30000C
38000C
18000C
180018
180038
1803F0
1800E0
ENDCHAR

STARTCHAR cns3_225A
ENCODING 8794
SWIDTH 960 0
DWIDTH 24 0
BBX 24 24 0 -2
BITMAP
000380
000300
004300
FFE300
0C0300
0C0300
0C0300
0C0300
0C0300
0C0300
0C4300
FFE300
0C0300
0C0300
0C0300
0C0300
0C0302
0DC302
0F0302
FC0302
F00302
000303
0003FF
0001FE
ENDCHAR

STARTCHAR cns3_225B
ENCODING 8795
SWIDTH 960 0
DWIDTH 24 0
BBX 24 24 0 -2
BITMAP
003000
101806
1FFFFF
980000
980000
D80000
580000
780000
580000
180000
180000
180000
380000
D80000
D80000
980000
100000
300000
200000
600000
400000
400000
800000
000000
ENDCHAR

STARTCHAR cns3_225C
ENCODING 8796
SWIDTH 960 0
DWIDTH 24 0
BBX 24 24 0 -2
BITMAP
000000
002430
7FF430
006260
00638E
60C10C
18C198
0D80E0
0B0060
060030
0C0018
18000E
300007
C00002
000000
000000
000000
000000
000000
000000
000000
000000
000000
000000
ENDCHAR

STARTCHAR cns3_225D
ENCODING 8797
SWIDTH 960 0
DWIDTH 24 0
BBX 24 24 0 -2
BITMAP
000102
0011FF
7FF986
203986
20318C
20318C
203188
103190
106190
186188
08618C
086186
0CC186
04C186
06C186
03818E
0381BC
078198
06C180
0C6180
187180
303980
601D80
800980
ENDCHAR

STARTCHAR cns3_225E
ENCODING 8798
SWIDTH 960 0
DWIDTH 24 0
BBX 24 24 0 -2
BITMAP
000102
0019FF
FFFD86
030186
030184
03018C
030188
030190
030190
030188
03018C
030186
030186
030186
030186
03018E
0301BC
030198
030180
030180
030180
030180
3F0180
0E0180
ENDCHAR

STARTCHAR cns3_225F
ENCODING 8799
SWIDTH 960 0
DWIDTH 24 0
BBX 24 24 0 -2
BITMAP
102082
1FF0FF
1870C3
1860C6
1860C6
1860CC
1860CC
1860C8
1860D0
1860C8
1860CC
1860C6
1860C6
1860C3
1860C3
1860C3
1860C3
3060C3
3064C7
2064FE
6066CC
407EC0
803CC0
0000C0
ENDCHAR

STARTCHAR cns3_2260
ENCODING 8800
SWIDTH 960 0
DWIDTH 24 0
BBX 24 24 0 -2
BITMAP
208000
3FC006
31DFFF
318060
318060
310060
330060
320060
360060
310060
318060
308060
30C060
30C060
30C060
318060
3F8060
360060
300060
300060
300060
3003E0
3000C0
300000
ENDCHAR

STARTCHAR cns3_2261
ENCODING 8801
SWIDTH 960 0
DWIDTH 24 0
BBX 24 24 0 -2
BITMAP
000006
FFFFFF
001800
001800
001800
001800
201804
3FFFFE
30180E
30180C
3318EC
3398CC
3318CC
3318CC
3318CC
3318CC
3318CC
3318CC
33FFCC
3300CC
30000C
30000C
3000FC
300038
ENDCHAR

STARTCHAR cns3_2262
ENCODING 8802
SWIDTH 960 0
DWIDTH 24 0
BBX 24 24 0 -2
BITMAP
01C700
018600
018600
018600
018600
018600
018600
01860C
FF87FE
018600
018600
018600
018600
018600
018602
018602
0F8603
F987FF
6003FE
000000
000000
000006
FFFFFF
000000
ENDCHAR

STARTCHAR cns3_2263
ENCODING 8803
SWIDTH 960 0
DWIDTH 24 0
BBX 24 24 0 -2
BITMAP
0001E0
003FF0
3FF000
003000
003000
003000
003000
003060
0FFFF0
003000
003000
003000
003006
FFFFFF
00C000
00C000
018000
018040
030030
060018
0C0FFC
1FFE0E
7F8006
180006
ENDCHAR

STARTCHAR cns3_2264
ENCODING 8804
SWIDTH 960 0
DWIDTH 24 0
BBX 24 24 0 -2
BITMAP
1C0380
180300
180300
180300
310300
30C300
306300
307300
61B300
FE3B00
701300
000300
000300
802300
FFF300
C07300
C06302
C06302
C06302
C06302
C06303
FFE303
C063FF
C061FE
ENDCHAR

STARTCHAR cns3_2265
ENCODING 8805
SWIDTH 960 0
DWIDTH 24 0
BBX 24 24 0 -2
BITMAP
01C000
018040
03FFE0
0300C0
060180
0C0300
300600
001800
1FFFF8
001830
001830
001832
FFFFFF
001830
001830
001830
1FFFF0
001830
001800
001800
001800
001800
03F800
007000
ENDCHAR

STARTCHAR cns3_2266
ENCODING 8806
SWIDTH 960 0
DWIDTH 24 0
BBX 24 24 0 -2
BITMAP
000000
000018
3FFFFC
000000
000000
000000
080010
0FFFF8
0C0038
0C0030
0C0030
0C0030
0FFFF0
0C0030
0C0030
0C0030
0C0030
0FFFF0
0C0030
0C0000
000004
00000E
FFFFFF
000000
ENDCHAR

STARTCHAR cns3_2267
ENCODING 8807
SWIDTH 960 0
DWIDTH 24 0
BBX 24 24 0 -2
BITMAP
0701C0
060180
060180
060198
0C3FFC
0C0180
0C0180
180180
18018C
3C3FFE
2C0180
6C0180
4C0180
8C0180
0C0186
0C7FFF
0C0180
0C0180
0C0180
0C0180
0C0180
0C0180
0C0180
0C0180
ENDCHAR

STARTCHAR cns3_2268
ENCODING 8808
SWIDTH 960 0
DWIDTH 24 0
BBX 24 24 0 -2
BITMAP
0701C0
060180
060180
0C0180
0C0180
180D98
180D8C
301986
301987
783183
583183
986180
18C18C
19018E
18019C
1801B8
180030
180060
1800C0
180180
180300
180E00
183800
19E000
ENDCHAR

STARTCHAR cns3_2269
ENCODING 8809
SWIDTH 960 0
DWIDTH 24 0
BBX 24 24 0 -2
BITMAP
060380
070180
060180
0C0180
0C4182
187FFF
1860C7
3061C6
3061C6
786346
586346
986666
186666
186C36
18683E
187016
186006
186006
186006
186006
186006
186006
1860FE
18601C
ENDCHAR

STARTCHAR cns3_226A
ENCODING 8810
SWIDTH 960 0
DWIDTH 24 0
BBX 24 24 0 -2
BITMAP
060138
0707B0
061E30
0CEC30
0C0C30
180C30
180C30
300C30
300C30
780C30
D80C32
98FFFF
180C30
180C30
181830
181830
181830
183030
183030
186030
186030
18C030
188030
190030
ENDCHAR

STARTCHAR cns3_226B
ENCODING 8811
SWIDTH 960 0
DWIDTH 24 0
BBX 24 24 0 -2
BITMAP
070038
0603FC
067F00
0C0300
0C0300
0C0300
180300
180300
300300
300306
79FFFF
580300
980300
180680
180680
1806C0
180C40
180C60
181860
181830
183038
18601C
18C00F
1B0006
ENDCHAR

STARTCHAR cns3_226C
ENCODING 8812
SWIDTH 960 0
DWIDTH 24 0
BBX 24 24 0 -2
BITMAP
0C1800
0E1C00
0C1800
0C1800
183002
183FFF
306667
306666
70C666
590C66
980C66
980C66
1818C6
1818C6
1830C6
183186
186186
188306
180606
180C0C
18180C
18301C
18C1F8
180070
ENDCHAR

STARTCHAR cns3_226D
ENCODING 8813
SWIDTH 960 0
DWIDTH 24 0
BBX 24 24 0 -2
BITMAP
038008
033FFC
03001C
060030
060CC0
0C0300
0C0180
1C00C0
1C0082
3C7FFF
2C0187
6C0186
4C018C
8C0198
0C0180
0C0180
0C0180
0C0180
0C0180
0C0180
0C0180
0C0180
0C1F80
0C0300
ENDCHAR

STARTCHAR cns3_226E
ENCODING 8814
SWIDTH 960 0
DWIDTH 24 0
BBX 24 24 0 -2
BITMAP
070000
06000C
06FFFE
0C0300
0C0300
0C0300
180300
180300
180300
380300
2C030C
6CFFFE
4C0300
8C0300
0C0300
0C0300
0C0300
0C0300
0C0300
0C0300
0C0300
0C0306
0DFFFF
0C0000
ENDCHAR

STARTCHAR cns3_226F
ENCODING 8815
SWIDTH 960 0
DWIDTH 24 0
BBX 24 24 0 -2
BITMAP
070000
06200C
063FFE
063000
0C3000
0C3000
0C3000
183004
183FFE
3C340E
2C340C
6C320C
4C3218
8C3318
0C3130
0C31B0
0C60E0
0C60C0
0C40E0
0CC1B0
0C8318
0C860E
0C0C07
0C7002
ENDCHAR

STARTCHAR cns3_2270
ENCODING 8816
SWIDTH 960 0
DWIDTH 24 0
BBX 24 24 0 -2
BITMAP
0E0E00
0C0C00
0C0C00
0C0C00
180C06
1BFFFF
180C00
180C00
300C00
300C08
701FFC
58181C
981C18
983418
183630
183230
186360
1861C0
18C1C0
188360
190630
180C1C
18180F
186006
ENDCHAR

STARTCHAR cns3_2271
ENCODING 8817
SWIDTH 960 0
DWIDTH 24 0
BBX 24 24 0 -2
BITMAP
0C3800
0E3000
0C3006
0C7FFF
186000
184000
30C018
30FFFC
710000
580000
980010
98FFF8
180038
180030
180030
180030
180031
180031
180019
180019
18000D
18000F
180007
180002
ENDCHAR

STARTCHAR cns3_2272
ENCODING 8818
SWIDTH 960 0
DWIDTH 24 0
BBX 24 24 0 -2
BITMAP
070E00
060C00
060C00
0C1800
0C1800
181802
183FFF
183007
306006
306006
784006
5880C6
981FE6
180006
180006
180006
180006
180066
183FF6
180006
180006
18000C
1800FC
180038
ENDCHAR

STARTCHAR cns3_2273
ENCODING 8819
SWIDTH 960 0
DWIDTH 24 0
BBX 24 24 0 -2
BITMAP
0E1C00
0C1800
0C1800
0C1860
181FF0
19F860
181860
301860
303062
303062
706063
58C07F
D9003E
980300
180300
180306
1BFFFF
180300
180300
180300
180300
180300
180300
180300
ENDCHAR

STARTCHAR cns3_2274
ENCODING 8820
SWIDTH 960 0
DWIDTH 24 0
BBX 24 24 0 -2
BITMAP
060000
072020
063FF0
0C3070
0C3060
183060
186060
306060
30407F
78C03E
588000
990000
183FF8
181030
181030
180860
180CC0
180780
180300
180700
180DC0
1818F0
18603F
19800E
ENDCHAR

STARTCHAR cns3_2275
ENCODING 8821
SWIDTH 960 0
DWIDTH 24 0
BBX 24 24 0 -2
BITMAP
001C00
003800
003400
006600
00C300
018180
0300C0
060070
0C003C
18031F
63FF8C
800000
000000
000030
1FFFF8
003800
003000
006040
00C020
018018
0300FC
3FFF8E
0FC006
000004
ENDCHAR

STARTCHAR cns3_2276
ENCODING 8822
SWIDTH 960 0
DWIDTH 24 0
BBX 24 24 0 -2
BITMAP
003800
003000
003000
003800
007800
006800
00C600
018300
0301C0
0600F0
0C007C
30001F
C00008
0C0060
0FFFF0
0C0000
0C0000
0C0040
0FFFE0
0C0000
0C0000
0C0018
0FFFFC
0C0000
ENDCHAR

STARTCHAR cns3_2277
ENCODING 8823
SWIDTH 960 0
DWIDTH 24 0
BBX 24 24 0 -2
BITMAP
001C00
001800
001800
001800
003800
003400
007600
006300
01C1C0
0700F0
1C003F
F0000E
070070
060060
060060
060060
0E00E0
0E00E0
190190
198198
30C30C
607607
403403
801801
ENDCHAR

STARTCHAR cns3_2278
ENCODING 8824
SWIDTH 960 0
DWIDTH 24 0
BBX 24 24 0 -2
BITMAP
000300
038180
030180
0600C0
063860
0C3030
18301C
30600F
C06006
00C080
018040
030060
060030
1FFFF8
0EC618
00C610
00C600
018600
018602
030602
060602
0C0603
1807FF
E003FE
ENDCHAR

STARTCHAR cns3_2279
ENCODING 8825
SWIDTH 960 0
DWIDTH 24 0
BBX 24 24 0 -2
BITMAP
007000
003000
001800
001800
000C00
001C00
003600
006300
00C180
0180E0
070078
1C003F
F0000C
040020
07FFF0
060070
060060
060060
07FFE0
060060
060060
060060
07FFE0
060060
ENDCHAR

STARTCHAR cns3_227A
ENCODING 8826
SWIDTH 960 0
DWIDTH 24 0
BBX 24 24 0 -2
BITMAP
000018
3FFFFC
001800
001800
001860
1FFFF0
001800
001800
001800
001806
FFFFFF
000000
000E00
018300
01C300
018180
038180
0301C0
0600C0
0600E0
0C0070
180038
60001F
800006
ENDCHAR

STARTCHAR cns3_227B
ENCODING 8827
SWIDTH 960 0
DWIDTH 24 0
BBX 24 24 0 -2
BITMAP
00000C
7FFFFE
001800
001800
081810
0FFFF8
0C1838
0C1830
0C1830
0C1836
FFFFFF
0C1830
0C1830
0C1830
0C1836
FFFFFF
0C0030
0C0030
0C0030
0C0030
0C0030
0C0030
0C03F0
0C00E0
ENDCHAR

STARTCHAR cns3_227C
ENCODING 8828
SWIDTH 960 0
DWIDTH 24 0
BBX 24 24 0 -2
BITMAP
000006
000FFF
300618
180618
0C8618
088618
008618
010C18
010C18
030C18
020FFF
060038
060078
0C0078
0C00D8
1C00D8
780198
380118
180318
180618
0C1C18
0C0018
0C01F8
0C0070
ENDCHAR

STARTCHAR cns3_227D
ENCODING 8829
SWIDTH 960 0
DWIDTH 24 0
BBX 24 24 0 -2
BITMAP
000380
000300
600300
300300
190308
113FFC
01031C
020318
020318
060318
040318
0C031A
0CFFFF
180300
180300
380600
F006C0
700C60
300C30
301830
181818
18301C
18600E
18800E
ENDCHAR

STARTCHAR cns3_227E
ENCODING 8830
SWIDTH 960 0
DWIDTH 24 0
BBX 24 24 0 -2
BITMAP
0001C0
000180
600180
300180
184182
107FFF
006187
026186
026186
066186
046186
0C6186
0C6186
186186
187FFE
386186
F06180
700180
300180
300180
180180
180180
180180
180180
ENDCHAR

STARTCHAR cns3_2321
ENCODING 8993
SWIDTH 960 0
DWIDTH 24 0
BBX 24 24 0 -2
BITMAP
000000
00001C
3000FE
1803E0
0CBD80
088180
008180
010180
010180
030186
027FFF
060180
060180
0C0380
0C0380
1C0640
780640
380C60
180820
181830
0C3018
0C601C
0CC00F
0D0002
ENDCHAR

STARTCHAR cns3_2322
ENCODING 8994
SWIDTH 960 0
DWIDTH 24 0
BBX 24 24 0 -2
BITMAP
200010
3FFFF8
300038
300030
300230
31FF30
300030
300030
300030
300130
33FFB0
303030
303030
306030
306018
30C018
30C219
618119
618199
63038D
433CCD
CFE0CD
87004F
800006
ENDCHAR

STARTCHAR cns3_2323
ENCODING 8995
SWIDTH 960 0
DWIDTH 24 0
BBX 24 24 0 -2
BITMAP
003800
00180C
7FFFFE
000000
000180
7001C7
600186
600186
610306
60C306
606606
603606
601C06
601E06
603B06
603186
6060C6
60C0E6
618066
660006
680006
7FFFFE
600006
600000
ENDCHAR

STARTCHAR cns3_2324
ENCODING 8996
SWIDTH 960 0
DWIDTH 24 0
BBX 24 24 0 -2
BITMAP
038007
030006
030076
030066
030866
1FFC66
031C66
031866
031866
031866
031866
031A66
3FFF66
030066
064066
064066
062066
0C3066
0C1866
181C06
180E06
300706
60077E
80030C
ENDCHAR

STARTCHAR cns3_2325
ENCODING 8997
SWIDTH 960 0
DWIDTH 24 0
BBX 24 24 0 -2
BITMAP
1C0007
180006
180676
3FFF66
300066
200066
601866
5FFC66
800066
000066
000866
3FFC66
003866
007066
00E066
01C066
030066
0E0066
1C0066
300406
700406
600606
7FFE7E
3FFC0C
ENDCHAR

STARTCHAR cns3_2326
ENCODING 8998
SWIDTH 960 0
DWIDTH 24 0
BBX 24 24 0 -2
BITMAP
000008
0FFFFC
00181C
001818
001818
003018
003018
006018
00C038
0383F0
0E0060
000000
000000
002002
7FF7FF
0630C7
0630C6
0630C6
0630C6
0C30C6
0C3186
18718E
33E33C
C0CC18
ENDCHAR

STARTCHAR cns3_2327
ENCODING 8999
SWIDTH 960 0
DWIDTH 24 0
BBX 24 24 0 -2
BITMAP
060007
070006
070076
030066
030C66
FFFE66
103066
103066
103066
103066
103066
086066
086066
0C6066
044066
04C066
068066
038066
030066
078006
0CC006
187006
603E7E
800C0C
ENDCHAR

STARTCHAR cns3_2328
ENCODING 9000
SWIDTH 960 0
DWIDTH 24 0
BBX 24 24 0 -2
BITMAP
0000E0
0000C0
0000C0
0060C0
3FF0C0
0000C0
0000C2
0003FF
0020C7
0070C6
FFF8C6
0600C6
0700C6
0600C6
0600C6
0C00C6
0C4186
186186
183186
307106
FF990E
7E1A0C
30127C
000018
ENDCHAR

STARTCHAR cns3_2329
ENCODING 9001
SWIDTH 960 0
DWIDTH 24 0
BBX 24 24 0 -2
BITMAP
001C00
001800
001800
00180C
7FFFFE
001800
001800
0398E0
0318C0
0318C0
0318C0
0300C0
0300C6
FFE7FF
0300C0
0300C0
0600C0
0600C0
0600C0
0C00C0
0C00C0
1800C0
3000C0
C000C0
ENDCHAR

STARTCHAR cns3_232A
ENCODING 9002
SWIDTH 960 0
DWIDTH 24 0
BBX 24 24 0 -2
BITMAP
001C00
001800
001800
00180C
7FFFFE
001800
001800
001800
0E1838
0C1830
0C1830
0C0030
0C0036
FFFFFF
0C0030
0C0030
0C0030
0C0030
0C0030
0C0030
0C0030
0FFFF0
0C0030
0C0030
ENDCHAR

STARTCHAR cns3_232B
ENCODING 9003
SWIDTH 960 0
DWIDTH 24 0
BBX 24 24 0 -2
BITMAP
0E0380
0C0300
0C0300
0C0300
0C0300
0D0308
FF9FFC
0C031C
0C0318
0C0318
0C0318
0C0318
0C1318
0C361C
0C661E
0C661B
0C0C1B
0C0C18
0C0C18
0C1818
0C1830
0C3070
0C43E0
0C00C0
ENDCHAR

STARTCHAR cns3_232C
ENCODING 9004
SWIDTH 960 0
DWIDTH 24 0
BBX 24 24 0 -2
BITMAP
000018
3FFFFC
001C00
003800
007C00
00DB00
0198C0
071870
1C1838
701818
001800
001800
000000
001C00
001800
001806
FFFFFF
001800
001800
001800
001800
001800
001800
001800
ENDCHAR

STARTCHAR cns3_232D
ENCODING 9005
SWIDTH 960 0
DWIDTH 24 0
BBX 24 24 0 -2
BITMAP
000000
601FFE
601FFE
601800
601800
601800
601800
601800
601800
601800
601800
7FFFFE
7FFFFE
001806
001806
001806
001806
001806
001806
001806
001806
7FF806
7FF806
000000
ENDCHAR

STARTCHAR cns3_232E
ENCODING 9006
SWIDTH 960 0
DWIDTH 24 0
BBX 24 24 0 -2
BITMAP
200006
3FFFFF
300000
300018
33FFFC
300C00
300C00
301800
301800
3030C0
3030E0
3060C0
30E180
307180
301B00
300F00
300640
200C20
601830
401030
4020D8
81FF18
80F018
000000
ENDCHAR

STARTCHAR cns3_232F
ENCODING 9007
SWIDTH 960 0
DWIDTH 24 0
BBX 24 24 0 -2
BITMAP
000000
200006
3FFFFF
300000
300E00
300C00
300C00
300C00
300C00
300C00
300C0C
37FFFE
300C00
300C00
300CC0
300C60
600C30
600C38
600C10
400C00
400C04
800C0E
9FFFFF
000000
ENDCHAR

STARTCHAR cns3_2330
ENCODING 9008
SWIDTH 960 0
DWIDTH 24 0
BBX 24 24 0 -2
BITMAP
200006
3FFFFF
300000
300000
300700
300E00
300D00
301980
3030C0
306060
30C030
31801C
3300CF
347FE6
300000
300000
300010
30FFF8
600038
600030
400060
4000C0
800180
800300
ENDCHAR

STARTCHAR cns3_2331
ENCODING 9009
SWIDTH 960 0
DWIDTH 24 0
BBX 24 24 0 -2
BITMAP
000040
3FFFE0
0000E0
0000C0
01C0C0
0180C0
0180C0
0188C0
3FFCC0
0180C0
0180C0
0180C0
018CC0
7FFEC0
0180C0
0180C2
0318C2
030CC2
060CC2
0C7EC2
7FC6C3
3802C3
0002FF
00007E
ENDCHAR

STARTCHAR cns3_2332
ENCODING 9010
SWIDTH 960 0
DWIDTH 24 0
BBX 24 24 0 -2
BITMAP
001C00
001800
001800
101808
1FFFFC
18181C
181818
181818
181818
1FFFF8
181810
001800
001800
001800
00180C
3FFFFE
1C001C
070070
01C1C0
007700
003E00
00E3C0
0F80FF
F8003C
ENDCHAR

STARTCHAR cns3_2333
ENCODING 9011
SWIDTH 960 0
DWIDTH 24 0
BBX 24 24 0 -2
BITMAP
000030
3FFFF8
0000E0
0300C0
00C180
007300
001E00
001C00
007700
00C3C0
0180F0
06007C
18001F
004004
3FE3FE
00E00E
10C10C
0D80D8
070070
030030
078078
0CC0CC
186186
702703
ENDCHAR

STARTCHAR cns3_2334
ENCODING 9012
SWIDTH 960 0
DWIDTH 24 0
BBX 24 24 0 -2
BITMAP
000004
001006
000806
000C0C
40860C
7FC618
61C318
6183B0
6181E0
6180C0
6180C0
6180C0
6180C0
6180C0
6180C0
6180C0
6180C0
6180C0
7F80C0
6180C0
6000C0
0000C0
0000C0
0000C0
ENDCHAR

STARTCHAR cns3_2335
ENCODING 9013
SWIDTH 960 0
DWIDTH 24 0
BBX 24 24 0 -2
BITMAP
000000
000000
00000C
827FFE
FF0180
C70180
C60180
C60180
C60180
C60180
C60180
C60180
C60180
C60180
C60180
C60180
C60180
C60180
FE0180
C60180
C00180
000186
00FFFF
000000
ENDCHAR

STARTCHAR cns3_2336
ENCODING 9014
SWIDTH 960 0
DWIDTH 24 0
BBX 24 24 0 -2
BITMAP
002002
003FFF
C13007
FF3006
C33006
C33006
C33006
C33006
C33FFE
C33006
C33000
C33000
C33000
C33000
C33000
FF3000
C36000
C06000
006000
00C000
00C000
018000
010000
020000
ENDCHAR

STARTCHAR cns3_2337
ENCODING 9015
SWIDTH 960 0
DWIDTH 24 0
BBX 24 24 0 -2
BITMAP
00001C
0001FE
003F80
C10180
FF8180
C38180
C30180
C30180
C30180
C30186
C37FFF
C30180
C30180
C30180
C30180
C30180
C30180
C30180
FF0180
C30180
C00180
000180
000180
000180
ENDCHAR

STARTCHAR cns3_2338
ENCODING 9016
SWIDTH 960 0
DWIDTH 24 0
BBX 24 24 0 -2
BITMAP
100010
1FFFF8
180038
180030
180030
180030
180030
1FFFF0
180030
003800
003000
003000
00300C
7FFFFE
007000
006800
006800
00C400
00C600
018300
0301C0
0600E0
1C0078
70003E
ENDCHAR

STARTCHAR cns3_2339
ENCODING 9017
SWIDTH 960 0
DWIDTH 24 0
BBX 24 24 0 -2
BITMAP
000000
000000
408404
7FC7FE
61C60E
61860C
61860C
61860C
61860C
61860C
61860C
61860C
61860C
61860C
61860C
61860C
61860C
61860C
61860C
7F87FC
61860C
600600
000000
000000
ENDCHAR

STARTCHAR cns3_233A
ENCODING 9018
SWIDTH 960 0
DWIDTH 24 0
BBX 24 24 0 -2
BITMAP
000000
000006
01FFFF
000300
000300
C20300
FE0300
C60300
C60380
C603E0
C60370
C60338
C6031C
C60318
C60300
C60300
C60300
C60300
FE0300
C60300
C00300
000300
000300
000300
ENDCHAR

STARTCHAR cns3_233B
ENCODING 9019
SWIDTH 960 0
DWIDTH 24 0
BBX 24 24 0 -2
BITMAP
080020
0FFFF0
0C0070
0C0060
0C0060
0C0060
0C0060
0C0060
0FFFE0
0C0060
000000
000000
000000
200008
3FFFFC
30001C
300018
300018
300018
300018
300018
3FFFF8
300018
300018
ENDCHAR

STARTCHAR cns3_233C
ENCODING 9020
SWIDTH 960 0
DWIDTH 24 0
BBX 24 24 0 -2
BITMAP
000600
000700
410600
7F8600
638C00
630C00
631980
6331C0
634180
630180
630300
630300
630300
630600
630600
630C08
630C04
631806
631006
7F201B
633FE3
603E03
001800
000000
ENDCHAR

STARTCHAR cns3_233D
ENCODING 9021
SWIDTH 960 0
DWIDTH 24 0
BBX 24 24 0 -2
BITMAP
400002
7FFFFF
600007
600006
60C306
60C306
60C306
60C306
60C306
60C326
6FFFF6
60C306
60C306
60C306
60C306
618306
618306
630306
660306
680306
600006
7FFFFE
600006
600000
ENDCHAR

STARTCHAR cns3_233E
ENCODING 9022
SWIDTH 960 0
DWIDTH 24 0
BBX 24 24 0 -2
BITMAP
000000
200004
3FFFFE
30000E
30070C
30060C
30060C
30064C
37FFEC
30060C
31060C
31860C
30C60C
30C60C
30C60C
30060C
30060C
30060C
307E0C
301C0C
30000C
3FFFFC
30000C
300000
ENDCHAR

STARTCHAR cns3_233F
ENCODING 9023
SWIDTH 960 0
DWIDTH 24 0
BBX 24 24 0 -2
BITMAP
000380
000300
1C0300
180300
180300
180300
180300
180300
1A030C
FF03FE
180300
180300
180300
180300
180300
180300
180300
180300
1F0300
F80300
700306
01FFFF
000000
000000
ENDCHAR

STARTCHAR cns3_2340
ENCODING 9024
SWIDTH 960 0
DWIDTH 24 0
BBX 24 24 0 -2
BITMAP
001C00
001800
001806
FFFFFF
001800
003400
003400
006200
006300
00C100
018180
0300E0
060078
18003F
E0000C
001C00
001800
001818
3FFFFC
001800
001800
001800
001806
FFFFFF
ENDCHAR

STARTCHAR cns3_2341
ENCODING 9025
SWIDTH 960 0
DWIDTH 24 0
BBX 24 24 0 -2
BITMAP
0100E0
0F80C0
FC00C0
0C00C0
0C00C0
0C00C0
0C00C0
0C00C0
0C00CC
0CDFFE
FFE0C0
0C00C0
0C00C0
0C00C0
0C00C0
0C00C0
0C00C0
1800C0
1800C0
1800C0
3000C0
3000C6
603FFF
800000
ENDCHAR

STARTCHAR cns3_2342
ENCODING 9026
SWIDTH 960 0
DWIDTH 24 0
BBX 24 24 0 -2
BITMAP
18000C
1C007C
1C03E0
181F80
187180
180180
1B0180
FF0180
180180
180180
180186
187FFE
180180
180180
180180
1F0180
3E0180
F80180
E00180
800180
000180
000180
000180
000000
ENDCHAR

STARTCHAR cns3_2343
ENCODING 9027
SWIDTH 960 0
DWIDTH 24 0
BBX 24 24 0 -2
BITMAP
01C0E0
0180C0
0180C0
0180C0
8180C0
6180C0
3180C0
1D80C0
0F80C6
07BFFF
0180C0
0180C0
0180C0
0380C0
0780C0
0D80C0
1980C0
7180C0
E180C0
C180C0
0180C0
0180CC
019FFE
018000
ENDCHAR

STARTCHAR cns3_2344
ENCODING 9028
SWIDTH 960 0
DWIDTH 24 0
BBX 24 24 0 -2
BITMAP
030000
038000
0300C0
07FFE0
0600C0
0D8180
10E700
203C00
007E00
01E3C0
0380F8
0E1C3F
38180E
C01830
0FFFF8
0C1800
0C1800
0C1800
0C1818
1FFFFC
001800
001800
001800
001800
ENDCHAR

STARTCHAR cns3_2345
ENCODING 9029
SWIDTH 960 0
DWIDTH 24 0
BBX 24 24 0 -2
BITMAP
0000F0
001FF8
0FF800
001800
001800
001806
FFFFFF
003800
003400
006200
006180
00C0C0
038070
1E003F
F0C38C
00C300
00C300
00C300
00C300
00C300
018300
018300
030300
0C0300
ENDCHAR

STARTCHAR cns3_2346
ENCODING 9030
SWIDTH 960 0
DWIDTH 24 0
BBX 24 24 0 -2
BITMAP
001C00
001800
001806
FFFFFF
003400
006200
00C300
018180
0300E0
060038
18001F
E180E6
0180C0
0180C0
0180C6
FFFFFF
0180C0
0300C0
0300C0
0600C0
0600C0
0C00C0
3000C0
C000C0
ENDCHAR

STARTCHAR cns3_2347
ENCODING 9031
SWIDTH 960 0
DWIDTH 24 0
BBX 24 24 0 -2
BITMAP
070070
060060
060060
060060
060060
066066
FFF7FF
060060
060060
060060
060060
0D00D0
0D00D0
0D00D0
0D00D0
188188
188188
188188
30C18C
30430C
606306
606206
403203
803403
ENDCHAR

STARTCHAR cns3_2348
ENCODING 9032
SWIDTH 960 0
DWIDTH 24 0
BBX 24 24 0 -2
BITMAP
001C00
001800
001806
7FFFFF
001800
003400
006300
00C180
0380E0
0E007F
78001C
001C00
001800
001800
001806
7FFFFF
001800
003400
003200
006300
00C180
0380E0
0E007F
F8001C
ENDCHAR

STARTCHAR cns3_2349
ENCODING 9033
SWIDTH 960 0
DWIDTH 24 0
BBX 24 24 0 -2
BITMAP
1C0000
180010
187FF8
180C38
300C30
330C30
FF8C30
330C30
330C30
630C30
630D30
667FB0
660C30
C60C30
C40C30
FC0C30
CC0C30
0E0C30
1B0C32
330C32
210C32
400C33
800C3F
000C1E
ENDCHAR

STARTCHAR cns3_234A
ENCODING 9034
SWIDTH 960 0
DWIDTH 24 0
BBX 24 24 0 -2
BITMAP
0E0380
0C0320
0C0330
180318
180310
198300
FFC306
31833F
319FC0
318300
318300
718300
618180
618180
E30180
DB00C0
0E00C0
0600C2
0F0062
0D8062
19C032
30803B
60001F
800006
ENDCHAR

STARTCHAR cns3_234B
ENCODING 9035
SWIDTH 960 0
DWIDTH 24 0
BBX 24 24 0 -2
BITMAP
1C0700
180600
180600
180610
300FF8
310C38
FF8C30
331830
331830
631060
633060
662060
6600D0
C600D0
C40190
FC0190
CC0318
0E0308
1B0608
330C0C
21180C
403006
80C007
070002
ENDCHAR

STARTCHAR cns3_234C
ENCODING 9036
SWIDTH 960 0
DWIDTH 24 0
BBX 24 24 0 -2
BITMAP
00E000
00C000
00C0C4
7FFFFE
0300C0
060180
0FF300
0C0FC0
003C70
01E01C
3F000E
007000
006000
006000
00C0C4
7FFFFE
0180C0
0300C0
060180
0FF300
0C0FC0
003C70
01E01C
7F000E
ENDCHAR

STARTCHAR cns3_234D
ENCODING 9037
SWIDTH 960 0
DWIDTH 24 0
BBX 24 24 0 -2
BITMAP
01C1C0
018180
018180
818180
618300
31830C
19BFFF
1D830C
0F860C
07860C
01860C
018618
018C18
038C18
079F30
0D99F0
198060
718070
E180CC
C18186
018307
018C03
01B000
018000
ENDCHAR

STARTCHAR cns3_234E
ENCODING 9038
SWIDTH 960 0
DWIDTH 24 0
BBX 24 24 0 -2
BITMAP
07070E
06060C
2C2C18
181830
0C0C18
06060C
06060C
000020
0FFFF0
000070
0000E0
000380
001C00
001800
001806
FFFFFF
001800
001800
001800
001800
001800
001800
03F800
007000
ENDCHAR

STARTCHAR cns3_234F
ENCODING 9039
SWIDTH 960 0
DWIDTH 24 0
BBX 24 24 0 -2
BITMAP
003800
20180C
3FFFFE
600006
C1C00C
C18008
018000
030100
03FF80
030380
060300
060300
0C0600
0C0600
180C00
200E00
001A00
001900
003180
0060C0
00C060
038038
0E001F
78000C
ENDCHAR

STARTCHAR cns3_2350
ENCODING 9040
SWIDTH 960 0
DWIDTH 24 0
BBX 24 24 0 -2
BITMAP
003000
003800
401802
7FFFFF
400006
C0000C
C00010
0FFFF8
000038
000030
000030
000030
1FFFF0
180020
180000
300004
3FFFFE
30000E
00000C
00000C
00001C
000038
001FF0
0001E0
ENDCHAR

STARTCHAR cns3_2351
ENCODING 9041
SWIDTH 960 0
DWIDTH 24 0
BBX 24 24 0 -2
BITMAP
001C00
001810
101818
081838
0C1830
061860
0618C0
031880
031900
001808
1FFFFC
00001C
000018
000018
000018
0FFFF8
000018
000018
000018
000018
000018
1FFFF8
000018
000000
ENDCHAR

STARTCHAR cns3_2352
ENCODING 9042
SWIDTH 960 0
DWIDTH 24 0
BBX 24 24 0 -2
BITMAP
001C00
001800
001800
001800
019900
0398C0
071860
0C1830
181818
60181C
00180C
001800
01F800
007000
000000
001C00
001800
001818
3FFFFC
001800
001800
001800
001806
FFFFFF
ENDCHAR

STARTCHAR cns3_2353
ENCODING 9043
SWIDTH 960 0
DWIDTH 24 0
BBX 24 24 0 -2
BITMAP
100004
1FFFFE
18000E
18000C
18000C
1FFFFC
180000
180000
180010
18FFF8
180038
180070
1800C0
300300
300300
30030C
33FFFE
300300
600300
600300
400300
400300
807F00
800E00
ENDCHAR

STARTCHAR cns3_2354
ENCODING 9044
SWIDTH 960 0
DWIDTH 24 0
BBX 24 24 0 -2
BITMAP
040020
07FFF0
060070
060060
060060
060060
060060
07FFE0
060260
060200
060100
0E0180
0C60C0
0C3060
181C70
180E3C
30061F
20000C
418000
80E000
007800
003C00
001E00
000C00
ENDCHAR

STARTCHAR cns3_2355
ENCODING 9045
SWIDTH 960 0
DWIDTH 24 0
BBX 24 24 0 -2
BITMAP
060000
070000
060004
06000E
061FFF
0600C0
6660C0
6660C0
6660C0
6660C0
6660C0
6660C0
6660C0
6660C0
6660C0
6660C0
6660C0
7FE0C0
6060C0
6000C0
0000C0
0000C6
001FFF
000000
ENDCHAR

STARTCHAR cns3_2356
ENCODING 9046
SWIDTH 960 0
DWIDTH 24 0
BBX 24 24 0 -2
BITMAP
1C0008
187FFC
18000E
18000C
180018
DB0030
DB0060
DB01C0
DB0180
DB0180
DB0180
DB0186
DB7FFF
DB0180
DB0180
DB0180
DB0180
DB0180
FF0180
C30180
C30180
000180
001F80
000700
ENDCHAR

STARTCHAR cns3_2357
ENCODING 9047
SWIDTH 960 0
DWIDTH 24 0
BBX 24 24 0 -2
BITMAP
001C00
001800
001800
001804
00180E
FFFFFF
003000
003400
006400
006200
00C300
018180
0300E0
060078
1C1C3F
F0181C
001800
1C181C
181818
181818
181818
181818
1FFFF8
180018
ENDCHAR

STARTCHAR cns3_2358
ENCODING 9048
SWIDTH 960 0
DWIDTH 24 0
BBX 24 24 0 -2
BITMAP
000020
3FFFF0
000070
000060
000060
200060
3FFFE0
300060
300004
300004
300004
300006
3FFFFE
1FFFFC
000000
001C00
001800
38180E
30180C
30180C
30180C
30180C
3FFFFC
30000C
ENDCHAR

STARTCHAR cns3_2359
ENCODING 9049
SWIDTH 960 0
DWIDTH 24 0
BBX 24 24 0 -2
BITMAP
0E0000
0C0804
0C0FFE
0C0C0E
0C0C0C
CCEC0C
CCCC0C
CCCC0C
CCCC0C
CCCC0C
CCCC0C
CCCFFC
CCCC0C
CCCC00
CCCC00
CCCC00
CCCC00
CCCC00
CCCC02
FFCC02
C0CC02
C00C03
000FFF
0007FE
ENDCHAR

STARTCHAR cns3_235A
ENCODING 9050
SWIDTH 960 0
DWIDTH 24 0
BBX 24 24 0 -2
BITMAP
001800
001800
1C181C
181818
181818
181818
181818
181818
1FFFF8
180018
180018
001C00
001800
001800
38180E
30180C
30180C
30180C
30180C
30180C
30180C
3FFFFC
30000C
300000
ENDCHAR

STARTCHAR cns3_235B
ENCODING 9051
SWIDTH 960 0
DWIDTH 24 0
BBX 24 24 0 -2
BITMAP
1C0700
180600
180600
180D80
1818C0
183070
18C03C
1B0018
180000
1FFFFE
0FFFF8
000000
071C70
061860
061860
061860
061860
061860
061862
0C1862
0C1863
181863
30187F
C0003E
ENDCHAR

STARTCHAR cns3_235C
ENCODING 9052
SWIDTH 960 0
DWIDTH 24 0
BBX 24 24 0 -2
BITMAP
038000
030006
033FFF
0300C0
0300C0
0300C0
4310C2
231FFF
3318C7
1B18C6
1B18C6
0F18C6
0F18C6
0318C6
0318C6
0318C6
0318C6
0318C6
0618C6
0618C6
0C18DE
0C18CC
1800C0
6000C0
ENDCHAR

STARTCHAR cns3_235D
ENCODING 9053
SWIDTH 960 0
DWIDTH 24 0
BBX 24 24 0 -2
BITMAP
0E01C0
0C0180
0C0310
0C0FF8
0C0C38
CC4C30
FFCC30
CCCC30
CCCC30
CCCC30
CCCC30
CCCC30
CCCC30
CCCC30
CCCC30
CFCC30
CD8C30
0C0C30
0C0C32
0C1832
0C1832
0C3033
0C203F
0C401E
ENDCHAR

STARTCHAR cns3_235E
ENCODING 9054
SWIDTH 960 0
DWIDTH 24 0
BBX 24 24 0 -2
BITMAP
001800
001C00
100C06
1FFFFF
180000
183000
183000
183000
186080
187FC0
18C1C0
18C180
188180
190300
1A0380
1C0680
1806C0
180C40
301860
303020
206030
60C018
43001F
8C0006
ENDCHAR

STARTCHAR cns3_235F
ENCODING 9055
SWIDTH 960 0
DWIDTH 24 0
BBX 24 24 0 -2
BITMAP
001800
001C00
100C06
1FFFFF
180000
180030
187FF8
180300
180300
180300
180300
18030C
19FFFE
180300
180300
180300
180300
180300
300300
300300
200300
600300
403F00
800E00
ENDCHAR

STARTCHAR cns3_2360
ENCODING 9056
SWIDTH 960 0
DWIDTH 24 0
BBX 24 24 0 -2
BITMAP
003000
003800
201806
3FFFFF
300000
3000E0
300FF8
33FC00
301800
301800
301800
301818
33FFFC
301800
301800
301804
201804
201804
601804
401806
401FFE
800FFC
800000
000000
ENDCHAR

STARTCHAR cns3_2361
ENCODING 9057
SWIDTH 960 0
DWIDTH 24 0
BBX 24 24 0 -2
BITMAP
000000
001084
0418C6
FE18C6
06318C
06318C
0C2118
0C6310
186230
104420
24CC60
7E6630
0E6310
0C3118
0C318C
0C18CC
4C18C6
2C18C6
380842
1C0000
360000
338000
61FFFF
C07FFE
ENDCHAR

STARTCHAR cns3_2362
ENCODING 9058
SWIDTH 960 0
DWIDTH 24 0
BBX 24 24 0 -2
BITMAP
001C00
0018C0
001830
001818
001818
001800
001806
001FFF
FFF800
001800
001800
011800
7F8C00
000C00
000C00
010600
7F8602
000302
000382
0081C2
FFC0E2
00007B
00001F
000006
ENDCHAR

STARTCHAR cns3_2363
ENCODING 9059
SWIDTH 960 0
DWIDTH 24 0
BBX 24 24 0 -2
BITMAP
004380
FFE300
00E300
00C600
00C602
40C7FF
7FCC07
60C806
601006
600006
C00406
C04306
FFE186
C0E186
00C0C6
00C086
00C006
00C006
00C006
00C00E
01C00C
01C01C
3F83F8
070070
ENDCHAR

STARTCHAR cns3_2364
ENCODING 9060
SWIDTH 960 0
DWIDTH 24 0
BBX 24 24 0 -2
BITMAP
008000
FFC018
01CFFC
018000
018000
418000
7F8006
61BFFF
600300
600300
C00600
C08604
FF8FFE
C18C0E
01800C
01800C
01800C
01800C
01800C
01800C
018018
038038
3F03F0
060060
ENDCHAR

STARTCHAR cns3_2365
ENCODING 9061
SWIDTH 960 0
DWIDTH 24 0
BBX 24 24 0 -2
BITMAP
000000
000038
380070
070060
01C0C0
007180
001F00
000E00
001B80
0070E0
00C038
03001C
0C000C
300000
000000
039808
230C0C
230606
630626
630023
E30023
C30030
03FFF0
01FFE0
ENDCHAR

STARTCHAR cns3_2366
ENCODING 9062
SWIDTH 960 0
DWIDTH 24 0
BBX 24 24 0 -2
BITMAP
0E0000
0C000C
0C1FFE
0C00C0
0C00C0
2E00C0
2D00C0
2D80C0
6CC0C0
6CC0C0
CC00C6
CC3FFF
0C00C0
0C00C0
0C00C0
0C00C0
0C00C0
0C00C0
0C00C0
0C00C0
0C00C0
0C00C0
0C00C0
0C00C0
ENDCHAR

STARTCHAR cns3_2367
ENCODING 9063
SWIDTH 960 0
DWIDTH 24 0
BBX 24 24 0 -2
BITMAP
1C00E0
1800C0
1800C0
181CC0
1818C0
1C18C2
5A18CF
5B19F7
5B1EC6
D978C6
9818C6
9818CC
1818CC
1818C8
1818D0
1818C0
1818C0
1818C2
1818C2
1818C2
181802
181803
181FFF
180FFE
ENDCHAR

STARTCHAR cns3_2368
ENCODING 9064
SWIDTH 960 0
DWIDTH 24 0
BBX 24 24 0 -2
BITMAP
1C0000
180000
180002
18FFFF
180607
1C0606
5A0606
5A0606
5B0606
D90606
987606
981E06
980706
180786
1806C6
180C46
180C06
181806
181806
18300C
18300C
18601C
18C1F8
190030
ENDCHAR

STARTCHAR cns3_2369
ENCODING 9065
SWIDTH 960 0
DWIDTH 24 0
BBX 24 24 0 -2
BITMAP
1C0000
182010
183FF8
183038
183030
1C3030
5A3030
5A3030
583030
583030
D83030
983030
9830B0
9837F0
183030
186030
186030
186030
18C032
18C032
198032
190033
1A003F
1C001E
ENDCHAR

STARTCHAR cns3_236A
ENCODING 9066
SWIDTH 960 0
DWIDTH 24 0
BBX 24 24 0 -2
BITMAP
007000
006380
0060E0
006006
FFFFFF
006000
00600C
7FFFFE
003000
003006
FFFFFF
003000
001830
001878
0018E0
000DC0
000F00
000E02
001F02
003B82
00E1C2
038073
1E003F
F0000E
ENDCHAR

STARTCHAR cns3_236B
ENCODING 9067
SWIDTH 960 0
DWIDTH 24 0
BBX 24 24 0 -2
BITMAP
0001C0
0001B0
00119C
3FF98C
003980
003186
20318F
2037F8
203180
103180
106180
10618C
18618C
08C0CC
08C0D8
0CC0D8
058070
078070
030061
0700F1
0D81B9
18C31D
30760F
C02803
ENDCHAR

STARTCHAR cns3_236C
ENCODING 9068
SWIDTH 960 0
DWIDTH 24 0
BBX 24 24 0 -2
BITMAP
1C0000
180018
181FFC
180000
180000
1A0000
FF0006
187FFF
180600
180600
180C00
190C04
1E1FFE
F8180E
D8000C
18000C
18000C
18000C
18000C
180018
180018
180030
F803E0
3000C0
ENDCHAR

STARTCHAR cns3_236D
ENCODING 9069
SWIDTH 960 0
DWIDTH 24 0
BBX 24 24 0 -2
BITMAP
0E0000
0C0008
0C3FFC
0C061C
0C0618
0C8618
FFC618
0C0618
0C0618
0C0618
0C0618
0CBFD8
1F0618
FC0618
EC0618
0C0619
0C0619
0C060D
0C060D
0C060D
0C0607
0C0607
FC0603
180602
ENDCHAR

STARTCHAR cns3_236E
ENCODING 9070
SWIDTH 960 0
DWIDTH 24 0
BBX 24 24 0 -2
BITMAP
0E0E00
0C0C00
0C0C00
0C0C00
0C0C20
0D7FF0
FF8C70
0C0C60
0C0C60
0C0C60
0C0C60
0C0C60
0F6C60
FC3C60
EC1C60
4C1E60
0C1B60
0C3061
0C3061
0C6061
0C6061
0CC063
7D807F
1A003E
ENDCHAR

STARTCHAR cns3_236F
ENCODING 9071
SWIDTH 960 0
DWIDTH 24 0
BBX 24 24 0 -2
BITMAP
0E01C0
0C0180
0C0180
0C0180
0C0180
0D0180
FF8180
0C0180
0C018C
0C3FFE
0C0180
0C0180
0F0180
FC0180
6C0180
0C0180
0C0180
0C0180
0C0180
0C0180
0C0180
0C0186
7CFFFF
180000
ENDCHAR

STARTCHAR cns3_2370
ENCODING 9072
SWIDTH 960 0
DWIDTH 24 0
BBX 24 24 0 -2
BITMAP
003000
003800
001806
FFFFFF
018180
00C300
006600
003C00
007600
01C3C0
0F00FF
F0003C
01C380
018300
018300
018300
018300
018300
018300
030300
030300
060300
0C0300
300300
ENDCHAR

STARTCHAR cns3_2371
ENCODING 9073
SWIDTH 960 0
DWIDTH 24 0
BBX 24 24 0 -2
BITMAP
0600E0
0700C0
0300C0
0300C0
0330C0
FFF8C0
0C00C0
0C00C0
0C00C0
0C10C0
0FF8C0
0C39A0
0C31A0
0C31A0
0C3190
183190
183198
183318
30330C
30330C
206606
606606
47CC07
819002
ENDCHAR

STARTCHAR cns3_2372
ENCODING 9074
SWIDTH 960 0
DWIDTH 24 0
BBX 24 24 0 -2
BITMAP
000002
817FFF
FF8307
C38306
C30306
C30306
C30306
C30306
C30306
C30306
FF0306
C30306
C30306
C30306
C30606
C30606
C30606
C30C06
FF0C06
C3180E
C0180C
00301C
0060F8
008030
ENDCHAR

STARTCHAR cns3_2373
ENCODING 9075
SWIDTH 960 0
DWIDTH 24 0
BBX 24 24 0 -2
BITMAP
000380
820300
FF0300
C70300
C60300
C60300
C60300
C60306
C6FFFF
C60300
FE0300
C60300
C60300
C60300
C60300
C60300
C60300
C60300
C60300
C60300
FE0300
C60300
C00300
000300
ENDCHAR

STARTCHAR cns3_2374
ENCODING 9076
SWIDTH 960 0
DWIDTH 24 0
BBX 24 24 0 -2
BITMAP
001C00
001800
001800
001800
101808
1FFFFC
18181C
181818
181818
1FFFF8
181818
181818
181818
1FFFF8
181818
001800
003400
003200
006300
00C180
0180E0
070078
1C003F
F0000C
ENDCHAR

STARTCHAR cns3_2375
ENCODING 9077
SWIDTH 960 0
DWIDTH 24 0
BBX 24 24 0 -2
BITMAP
1C0000
180002
183FFF
180307
180306
190306
FF8306
180306
180306
380306
3C0306
3C0306
7A0306
5B0306
D98606
990606
980606
180C06
180C0C
18180C
18180C
18301C
1863F8
188070
ENDCHAR

STARTCHAR cns3_2376
ENCODING 9078
SWIDTH 960 0
DWIDTH 24 0
BBX 24 24 0 -2
BITMAP
1C0000
180010
187FF8
180C38
1A0C30
FF0C30
180C30
180C60
380C62
380C7F
3C0C67
7A0C06
5B1806
591806
D81806
981806
983006
183006
183006
186006
18600C
18401C
18C1F8
188030
ENDCHAR

STARTCHAR cns3_2377
ENCODING 9079
SWIDTH 960 0
DWIDTH 24 0
BBX 24 24 0 -2
BITMAP
0E0380
0C0300
0C0300
0C0300
0C0300
0C8300
FFC300
0C0300
1C0300
1C0300
3E0300
3D8780
2CC680
6CC6C0
4C0640
CC0C60
8C0C60
0C0C30
0C1830
0C1818
0C301C
0C600E
0CC00F
0D0006
ENDCHAR

STARTCHAR cns3_2378
ENCODING 9080
SWIDTH 960 0
DWIDTH 24 0
BBX 24 24 0 -2
BITMAP
000040
0FFFE0
0180E0
0180C0
018184
0303FE
03030E
06000C
0C000C
18001C
6001F8
001C70
001800
001806
FFFFFF
001800
019980
0318C0
061860
1C1838
38181C
70180E
601806
001800
ENDCHAR

STARTCHAR cns3_2379
ENCODING 9081
SWIDTH 960 0
DWIDTH 24 0
BBX 24 24 0 -2
BITMAP
000380
000300
004300
7FE600
00E604
00C7FE
40CCC7
40C8C6
40D0CC
20D0C8
2180C0
2180C0
3181A0
1301A0
1301B0
1B0190
0A0318
0E0318
0C0308
0E060C
1A060C
330C06
61D807
80A002
ENDCHAR

STARTCHAR cns3_237A
ENCODING 9082
SWIDTH 960 0
DWIDTH 24 0
BBX 24 24 0 -2
BITMAP
070000
060000
06000C
0FFFFE
0C0000
180000
340010
67FFF8
860038
060C30
060C30
060C30
060C32
FFFFFF
060C30
0C1830
0C1830
0C3030
0C6030
0FFFFC
180060
0000E0
000FC0
000380
ENDCHAR

STARTCHAR cns3_237B
ENCODING 9083
SWIDTH 960 0
DWIDTH 24 0
BBX 24 24 0 -2
BITMAP
038000
0FC010
7C3FF8
0C0C38
0C0C30
0C0C30
0C0C60
0C8C64
FFCCFE
0C0CCE
0C0C0C
0C0C0C
0D980C
FFD80C
0C180C
0C300C
0C300C
0C601C
0C81F8
0C0072
0C0002
0E0003
07FFFF
03FFFE
ENDCHAR

STARTCHAR cns3_237C
ENCODING 9084
SWIDTH 960 0
DWIDTH 24 0
BBX 24 24 0 -2
BITMAP
30001C
1801FE
0C3F80
080180
000180
010180
C10180
620180
620180
060186
047FFF
0C0180
0C0180
180180
180180
380180
F00180
700180
300180
300180
180180
180180
180180
180180
ENDCHAR

STARTCHAR cns3_237D
ENCODING 9085
SWIDTH 960 0
DWIDTH 24 0
BBX 24 24 0 -2
BITMAP
180018
0C003C
0601F0
041F80
008180
008180
C08180
610180
610180
030186
027FFF
060180
060180
0C0180
0C0180
1C0180
780180
380182
180182
180182
0C0183
0C0183
0C01FF
0C00FE
ENDCHAR

STARTCHAR cns3_237E
ENCODING 9086
SWIDTH 960 0
DWIDTH 24 0
BBX 24 24 0 -2
BITMAP
000700
180600
0C0600
0C0600
080C00
000C00
011804
611FFE
33300E
32380C
066818
064C18
0C8430
0C0630
180260
380360
7001C0
3003C0
300360
380660
180C30
18183C
18301F
18C00C
ENDCHAR

STARTCHAR cns3_2421
ENCODING 9249
SWIDTH 960 0
DWIDTH 24 0
BBX 24 24 0 -2
BITMAP
001C00
001800
009C1C
7FDA78
00DBE0
019980
0318C0
061860
0C1838
30181F
C0F806
003000
000000
003800
003000
003000
007000
00EC00
00C600
018380
0300E0
060078
18003F
60000C
ENDCHAR

STARTCHAR cns3_2422
ENCODING 9250
SWIDTH 960 0
DWIDTH 24 0
BBX 24 24 0 -2
BITMAP
070380
060300
060300
0C0300
0C0300
0C0304
181306
19FB0E
183B9C
3033B0
383340
583340
583360
986360
186330
186330
18C318
18C31C
19830F
1A0306
180300
180300
183F00
180600
ENDCHAR

STARTCHAR cns3_2423
ENCODING 9251
SWIDTH 960 0
DWIDTH 24 0
BBX 24 24 0 -2
BITMAP
600000
300018
187FFC
100300
020300
020600
C40606
65FFFF
6C0C00
080C00
081804
181FFE
18180E
30000C
30000C
F0000C
60000C
60000C
60000C
30001C
300018
300038
3007F0
3000E0
ENDCHAR

STARTCHAR cns3_2424
ENCODING 9252
SWIDTH 960 0
DWIDTH 24 0
BBX 24 24 0 -2
BITMAP
180000
0C0008
063FFC
04001C
008018
C08018
608018
310018
310018
030018
023FF8
063018
063000
0C3000
0C3000
1C3000
783002
383002
183002
183002
0C3003
0C3FFF
0C1FFE
0C0000
ENDCHAR

STARTCHAR cns3_2425
ENCODING 9253
SWIDTH 960 0
DWIDTH 24 0
BBX 24 24 0 -2
BITMAP
180004
0E3FFE
06000E
02001C
000030
0000C0
608180
388180
190180
010180
030186
027FFF
060180
0C0180
0C0180
180180
780180
300180
380180
380180
180180
180180
181F80
180700
ENDCHAR

STARTCHAR cns3_2426
ENCODING 9254
SWIDTH 960 0
DWIDTH 24 0
BBX 24 24 0 -2
BITMAP
1C0000
180006
183FFF
1800C0
1800C0
1800C0
1980C0
9B80C0
9E00C0
D800C0
D800C0
D800C0
1800C0
1800C0
1800C0
1C00C0
3600C0
3300C0
3180C0
2180C0
6000C0
4000C0
800FC0
000380
ENDCHAR

STARTCHAR cns3_2427
ENCODING 9255
SWIDTH 960 0
DWIDTH 24 0
BBX 24 24 0 -2
BITMAP
070007
060006
060006
0601C6
060186
061186
463986
463186
666186
66C186
660186
660186
0D0186
0D0186
0D0186
0D0186
198186
188186
18C186
30C006
306006
607006
403CFE
80181C
ENDCHAR

STARTCHAR cns3_2428
ENCODING 9256
SWIDTH 960 0
DWIDTH 24 0
BBX 24 24 0 -2
BITMAP
001C00
001820
0C1830
063460
0334C0
026600
006300
00C300
018180
0300E0
060078
18003F
E0000C
018700
018600
018600
018600
030602
030602
030602
060602
060603
0C07FF
7003FE
ENDCHAR

STARTCHAR cns3_2429
ENCODING 9257
SWIDTH 960 0
DWIDTH 24 0
BBX 24 24 0 -2
BITMAP
000000
200006
3FFFFF
300000
300000
300700
300600
31060C
31860C
308618
30C618
30C630
30C620
30C600
300600
300D00
300D80
601880
6018C0
403060
406030
80C01C
83800F
1E0004
ENDCHAR

STARTCHAR cns3_242A
ENCODING 9258
SWIDTH 960 0
DWIDTH 24 0
BBX 24 24 0 -2
BITMAP
200008
3FFFFC
30001C
300018
303818
303018
303018
303018
303098
3431D8
343198
363318
333618
333018
326818
306818
606C18
60C419
60C60D
41860D
41830D
830387
8601E7
0800C3
ENDCHAR

STARTCHAR cns3_242B
ENCODING 9259
SWIDTH 960 0
DWIDTH 24 0
BBX 24 24 0 -2
BITMAP
030000
038000
030000
060002
07FFFF
0C0007
180006
300006
403806
003006
103086
0830E6
0C70C6
066986
066A06
00CC0E
00C47C
018618
018300
030180
0600E0
0C0078
18003E
600018
ENDCHAR

STARTCHAR cns3_242C
ENCODING 9260
SWIDTH 960 0
DWIDTH 24 0
BBX 24 24 0 -2
BITMAP
431C00
231800
361800
141800
1C1800
181820
3C1FF0
6DF870
8C1860
061860
0E1860
0E1860
1ED860
363860
263C60
463760
863260
066062
066062
064062
0CC063
1C8063
F9007F
30003E
ENDCHAR

STARTCHAR cns3_242D
ENCODING 9261
SWIDTH 960 0
DWIDTH 24 0
BBX 24 24 0 -2
BITMAP
830038
630030
360030
3C0030
180030
380030
680032
4C3FFF
8C0070
0600F0
0E00F0
0E01B0
1E01B0
360330
660330
460630
860C30
061830
063030
064030
0C0030
1C0030
F807F0
3000E0
ENDCHAR

STARTCHAR cns3_242E
ENCODING 9262
SWIDTH 960 0
DWIDTH 24 0
BBX 24 24 0 -2
BITMAP
0000E0
0000C0
0100C0
FF80C0
180180
180180
180180
180180
180300
190300
FF8300
180300
180600
180620
180610
180618
180C18
180C0C
1B8C0C
1C187C
F8FF8E
607806
000006
000004
ENDCHAR

STARTCHAR cns3_242F
ENCODING 9263
SWIDTH 960 0
DWIDTH 24 0
BBX 24 24 0 -2
BITMAP
000380
000300
030300
FF8300
180300
180304
187FFE
18030E
18030C
1B030C
FF860C
18060C
18060C
18060C
180C0C
180C0C
180C0C
18180C
1B980C
1E301C
F8301C
E06038
00C7F0
0101E0
ENDCHAR

STARTCHAR cns3_2430
ENCODING 9264
SWIDTH 960 0
DWIDTH 24 0
BBX 24 24 0 -2
BITMAP
000380
006300
7FF300
060300
060300
060300
060300
060380
060360
062338
7FF31C
06030C
06030E
060306
060300
060300
060300
060300
07E300
7E0300
380300
000300
000300
000300
ENDCHAR

STARTCHAR cns3_2431
ENCODING 9265
SWIDTH 960 0
DWIDTH 24 0
BBX 24 24 0 -2
BITMAP
000007
000806
FFFCE6
0300C6
0300C6
0300C6
0300C6
0300C6
0300C6
0310C6
7FF8C6
0300C6
0300C6
0300C6
0300C6
0300C6
0300C6
0300C6
0300C6
0300C6
03F806
FF0006
78007E
00001C
ENDCHAR

STARTCHAR cns3_2432
ENCODING 9266
SWIDTH 960 0
DWIDTH 24 0
BBX 24 24 0 -2
BITMAP
000004
00000E
FFFFFF
006000
006000
00F000
00CC00
018700
018380
030180
030008
07FFFC
0F001C
1B0018
330018
630018
830018
030018
030018
030018
030018
03FFF8
030018
030000
ENDCHAR

STARTCHAR cns3_2433
ENCODING 9267
SWIDTH 960 0
DWIDTH 24 0
BBX 24 24 0 -2
BITMAP
0C0380
0E0300
060300
060300
064300
7FE300
00E300
00C300
018300
030300
060300
0F8300
1EC300
366300
666300
860300
060302
060302
060302
060303
060303
0603FF
0601FE
060000
ENDCHAR

STARTCHAR cns3_2434
ENCODING 9268
SWIDTH 960 0
DWIDTH 24 0
BBX 24 24 0 -2
BITMAP
003000
003800
001818
3FFFFC
000000
020180
030180
018300
018200
000406
FFFFFF
001800
001800
001800
001800
001800
001800
001800
001800
001800
001800
001800
001800
001800
ENDCHAR

STARTCHAR cns3_2435
ENCODING 9269
SWIDTH 960 0
DWIDTH 24 0
BBX 24 24 0 -2
BITMAP
410700
7F8600
638600
630600
630600
630610
7B3FF8
6F0638
670630
630630
630630
630630
630630
670630
6F0630
7B0C30
630C30
630C30
631832
431832
431832
833033
8F203F
06401E
ENDCHAR

STARTCHAR cns3_2436
ENCODING 9270
SWIDTH 960 0
DWIDTH 24 0
BBX 24 24 0 -2
BITMAP
200000
200006
3FFFFF
600006
60000C
E00008
C40060
07FFF0
060060
060060
060060
06E060
063E60
060E60
060060
060360
060E60
063860
0CF060
0C6060
180060
100060
2007E0
4000C0
ENDCHAR

STARTCHAR cns3_2437
ENCODING 9271
SWIDTH 960 0
DWIDTH 24 0
BBX 24 24 0 -2
BITMAP
070070
060064
7FE7FE
060060
060060
000000
00000C
7FFFFE
006000
006000
00C000
00C020
01FFF0
018070
000060
000060
000060
000060
000060
0000C0
0000C0
000180
003F00
000E00
ENDCHAR

STARTCHAR cns3_2438
ENCODING 9272
SWIDTH 960 0
DWIDTH 24 0
BBX 24 24 0 -2
BITMAP
070070
060060
064062
FFE7FF
060060
060060
060060
000000
007000
006000
006004
3FFFFE
00600E
00600C
00C00C
00C00C
00C00C
01800C
01800C
03001C
030018
060038
1C07F0
7000E0
ENDCHAR

STARTCHAR cns3_2439
ENCODING 9273
SWIDTH 960 0
DWIDTH 24 0
BBX 24 24 0 -2
BITMAP
070070
064064
7FE7FE
060060
060060
000000
001C00
000C00
000600
018600
01C300
018300
030180
030180
0600C0
0600C0
0C0060
0C0060
180030
180038
30001C
60001F
80000C
000000
ENDCHAR

STARTCHAR cns3_243A
ENCODING 9274
SWIDTH 960 0
DWIDTH 24 0
BBX 24 24 0 -2
BITMAP
001C00
001800
001800
001818
3FFFFC
001800
001800
001800
001806
FFFFFF
000000
040030
0C0078
0E0070
0600E0
030180
030300
018E00
00B800
01E000
7F8000
07F000
007FFF
0007FE
ENDCHAR

STARTCHAR cns3_243B
ENCODING 9275
SWIDTH 960 0
DWIDTH 24 0
BBX 24 24 0 -2
BITMAP
000700
000600
C00600
600600
300600
300608
00FFFC
08061C
FC0618
1C0618
180618
180618
300C18
600C18
300C18
181818
181818
183018
186038
1183F0
3C0060
660000
E3FFFC
40FFF8
ENDCHAR

STARTCHAR cns3_243C
ENCODING 9276
SWIDTH 960 0
DWIDTH 24 0
BBX 24 24 0 -2
BITMAP
070000
060102
0601FF
060187
060186
E63986
C6318C
C63188
C63190
C6318C
C63186
C63186
C63183
C63183
C63183
C63183
C63183
C63187
C631BE
C6318C
FFF180
C03180
C00180
000180
ENDCHAR

STARTCHAR cns3_243D
ENCODING 9277
SWIDTH 960 0
DWIDTH 24 0
BBX 24 24 0 -2
BITMAP
070102
0601FF
060183
060182
0C0186
0C3184
FFFD84
0C3198
183190
18318C
183186
186186
306183
306183
38C183
66C183
638183
01E183
0331BE
06198C
0C1D80
300D80
C00180
000180
ENDCHAR

STARTCHAR cns3_243E
ENCODING 9278
SWIDTH 960 0
DWIDTH 24 0
BBX 24 24 0 -2
BITMAP
820008
FF3FFC
C6000E
C6000C
CC0018
C80030
C80060
D001C0
D00180
C80180
C80180
CC0186
C6FFFF
C60180
C60180
C60180
DE0180
CC0180
C00180
C00180
C00180
C00180
C01F80
C00700
ENDCHAR

STARTCHAR cns3_243F
ENCODING 9279
SWIDTH 960 0
DWIDTH 24 0
BBX 24 24 0 -2
BITMAP
000006
FFFFFF
018180
018180
018180
018180
218184
3FFFFE
31818E
31818C
31818C
31818C
33838C
33434C
33636C
36363C
36363C
340C2C
38100C
30000C
30000C
30000C
3001FC
300038
ENDCHAR

STARTCHAR cns3_2440
ENCODING 9280
SWIDTH 960 0
DWIDTH 24 0
BBX 24 24 0 -2
BITMAP
0000E0
0030E0
00F8C0
07C0C0
7F00C0
0300C0
0300C0
0300C0
030CC0
FFFEC0
0300C0
0300C0
0300C0
0300C0
6318C0
7FFCC0
6018C0
6018C0
6018C0
6018C2
6018C2
6018C3
7FF8FF
60187E
ENDCHAR

STARTCHAR cns3_2441
ENCODING 9281
SWIDTH 960 0
DWIDTH 24 0
BBX 24 24 0 -2
BITMAP
000000
004004
007FFE
00600E
00600C
04600C
7E600C
00600C
00600C
00600C
007FFC
006CCC
000CC0
000CC0
000CC0
020CC0
FF18C0
0018C2
0018C2
0018C2
0030C2
00E0C3
01C0FF
07007E
ENDCHAR

STARTCHAR cns3_2442
ENCODING 9282
SWIDTH 960 0
DWIDTH 24 0
BBX 24 24 0 -2
BITMAP
000000
00000C
3FFFFE
00C300
00C300
00C300
00C300
20C304
3FFFFE
30C30E
30C30C
30C30C
30C30C
30C30C
30C30C
3FFFFC
30C30C
00C300
00C300
00C300
00C300
00C306
FFFFFF
000000
ENDCHAR

STARTCHAR cns3_2443
ENCODING 9283
SWIDTH 960 0
DWIDTH 24 0
BBX 24 24 0 -2
BITMAP
060380
070300
060300
0E0300
0C0310
0C7FF8
1C0300
180300
180300
300300
30030C
71FFFE
580780
D80F80
980F40
181B60
181B30
183318
18631C
18C30F
1B0306
180300
180300
180300
ENDCHAR

STARTCHAR cns3_2444
ENCODING 9284
SWIDTH 960 0
DWIDTH 24 0
BBX 24 24 0 -2
BITMAP
060380
070300
060300
0E4304
0C7FFE
0C6306
1C630C
186318
386300
3C6308
6C7FFC
4C681C
8C6818
0C6830
0C6430
0C6460
0C4260
0CC3C0
0CC180
0C83C0
0D8660
0D0C38
0D181F
0C200C
ENDCHAR

STARTCHAR cns3_2445
ENCODING 9285
SWIDTH 960 0
DWIDTH 24 0
BBX 24 24 0 -2
BITMAP
01C000
019008
019FFC
03181C
031818
061818
061818
0E1818
0E1FF8
1E1818
161818
361818
261818
461818
861818
061FF8
061818
061818
061818
061818
061818
06181A
067FFF
060000
ENDCHAR

STARTCHAR cns3_2446
ENCODING 9286
SWIDTH 960 0
DWIDTH 24 0
BBX 24 24 0 -2
BITMAP
060000
0701C0
060180
0C0180
0C0180
180180
180180
300180
306186
787FFE
586186
986186
986186
186186
186186
187FFE
186186
186186
186186
186186
186186
187FFE
186006
186006
ENDCHAR

STARTCHAR cns3_2447
ENCODING 9287
SWIDTH 960 0
DWIDTH 24 0
BBX 24 24 0 -2
BITMAP
186070
1C7060
186060
18C060
30C060
318C62
318DFF
631867
661866
731066
B1B066
B0E066
306046
3060C6
30C0C6
30D8C6
318986
318D86
333D0C
37E70C
33020C
30061C
3004F8
300830
ENDCHAR

STARTCHAR cns3_2448
ENCODING 9288
SWIDTH 960 0
DWIDTH 24 0
BBX 24 24 0 -2
BITMAP
074004
067FFE
06600E
0C600C
0C600C
18600C
18600C
307FFC
38600C
786000
586700
D86600
986600
186600
186618
1867FC
18C600
18C600
18C602
188602
198602
190603
1A07FF
1803FE
ENDCHAR

STARTCHAR cns3_2449
ENCODING 9289
SWIDTH 960 0
DWIDTH 24 0
BBX 24 24 0 -2
BITMAP
030000
038006
033FFF
0700C0
0600C0
0600C0
0E00C0
0C00C0
1C0CC0
1C0CC0
360CCC
660CFE
460CC0
C60CC0
860CC0
060CC0
060CC0
060CC0
060CC0
060CC0
060CC0
060CC6
063FFF
060000
ENDCHAR

STARTCHAR cns3_244A
ENCODING 9290
SWIDTH 960 0
DWIDTH 24 0
BBX 24 24 0 -2
BITMAP
070000
060006
06FFFF
0C0180
0C0180
180180
180180
304182
387FFF
786187
586186
D86306
986386
186246
186666
186436
186836
187006
186006
186006
186006
186006
18607E
18601C
ENDCHAR

STARTCHAR cns3_244B
ENCODING 9291
SWIDTH 960 0
DWIDTH 24 0
BBX 24 24 0 -2
BITMAP
061C1C
071818
061818
0E1818
0C1818
0C181A
1C7FFF
181818
381818
381818
6C1818
CC1818
8C1818
8C1FF8
0C1818
0C1818
0C1818
0C1818
0C1818
0C1818
0C1818
0C1FF8
0C1818
0C1800
ENDCHAR

STARTCHAR cns3_244C
ENCODING 9292
SWIDTH 960 0
DWIDTH 24 0
BBX 24 24 0 -2
BITMAP
060004
073FFE
06060E
0E060C
0C060C
0C060C
0C0C0C
180C0C
18180C
38181C
3830F8
6C4030
4C0004
CC1FFE
0C180E
0C180C
0C180C
0C180C
0C180C
0C180C
0C180C
0C1FFC
0C180C
0C180C
ENDCHAR

STARTCHAR cns3_244D
ENCODING 9293
SWIDTH 960 0
DWIDTH 24 0
BBX 24 24 0 -2
BITMAP
070000
062008
063FFC
0C301C
0C3418
183318
183198
303198
383018
78301A
58FFFF
D83018
983018
183418
183318
186198
186198
186018
18601A
187FFF
186030
180030
1803F0
180060
ENDCHAR

STARTCHAR cns3_244E
ENCODING 9294
SWIDTH 960 0
DWIDTH 24 0
BBX 24 24 0 -2
BITMAP
038000
031004
031FFE
06180E
06180C
0C180C
0C180C
18180C
181FFC
3C180C
2C1800
6C1800
4C1802
8C1FFF
0C1807
0C1806
0C1806
0C1806
0C1806
0C1806
0C1FFE
0C1806
0C1800
0C0000
ENDCHAR

STARTCHAR cns3_244F
ENCODING 9295
SWIDTH 960 0
DWIDTH 24 0
BBX 24 24 0 -2
BITMAP
070000
060000
068002
06FFFF
0CC6C7
0CC6C6
0CC6C6
18C6C6
18C6C6
38C6C6
3CCCC6
6CCCC6
4CCCC6
8CD8FE
0CD876
0CD006
0CE006
0CC006
0CC006
0CFFFE
0CC006
0CC006
0C0000
0C0000
ENDCHAR

STARTCHAR cns3_2450
ENCODING 9296
SWIDTH 960 0
DWIDTH 24 0
BBX 24 24 0 -2
BITMAP
070380
060300
060680
0C0C40
0C1860
0C3038
18639C
18C30F
310306
380300
780300
580300
983B00
183340
183330
186318
18630C
18C30E
18C306
198306
1A0300
180300
183F00
180600
ENDCHAR

STARTCHAR cns3_2451
ENCODING 9297
SWIDTH 960 0
DWIDTH 24 0
BBX 24 24 0 -2
BITMAP
000020
040030
030070
018060
00C0C0
00E180
004300
000400
0FFFE0
0C0060
0C0060
0C0060
0C0060
0C0060
0FFFE0
00CC60
00CC00
018C00
018C02
030C02
060C02
0C0C03
180FFF
E007FE
ENDCHAR

STARTCHAR cns3_2452
ENCODING 9298
SWIDTH 960 0
DWIDTH 24 0
BBX 24 24 0 -2
BITMAP
000008
1FFFFC
00181C
001818
003038
00E1F0
078060
100008
1FFFFC
18181C
181818
181818
181818
181818
1FFFF8
183618
003600
006602
006602
00C602
018603
070603
1C07FF
F003FE
ENDCHAR

STARTCHAR cns3_2453
ENCODING 9299
SWIDTH 960 0
DWIDTH 24 0
BBX 24 24 0 -2
BITMAP
0E2008
0C3FFC
0C301C
0C3018
0C3018
0C3018
0C3FF8
0C3018
0C3018
0C3018
0C3018
0C3FF8
0C3018
018300
01C380
018300
018300
030302
030302
060302
0C0303
1803FF
3001FE
C00000
ENDCHAR

STARTCHAR cns3_2454
ENCODING 9300
SWIDTH 960 0
DWIDTH 24 0
BBX 24 24 0 -2
BITMAP
0003E0
007FF0
0FF800
001800
001800
101808
1FFFFC
18181C
181818
181818
181818
1FFFF8
183618
003600
007600
006680
00C660
018632
030632
060602
0C0603
1807FF
6003FE
800000
ENDCHAR

STARTCHAR cns3_2455
ENCODING 9301
SWIDTH 960 0
DWIDTH 24 0
BBX 24 24 0 -2
BITMAP
000000
400002
7FFFFF
601807
601806
6E1B86
661986
661986
6318C6
6318C6
6318C6
6398E6
6699A6
66D9B6
6CDB36
687A1E
705C16
601806
601806
601806
601806
601806
60187E
60181C
ENDCHAR

STARTCHAR cns3_2456
ENCODING 9302
SWIDTH 960 0
DWIDTH 24 0
BBX 24 24 0 -2
BITMAP
080010
0FFFF8
0C0038
0C3830
0C3030
0C3030
0C3030
0C3030
0C6830
0C6430
0CC630
0CC330
0C83B0
0D0130
0C0030
0C0036
FFFFFF
018180
03C060
070038
0C001C
18000E
300007
C00003
ENDCHAR

STARTCHAR cns3_2457
ENCODING 9303
SWIDTH 960 0
DWIDTH 24 0
BBX 24 24 0 -2
BITMAP
000000
200002
3FFFFF
600006
E00006
C0000C
040040
07FFE0
0600E0
0600C0
0600C0
0600C0
07FFC0
0600C0
0600C0
0600C0
0600C0
07FFC0
0600C0
0600C0
0600C0
0600C6
FFFFFF
000000
ENDCHAR

STARTCHAR cns3_2458
ENCODING 9304
SWIDTH 960 0
DWIDTH 24 0
BBX 24 24 0 -2
BITMAP
300006
187FFF
0C0600
080600
010600
010C00
010C00
020C00
021800
061804
043FFE
0C380E
0C780C
18580C
18980C
38180C
F0180C
70180C
30180C
301FFC
18180C
18180C
181800
180000
ENDCHAR

STARTCHAR cns3_2459
ENCODING 9305
SWIDTH 960 0
DWIDTH 24 0
BBX 24 24 0 -2
BITMAP
000000
002004
603FFE
30300E
19300C
11300C
01300C
02300C
02300C
06300C
043FFC
0C306C
0C0760
180660
180660
380660
F00660
700660
300C62
300C62
181862
181863
18307F
18403E
ENDCHAR

STARTCHAR cns3_245A
ENCODING 9306
SWIDTH 960 0
DWIDTH 24 0
BBX 24 24 0 -2
BITMAP
0001C0
000180
600180
301998
19198C
113186
012186
024180
02018C
067FFE
040180
0C0180
0C0180
180180
180186
38FFFF
F00180
700180
300180
300180
180180
180180
180180
180180
ENDCHAR

STARTCHAR cns3_245B
ENCODING 9307
SWIDTH 960 0
DWIDTH 24 0
BBX 24 24 0 -2
BITMAP
200010
3FFFF8
300038
300030
300330
37FFB0
300030
300030
300030
330130
33FF30
330330
330330
330330
33FF18
330318
330319
630319
63FF19
63030D
40000D
C0000D
80000F
800006
ENDCHAR

STARTCHAR cns3_245C
ENCODING 9308
SWIDTH 960 0
DWIDTH 24 0
BBX 24 24 0 -2
BITMAP
06000C
07000E
06000C
0C018C
0C018C
18418C
18218C
30318C
61F98C
FF198C
60118C
00018C
00018C
30218C
3FF18C
30718C
30618C
30618C
30618C
30600C
30600C
3FE00C
3060FC
300018
ENDCHAR

STARTCHAR cns3_245D
ENCODING 9309
SWIDTH 960 0
DWIDTH 24 0
BBX 24 24 0 -2
BITMAP
070000
060000
060006
065FFF
7FE186
060186
060186
060186
060186
063186
FFF986
060186
0C0186
0C0186
188306
184306
306306
43E606
FE3606
702C0E
200C0C
00181C
0031F8
00C070
ENDCHAR

STARTCHAR cns3_245E
ENCODING 9310
SWIDTH 960 0
DWIDTH 24 0
BBX 24 24 0 -2
BITMAP
038007
030006
0300E6
0300C6
0310C6
7FF8C6
0300C6
0300C6
0300C6
0300C6
0318C6
FFFCC6
0600C6
0600C6
0C00C6
0C40C6
1820C6
1830C6
3078C6
23DC06
FE0C06
700806
0000FE
00001C
ENDCHAR

STARTCHAR cns3_245F
ENCODING 9311
SWIDTH 960 0
DWIDTH 24 0
BBX 24 24 0 -2
BITMAP
000807
FFF806
0619C6
061986
061986
0C1986
0C1986
181986
303986
C3F186
00E186
000186
200986
3FF986
301986
301986
301986
301986
301806
301806
301806
3FF806
30187E
30001C
ENDCHAR

STARTCHAR cns3_2460
ENCODING 9312
SWIDTH 960 0
DWIDTH 24 0
BBX 24 24 0 -2
BITMAP
000007
401006
7FF806
6038E6
6030C6
6030C6
6030C6
6030C6
7FF0C6
6C30C6
0C00C6
0C00C6
0C10C6
7FF8C6
0C38C6
1830C6
1830C6
1830C6
303006
203006
603006
406006
87E07E
00C01C
ENDCHAR

STARTCHAR cns3_2461
ENCODING 9313
SWIDTH 960 0
DWIDTH 24 0
BBX 24 24 0 -2
BITMAP
400407
7EFE06
66CE66
66CC66
66CC66
66CC66
66CC66
66CC66
66CC66
66CC66
FFFF66
66CC66
66CC66
66CC66
66CC66
66CC66
66CC66
66CC66
66CC66
66CC06
66CC06
66CC06
66DC7E
60081C
ENDCHAR

STARTCHAR cns3_2462
ENCODING 9314
SWIDTH 960 0
DWIDTH 24 0
BBX 24 24 0 -2
BITMAP
102004
08100E
0C180C
060C18
060C30
030C60
020880
200002
3FFFFF
600007
60700C
C06000
C06000
006010
1FFFF8
00C038
00C030
00C030
018030
018030
030030
060070
180FE0
6001C0
ENDCHAR

STARTCHAR cns3_2463
ENCODING 9315
SWIDTH 960 0
DWIDTH 24 0
BBX 24 24 0 -2
BITMAP
070070
060060
062062
FFFFFF
060060
060060
060060
200002
3FFFFF
600007
60700C
C06000
C06000
006010
1FFFF8
00C038
00C030
00C030
018030
018030
030030
060070
180FE0
6001C0
ENDCHAR

STARTCHAR cns3_2464
ENCODING 9316
SWIDTH 960 0
DWIDTH 24 0
BBX 24 24 0 -2
BITMAP
0700E0
0600C0
7670C0
6660C0
6660C0
6660C2
6667FF
6660C7
6660C6
7FE0C6
6660C6
0600C6
0600C6
E63986
C63186
C63186
C63186
C63186
C63306
C6330E
FFF60C
C0361C
C00CF8
001030
ENDCHAR

STARTCHAR cns3_2465
ENCODING 9317
SWIDTH 960 0
DWIDTH 24 0
BBX 24 24 0 -2
BITMAP
400006
7FFFFF
600000
601C00
601800
603040
606030
60C018
67FFFC
63800C
6060E8
6060C0
6060D8
67FFFC
6060C0
6060C0
60C0C0
60C0C0
6180C0
6200C4
60000E
7FFFFF
600000
600000
ENDCHAR

STARTCHAR cns3_2466
ENCODING 9318
SWIDTH 960 0
DWIDTH 24 0
BBX 24 24 0 -2
BITMAP
400006
7FFFFF
600000
61C000
618000
618030
63FFF8
630600
620600
640600
600618
67FFFC
600C00
600D00
601900
603080
6060C0
60C070
61803C
660010
600006
7FFFFF
600000
600000
ENDCHAR

STARTCHAR cns3_2467
ENCODING 9319
SWIDTH 960 0
DWIDTH 24 0
BBX 24 24 0 -2
BITMAP
070102
0601FF
060187
060186
062186
7FF186
060186
060186
060186
060186
063186
FFF986
0C0186
0C0186
180186
188186
304186
606186
40F1BE
CFB98C
F81D80
C01580
000180
000180
ENDCHAR

STARTCHAR cns3_2468
ENCODING 9320
SWIDTH 960 0
DWIDTH 24 0
BBX 24 24 0 -2
BITMAP
200006
3FFFFF
300000
300C00
300E00
300600
300618
33FFFC
300000
300030
310038
308030
30C030
304060
306060
3060C0
3030C0
303180
203180
600300
40040C
43FFFE
800000
800000
ENDCHAR

STARTCHAR cns3_2469
ENCODING 9321
SWIDTH 960 0
DWIDTH 24 0
BBX 24 24 0 -2
BITMAP
200006
3FFFFF
300000
300700
300600
300600
300600
30060C
33FFFE
300600
300600
300600
300600
310608
31FFFC
31801C
318018
318018
218018
618018
418018
41FFF8
818018
800000
ENDCHAR

STARTCHAR cns3_246A
ENCODING 9322
SWIDTH 960 0
DWIDTH 24 0
BBX 24 24 0 -2
BITMAP
000000
18000C
1FFFFE
180000
180000
198018
19FFFC
198618
198618
198618
19FFF8
198618
198618
198618
19FFF8
198618
180600
180600
100600
100600
200600
200600
400600
000600
ENDCHAR

STARTCHAR cns3_246B
ENCODING 9323
SWIDTH 960 0
DWIDTH 24 0
BBX 24 24 0 -2
BITMAP
000800
000600
410300
7F8180
638186
637FFF
630600
630600
630600
630604
6307FE
63060E
63060C
630C0C
630C0C
630C0C
7F180C
63180C
60300C
00300C
00600C
00C018
0181F8
020070
ENDCHAR

STARTCHAR cns3_246C
ENCODING 9324
SWIDTH 960 0
DWIDTH 24 0
BBX 24 24 0 -2
BITMAP
0001C0
000180
000180
820184
FF3FFE
C70180
C60180
C60180
C60180
C60180
C63FFE
C60180
C60180
C60180
C60180
C60186
C6FFFF
C60180
FE0180
C60180
C00180
000180
000180
000180
ENDCHAR

STARTCHAR cns3_246D
ENCODING 9325
SWIDTH 960 0
DWIDTH 24 0
BBX 24 24 0 -2
BITMAP
000000
000000
000008
82001C
FF1FFE
C70000
C60000
C60000
C60004
C6000E
C67FFF
C60180
C601C0
C60180
C60180
C60300
C60318
C6060C
FE0606
C60C1E
C07FE3
003E03
001803
000000
ENDCHAR

STARTCHAR cns3_246E
ENCODING 9326
SWIDTH 960 0
DWIDTH 24 0
BBX 24 24 0 -2
BITMAP
0001C0
000180
000180
820180
FF0180
C70180
C60186
C67FFF
C60380
C603C0
C607C0
C607E0
C60DB0
C60DB0
C61998
C6199C
C6318E
C66187
FE8182
C60180
C00180
000180
000180
000180
ENDCHAR

STARTCHAR cns3_246F
ENCODING 9327
SWIDTH 960 0
DWIDTH 24 0
BBX 24 24 0 -2
BITMAP
0001C0
000180
000180
82018C
FF0186
C70186
C60180
C60186
C67FFF
C60180
C60180
C60300
C60300
C603C0
C606C0
C606C0
C606C0
C60CC2
FE0CC2
C618C2
C018C2
0030C3
0060FF
01807E
ENDCHAR

STARTCHAR cns3_2470
ENCODING 9328
SWIDTH 960 0
DWIDTH 24 0
BBX 24 24 0 -2
BITMAP
001020
001FF0
001870
821860
FF1860
C71860
C63060
C6307F
C6601E
C64000
C60000
C67FFC
C6081C
C60818
C60430
C60630
C60260
C603C0
FE0180
C603C0
C00678
000C3F
001806
006000
ENDCHAR

STARTCHAR cns3_2471
ENCODING 9329
SWIDTH 960 0
DWIDTH 24 0
BBX 24 24 0 -2
BITMAP
000020
000620
000720
820620
FF0630
C70C10
C60C10
C60C18
C6180C
C6180E
C63187
C66182
C60380
C60300
C60300
C60610
C60608
C60C0C
FE0C06
C61806
C0107F
007FC3
003803
000000
ENDCHAR

STARTCHAR cns3_2472
ENCODING 9330
SWIDTH 960 0
DWIDTH 24 0
BBX 24 24 0 -2
BITMAP
00E000
006000
006000
003000
203004
3FFFFE
30180C
30180C
30340C
30360C
30630C
30C1CC
3380FC
3F006C
31FFCC
3181CC
31818C
31818C
31818C
31FF8C
31818C
30000C
30007C
300018
ENDCHAR

STARTCHAR cns3_2473
ENCODING 9331
SWIDTH 960 0
DWIDTH 24 0
BBX 24 24 0 -2
BITMAP
000040
3FFFE0
0600E0
0600C2
0601FF
060187
060006
0C0006
0C0006
18000E
301C7C
C01818
001800
3FFFFC
001800
001800
081810
0FFFF8
0C0038
0C0030
0C0030
0C0030
0FFFF0
0C0030
ENDCHAR

STARTCHAR cns3_2474
ENCODING 9332
SWIDTH 960 0
DWIDTH 24 0
BBX 24 24 0 -2
BITMAP
000038
000030
003030
C20C30
FF0630
C70330
C60330
C60030
C62030
C61830
C60C30
C60630
C60630
C60030
C60032
C6FFFF
C60030
C60030
FE0030
C60030
C00030
000030
000030
000030
ENDCHAR

STARTCHAR cns3_2475
ENCODING 9333
SWIDTH 960 0
DWIDTH 24 0
BBX 24 24 0 -2
BITMAP
000000
000080
000040
000060
C20060
FF0C30
C70E30
C60C00
C60C00
C60C00
C60C08
C62C0C
C62C06
C66C06
C66C03
C6CC03
FECC01
C6CC00
C18C04
018C04
000C04
000C0E
000FFE
0007FC
ENDCHAR

STARTCHAR cns3_2476
ENCODING 9334
SWIDTH 960 0
DWIDTH 24 0
BBX 24 24 0 -2
BITMAP
000000
000008
00FFFC
82061C
FE0618
C60618
C60618
C6061A
C7FFFF
C60C18
C60C18
C60C18
C60C18
C60C18
C6FFF8
C61818
C61800
FE1800
C63000
C03000
006000
006000
00C000
018000
ENDCHAR

STARTCHAR cns3_2477
ENCODING 9335
SWIDTH 960 0
DWIDTH 24 0
BBX 24 24 0 -2
BITMAP
000087
003FC6
0001C6
610186
7F0186
630186
630186
631186
631F86
631986
631806
633006
633086
633FC6
6331C6
630186
630186
7F0186
630186
600186
000186
000306
003F06
000E06
ENDCHAR

STARTCHAR cns3_2478
ENCODING 9336
SWIDTH 960 0
DWIDTH 24 0
BBX 24 24 0 -2
BITMAP
000380
000300
000300
820300
FF0318
C73FFC
C60300
C60300
C60300
C60300
C60300
C60306
C67FFF
C60300
C60300
C60680
C60680
C60640
FE0C60
C60C30
C01818
00301C
00600F
018006
ENDCHAR

STARTCHAR cns3_2479
ENCODING 9337
SWIDTH 960 0
DWIDTH 24 0
BBX 24 24 0 -2
BITMAP
0070E0
0060C0
0060C0
C260C0
FF60C0
C760C0
C660C0
C664C4
C67EFE
C660C0
C660C0
C660C0
C660C0
C660C0
C660C0
C660C0
C660C0
C660C2
FE60C2
C660C2
C066C3
0078FF
00307E
000000
ENDCHAR

STARTCHAR cns3_247A
ENCODING 9338
SWIDTH 960 0
DWIDTH 24 0
BBX 24 24 0 -2
BITMAP
000000
000038
006037
006036
006036
C27066
FE6866
C66C66
C666C6
C662C6
C663C6
C661C6
C66366
C66336
C6633E
C6661E
C6641E
C66C0E
FE6806
C67006
C06006
007FFE
006006
006000
ENDCHAR

STARTCHAR cns3_247B
ENCODING 9339
SWIDTH 960 0
DWIDTH 24 0
BBX 24 24 0 -2
BITMAP
100010
1FFFF8
180038
180030
180030
180030
1FFFF0
180030
000000
000018
3FFFFC
003000
003000
003000
003006
FFFFFF
006C00
00C600
00C300
018380
0301C0
0600F0
1C003F
F0000C
ENDCHAR

STARTCHAR cns3_247C
ENCODING 9340
SWIDTH 960 0
DWIDTH 24 0
BBX 24 24 0 -2
BITMAP
040010
07FFF8
060038
060030
060030
060030
07FFF0
060030
00C000
00C000
018010
03FFF8
030038
000030
000060
000066
FFFFFF
006000
00F180
01C070
03801C
07000E
1C0007
F00003
ENDCHAR

STARTCHAR cns3_247D
ENCODING 9341
SWIDTH 960 0
DWIDTH 24 0
BBX 24 24 0 -2
BITMAP
000180
0001C0
820180
FF0180
C74182
C67FFF
C66187
C66186
C66186
C66346
C66346
C66666
C66666
C66C36
C6683E
C67016
FE6006
C66006
C06006
006006
006006
006006
0060FE
00601C
ENDCHAR

STARTCHAR cns3_247E
ENCODING 9342
SWIDTH 960 0
DWIDTH 24 0
BBX 24 24 0 -2
BITMAP
001000
001820
038C18
03060E
130607
130003
330042
330040
730040
6300E0
63FFE0
01FFC0
000000
000000
040020
07FFF0
060070
060060
060060
060060
060060
060060
07FFE0
060060
ENDCHAR

STARTCHAR cns3_2521
ENCODING 9505
SWIDTH 960 0
DWIDTH 24 0
BBX 24 24 0 -2
BITMAP
071C00
061800
061800
0C1800
0C1830
1FFFF8
181800
301800
201800
401800
001806
FFFFFF
001800
001800
081810
0FFFF8
0C0038
0C0030
0C0030
0C0030
0C0030
0C0030
0FFFF0
0C0030
ENDCHAR

STARTCHAR cns3_2522
ENCODING 9506
SWIDTH 960 0
DWIDTH 24 0
BBX 24 24 0 -2
BITMAP
0003E0
007FF0
3FF800
001800
001800
003000
003006
FFFFFF
006400
00C200
018300
030180
0600C0
0C0070
1C003C
37FFEF
C60066
060060
060060
060060
060060
07FFE0
060060
060000
ENDCHAR

STARTCHAR cns3_2523
ENCODING 9507
SWIDTH 960 0
DWIDTH 24 0
BBX 24 24 0 -2
BITMAP
001C00
001800
001800
821800
FF1800
C7300C
C63FFE
C63060
C62060
C66060
C64860
C64860
C608C0
C604C0
C604C0
C60680
C60380
C60300
FE0780
C606C0
C00C60
001838
00701F
01C006
ENDCHAR

STARTCHAR cns3_2524
ENCODING 9508
SWIDTH 960 0
DWIDTH 24 0
BBX 24 24 0 -2
BITMAP
000E00
007F80
23E000
3F0000
300004
3FFFFE
30000E
30000C
30000C
3FFFFC
30000C
300000
300000
308008
30FFFC
30C01C
30C018
20C018
20C018
60C018
40C018
40FFF8
80C018
80C000
ENDCHAR

STARTCHAR cns3_2525
ENCODING 9509
SWIDTH 960 0
DWIDTH 24 0
BBX 24 24 0 -2
BITMAP
000004
00000E
00FFFF
820380
FF0300
C70300
C60300
C60300
C60300
C60308
C63FFC
C6061C
C60618
C60618
C60618
C60618
C60618
C60C18
C60C18
FE0C18
C60C18
C00C18
000C1A
00FFFF
ENDCHAR

STARTCHAR cns3_2526
ENCODING 9510
SWIDTH 960 0
DWIDTH 24 0
BBX 24 24 0 -2
BITMAP
400002
7FFFFF
600007
600006
600106
61FF86
600006
600006
6000C6
67FFE6
603006
603006
606006
606206
60C106
60C186
6180C6
67FFE6
67C0C6
600086
600006
7FFFFE
600006
600000
ENDCHAR

STARTCHAR cns3_2527
ENCODING 9511
SWIDTH 960 0
DWIDTH 24 0
BBX 24 24 0 -2
BITMAP
400002
7FFFFF
600007
60C386
60C306
60C306
60C346
67FFE6
60C306
60C306
60C306
60C326
6FFFF6
60C306
60C306
60C306
618306
618306
630306
6C0306
600006
7FFFFE
600006
600000
ENDCHAR

STARTCHAR cns3_2528
ENCODING 9512
SWIDTH 960 0
DWIDTH 24 0
BBX 24 24 0 -2
BITMAP
000000
400002
7FFFFF
600007
601C46
608766
606266
6638C6
6198C6
60C186
606306
603606
601C06
601C06
603606
606306
60C1C6
6300F6
6C0066
600006
600006
7FFFFE
600006
000000
ENDCHAR

STARTCHAR cns3_2529
ENCODING 9513
SWIDTH 960 0
DWIDTH 24 0
BBX 24 24 0 -2
BITMAP
400002
7FFFFF
600007
600006
600066
6FFFF6
601806
601806
601806
601806
6018C6
67FFE6
601806
601806
601806
601806
601806
601866
6FFFF6
600006
600006
600006
7FFFFE
600006
ENDCHAR

STARTCHAR cns3_252A
ENCODING 9514
SWIDTH 960 0
DWIDTH 24 0
BBX 24 24 0 -2
BITMAP
400002
7FFFFF
600007
600106
61FF86
600006
600006
6000C6
67FFE6
606606
606606
606606
606606
606626
60C626
60C626
618636
6307F6
6C03E6
600006
600006
7FFFFE
600006
600000
ENDCHAR

STARTCHAR cns3_252B
ENCODING 9515
SWIDTH 960 0
DWIDTH 24 0
BBX 24 24 0 -2
BITMAP
000000
400002
7FFFFF
60C307
60C306
60C306
60C306
60C306
60FF06
60C306
60C306
60C306
60C306
60C306
60C306
60FF06
60C306
60C306
60C306
60C306
60C306
7FFFFE
600006
000000
ENDCHAR

STARTCHAR cns3_252C
ENCODING 9516
SWIDTH 960 0
DWIDTH 24 0
BBX 24 24 0 -2
BITMAP
400002
7FFFFF
600007
601C06
601806
601806
605866
6FD8E6
60DD86
60DE06
60DA06
619A06
619B06
619906
631986
6318C6
6618E6
641876
681826
60F806
603006
7FFFFE
600006
600000
ENDCHAR

STARTCHAR cns3_252D
ENCODING 9517
SWIDTH 960 0
DWIDTH 24 0
BBX 24 24 0 -2
BITMAP
004002
1C7FFF
18C007
18C00E
18C008
180CE0
180CC0
180CC0
1A0CC0
FF0CC0
180CC0
180CC0
180CC0
180CC0
180CC0
180CC0
180CC0
1818C0
1818C2
1F18C2
F830C2
6030C3
0060FF
01807E
ENDCHAR

STARTCHAR cns3_252E
ENCODING 9518
SWIDTH 960 0
DWIDTH 24 0
BBX 24 24 0 -2
BITMAP
1C0004
183FFE
18000E
18001C
181830
180660
1A0380
FF0180
180102
18FFFF
180187
180186
18018C
180190
180180
180180
180180
180180
1F0180
F80180
600180
000180
001F80
000700
ENDCHAR

STARTCHAR cns3_252F
ENCODING 9519
SWIDTH 960 0
DWIDTH 24 0
BBX 24 24 0 -2
BITMAP
001020
1C1FF0
181870
181860
181860
181860
183060
18307F
1A601E
FF4000
180000
183FFC
18001C
181018
181830
180C30
180660
1803C0
1B0180
1C03C0
F80670
E00C3C
40181F
006006
ENDCHAR

STARTCHAR cns3_2530
ENCODING 9520
SWIDTH 960 0
DWIDTH 24 0
BBX 24 24 0 -2
BITMAP
1C01C0
180180
180180
180340
180360
180630
1A0C38
FF181C
18300E
186007
188002
180E38
180C30
180C30
180C30
180C30
191830
1E1830
F81830
E03030
003030
006030
00C030
010030
ENDCHAR

STARTCHAR cns3_2531
ENCODING 9521
SWIDTH 960 0
DWIDTH 24 0
BBX 24 24 0 -2
BITMAP
000000
000000
100010
1FFFF8
180038
180030
180030
1FFFF0
180030
180030
180030
1FFFF0
180030
180030
001800
001800
001830
1FFFF8
001800
001800
001800
001806
FFFFFF
000000
ENDCHAR

STARTCHAR cns3_2532
ENCODING 9522
SWIDTH 960 0
DWIDTH 24 0
BBX 24 24 0 -2
BITMAP
01C1C0
018180
01818C
7FFFFE
018180
018180
018180
018186
FFFFFF
030180
030180
060180
0C0180
300180
C00180
001C00
001800
001830
1FFFF8
001800
001800
001800
001806
FFFFFF
ENDCHAR

STARTCHAR cns3_2533
ENCODING 9523
SWIDTH 960 0
DWIDTH 24 0
BBX 24 24 0 -2
BITMAP
000030
1FFFF8
000000
000000
00000E
FFFFFF
018600
018600
030600
030602
060602
0C0602
3007FF
C003FE
001C00
001800
001830
1FFFF8
001800
001800
001800
001800
001806
FFFFFF
ENDCHAR

STARTCHAR cns3_2534
ENCODING 9524
SWIDTH 960 0
DWIDTH 24 0
BBX 24 24 0 -2
BITMAP
1C0038
180030
180830
180630
180330
1803B0
1A0130
FF0030
181030
180C30
180630
180730
180230
180030
180030
180036
183FFF
190030
1E0030
F80030
600030
000030
000030
000030
ENDCHAR

STARTCHAR cns3_2535
ENCODING 9525
SWIDTH 960 0
DWIDTH 24 0
BBX 24 24 0 -2
BITMAP
1C0300
180380
180380
180180
180186
187FFF
180818
190818
FF8818
180818
180818
180430
180430
180630
180220
180260
180340
1B81C0
1E0180
F803C0
E00660
400C38
00301F
004006
ENDCHAR

STARTCHAR cns3_2536
ENCODING 9526
SWIDTH 960 0
DWIDTH 24 0
BBX 24 24 0 -2
BITMAP
1C0000
180018
183FFC
180000
180000
180000
180000
180000
FF8006
187FFF
180CC0
180CC0
180CC0
180CC0
180CC0
1818C0
1818C0
1B98C2
1E30C2
F830C2
E060C2
4040C3
0080FF
00007E
ENDCHAR

STARTCHAR cns3_2537
ENCODING 9527
SWIDTH 960 0
DWIDTH 24 0
BBX 24 24 0 -2
BITMAP
1C0000
180006
18FFFF
181800
181800
181800
1A1800
FF3008
183FFC
18301C
183018
183018
186018
186018
186018
187FF8
19C030
1E0030
F80030
E00030
000030
000036
00FFFF
000000
ENDCHAR

STARTCHAR cns3_2538
ENCODING 9528
SWIDTH 960 0
DWIDTH 24 0
BBX 24 24 0 -2
BITMAP
1C0700
180600
180600
180600
180600
180610
187FF8
180638
1A0630
FF0630
180630
180636
19FFFF
180600
180600
180600
180D00
180D80
1F18C0
F818E0
603070
00603C
00C01F
03000E
ENDCHAR

STARTCHAR cns3_2539
ENCODING 9529
SWIDTH 960 0
DWIDTH 24 0
BBX 24 24 0 -2
BITMAP
003870
1C3060
183060
183060
183060
183060
183060
183264
193F7E
FFB060
183060
183060
183060
183060
183060
183060
183060
183062
1BB062
1E3063
F83363
E03C7F
40183E
000000
ENDCHAR

STARTCHAR cns3_253A
ENCODING 9530
SWIDTH 960 0
DWIDTH 24 0
BBX 24 24 0 -2
BITMAP
00001C
1C00FE
1803C0
183F00
180300
180300
180318
1803FC
193F00
FF8300
180300
180300
180306
1803FF
183F00
180300
180300
180302
1B8302
1E0302
F80303
600303
0003FF
0001FE
ENDCHAR

STARTCHAR cns3_253B
ENCODING 9531
SWIDTH 960 0
DWIDTH 24 0
BBX 24 24 0 -2
BITMAP
1C1C00
181800
181806
183FFF
183000
1821C0
1A4180
FF4180
180180
180182
181FFF
180187
180186
180186
180306
180306
180306
190606
1E0606
F80C06
600C06
00180E
0030FC
004038
ENDCHAR

STARTCHAR cns3_253C
ENCODING 9532
SWIDTH 960 0
DWIDTH 24 0
BBX 24 24 0 -2
BITMAP
0E0700
0C0600
0C0600
0C0600
0C0600
0C0C06
0C0FFF
0C8C18
FFCA18
0C1A18
0C1218
0C1218
0C0130
0C0130
0C01B0
0C00A0
0C00E0
0F80C0
FC01E0
7001B0
200318
00060E
000C07
003003
ENDCHAR

STARTCHAR cns3_253D
ENCODING 9533
SWIDTH 960 0
DWIDTH 24 0
BBX 24 24 0 -2
BITMAP
1C1C00
181800
181800
181001
183FFF
183003
1A2003
FFA383
184303
184303
180303
180603
180603
180643
180C43
180863
181063
197FB3
1E3833
F80007
600006
00000E
0001FC
000038
ENDCHAR

STARTCHAR cns3_253E
ENCODING 9534
SWIDTH 960 0
DWIDTH 24 0
BBX 24 24 0 -2
BITMAP
1C1800
181C00
181800
181800
183002
183FFF
183667
1A6666
FF4666
188666
180C66
180C66
180C66
1818C6
1818C6
1830C6
186186
188186
180306
1E030C
F8060C
600C1C
0071F8
000070
ENDCHAR

STARTCHAR cns3_253F
ENCODING 9535
SWIDTH 960 0
DWIDTH 24 0
BBX 24 24 0 -2
BITMAP
1C1800
181802
181BFF
183007
183006
182006
1A6606
FF4606
188606
188C06
184C06
186806
183806
181006
183006
182006
184806
184406
1E9E06
F9E706
608306
00000E
0000FC
000018
ENDCHAR

STARTCHAR cns3_2540
ENCODING 9536
SWIDTH 960 0
DWIDTH 24 0
BBX 24 24 0 -2
BITMAP
1C001C
1810FE
181F80
181800
181800
181800
181800
191804
FF9BFE
18180E
181A0C
181A0C
181B18
181918
1819B0
1819A0
1830E0
1BB0C0
1E20E0
F821B0
E04318
40860E
000C07
003002
ENDCHAR

STARTCHAR cns3_2541
ENCODING 9537
SWIDTH 960 0
DWIDTH 24 0
BBX 24 24 0 -2
BITMAP
001C00
001800
001818
001878
FF9CE0
019F80
019B00
0318C0
061860
0C1830
18181C
30180F
C01806
01F800
003000
001800
001800
001830
1FFFF8
001800
001800
001800
001806
FFFFFF
ENDCHAR

STARTCHAR cns3_2542
ENCODING 9538
SWIDTH 960 0
DWIDTH 24 0
BBX 24 24 0 -2
BITMAP
000078
041FE0
07F800
061800
061840
061840
061860
0C1820
0C1830
181818
181818
30180C
60180E
801807
000000
001C00
001800
001830
1FFFF8
001800
001800
001800
001806
FFFFFF
ENDCHAR

STARTCHAR cns3_2543
ENCODING 9539
SWIDTH 960 0
DWIDTH 24 0
BBX 24 24 0 -2
BITMAP
001C00
001800
00180C
7FFFFE
001800
001810
1FFFF8
000000
000000
200002
3FFFFF
600006
600004
C38188
4303C0
030700
031C00
03F000
030010
030010
030010
030018
03FFF8
01FFF0
ENDCHAR

STARTCHAR cns3_2544
ENCODING 9540
SWIDTH 960 0
DWIDTH 24 0
BBX 24 24 0 -2
BITMAP
001C00
001800
00180C
7FFFFE
001800
001800
001810
1FFFF8
000000
000000
200002
3FFFFF
600006
600004
C0C308
40E380
00C300
00C302
018302
018302
030303
0603FF
1801FE
E00000
ENDCHAR

STARTCHAR cns3_2545
ENCODING 9541
SWIDTH 960 0
DWIDTH 24 0
BBX 24 24 0 -2
BITMAP
001C00
001800
001818
3FFFFC
001800
001800
001860
0FFFF0
000000
000000
080010
0FFFF8
0C1838
0C1830
0C1830
0FFFF0
0C0000
0C0000
180000
180000
300000
600000
400000
800000
ENDCHAR

STARTCHAR cns3_2546
ENCODING 9542
SWIDTH 960 0
DWIDTH 24 0
BBX 24 24 0 -2
BITMAP
01C000
018000
0300C0
030030
060018
0801FC
3FFF0C
1D8300
018300
030300
0303FE
0601FC
0CE000
30C010
05FFF8
078030
038060
03C0C0
067180
0C1F00
101F80
0071F0
03C03E
3E000C
ENDCHAR

STARTCHAR cns3_2547
ENCODING 9543
SWIDTH 960 0
DWIDTH 24 0
BBX 24 24 0 -2
BITMAP
001C00
001800
001800
001806
FFFFFF
001800
001830
0FFFF8
001800
001806
FFFFFF
018000
018040
1BFFE0
0700E0
0680C0
0C6180
183300
601E00
000E00
001F00
0071E0
01C0FF
1E003C
ENDCHAR

STARTCHAR cns3_2548
ENCODING 9544
SWIDTH 960 0
DWIDTH 24 0
BBX 24 24 0 -2
BITMAP
00F000
00E000
018000
260004
3FFFFE
30000E
30700C
30600C
30604C
30FFEC
30C0EC
3180CC
3341CC
34318C
301B0C
300E0C
301C0C
30700C
31C00C
37000C
30000C
3FFFFC
30000C
300000
ENDCHAR

STARTCHAR cns3_2549
ENCODING 9545
SWIDTH 960 0
DWIDTH 24 0
BBX 24 24 0 -2
BITMAP
001C00
001800
001800
003006
FFFFFF
006400
00C300
018180
0300C0
060370
0DFFBC
30000F
C00006
000000
000030
3FFFF8
007000
006000
00C040
018030
020018
3FFFFC
1F000C
000008
ENDCHAR

STARTCHAR cns3_254A
ENCODING 9546
SWIDTH 960 0
DWIDTH 24 0
BBX 24 24 0 -2
BITMAP
001C00
001800
001800
003006
FFFFFF
006400
00C300
018180
0300C0
060070
0C003C
381C1F
E0180C
001800
001818
3FFFFC
001800
011900
0398C0
071860
0C1838
18181C
60180C
001800
ENDCHAR

STARTCHAR cns3_254B
ENCODING 9547
SWIDTH 960 0
DWIDTH 24 0
BBX 24 24 0 -2
BITMAP
1C0300
180380
180180
180180
310186
FF7FFF
330000
330000
330810
630FF8
630C38
630C30
630C30
630C30
F60C30
DE0C30
0E0C32
0E1832
0F1832
19B032
19B032
306033
60C03F
80001E
ENDCHAR

STARTCHAR cns3_254C
ENCODING 9548
SWIDTH 960 0
DWIDTH 24 0
BBX 24 24 0 -2
BITMAP
1C1C70
181860
181860
181860
181860
191866
FF7FFF
331860
331860
331860
331860
631860
631866
66FFFF
661860
661860
F41860
CE3060
0B3060
196060
306060
60C060
408060
810060
ENDCHAR

STARTCHAR cns3_254D
ENCODING 9549
SWIDTH 960 0
DWIDTH 24 0
BBX 24 24 0 -2
BITMAP
0E01C0
0C0180
0C0180
0C018C
180186
188186
FFC180
198186
19BFFF
318180
318180
330300
330300
6303C0
6303C0
7B06C0
6606C0
0706C2
0D8CC2
198CC2
3018C2
2030C3
4060FF
81807E
ENDCHAR

STARTCHAR cns3_254E
ENCODING 9550
SWIDTH 960 0
DWIDTH 24 0
BBX 24 24 0 -2
BITMAP
0E0380
0C0300
0C0300
180300
180308
189FFC
FFC31C
31C318
318318
318318
318318
71831A
61BFFF
618300
630640
D30640
0E0620
060C30
0F0C18
0D981C
19D80E
30B007
606007
800003
ENDCHAR

STARTCHAR cns3_254F
ENCODING 9551
SWIDTH 960 0
DWIDTH 24 0
BBX 24 24 0 -2
BITMAP
0E0600
0C0700
0C0600
0C0600
0C8C02
FFCFFF
199807
199806
199006
19A006
318046
318FE6
318006
318006
630006
730046
6E1FE6
070006
0D8006
0CC00C
18C00C
30001C
6003F8
800070
ENDCHAR

STARTCHAR cns3_2550
ENCODING 9552
SWIDTH 960 0
DWIDTH 24 0
BBX 24 24 0 -2
BITMAP
0E0008
0C3FFC
0C0C1C
0C0C18
180C18
198C18
FFCC18
198C30
198C32
318FFF
318D07
330D06
330D06
630D8C
631C8C
7B1898
6618D8
071870
0D9860
19B0F0
303198
20230E
404607
809802
ENDCHAR

STARTCHAR cns3_2551
ENCODING 9553
SWIDTH 960 0
DWIDTH 24 0
BBX 24 24 0 -2
BITMAP
080010
0FFFF8
0C0038
0C0030
0C0030
0FFFF0
0C0030
0C0030
0C0030
0FFFF0
0C0030
00E000
00C062
FFFFFF
0180C0
030180
030300
060600
0FFE00
0C3BC0
00E0F0
038038
1C001C
E0000C
ENDCHAR

STARTCHAR cns3_2552
ENCODING 9554
SWIDTH 960 0
DWIDTH 24 0
BBX 24 24 0 -2
BITMAP
1C0804
180FFE
180C0E
180C0C
180C0C
330C0C
FFCC0C
330C0C
333FFF
630C0C
630C0C
630C0C
660C0C
C60C0C
F63FFF
DC0C0C
0E180C
1B180C
19B00C
31B00C
60600C
40C00C
8181FC
020038
ENDCHAR

STARTCHAR cns3_2553
ENCODING 9555
SWIDTH 960 0
DWIDTH 24 0
BBX 24 24 0 -2
BITMAP
001C00
001800
1C181C
181818
181818
1FFFF8
181818
001800
001806
FFFFFF
000000
00E000
00C000
01818C
FFFFFE
030180
030300
060600
0FEC00
0C3F00
0071C0
01C070
0F0038
F8001C
ENDCHAR

STARTCHAR cns3_2554
ENCODING 9556
SWIDTH 960 0
DWIDTH 24 0
BBX 24 24 0 -2
BITMAP
381000
301002
303FFF
303006
30600C
332008
FFC000
330810
330FF8
330C38
330C30
330C30
630C30
630C30
660C30
F60C30
DE0C30
0F0C32
0D8C32
18D832
189833
30103F
60201E
804000
ENDCHAR

STARTCHAR cns3_2555
ENCODING 9557
SWIDTH 960 0
DWIDTH 24 0
BBX 24 24 0 -2
BITMAP
0E00E0
0C00C0
0C00C0
1800C0
1808C2
198FFF
FFD8C7
3198C6
3190CC
3180C0
318180
318180
6181E0
6181E0
630360
F30360
CE0360
060662
0F0662
0D8C62
19CC62
309863
60107F
80203E
ENDCHAR

STARTCHAR cns3_2556
ENCODING 9558
SWIDTH 960 0
DWIDTH 24 0
BBX 24 24 0 -2
BITMAP
0E0000
0C0006
0C7FFF
0C00E0
1800C0
1880C0
FFC180
198180
198300
318720
318790
318D98
33198C
633186
636186
72C183
6E0183
060180
0F0180
198180
318180
600180
400180
800180
ENDCHAR

STARTCHAR cns3_2557
ENCODING 9559
SWIDTH 960 0
DWIDTH 24 0
BBX 24 24 0 -2
BITMAP
380030
3000F8
3003C0
301F00
300300
330300
FFC300
330318
333FFC
330300
330300
330300
630300
63030C
667FFE
F60300
5E0300
0F0302
1B8302
19C302
308303
2003FF
4001FE
800000
ENDCHAR

STARTCHAR cns3_2558
ENCODING 9560
SWIDTH 960 0
DWIDTH 24 0
BBX 24 24 0 -2
BITMAP
003000
003000
001806
FFFFFF
018180
00C300
006600
003C00
007600
01C3E0
0F00FF
F0001E
0000C0
0FFFE0
0001C0
000700
001C00
001806
FFFFFF
001800
001800
001800
01F800
003000
ENDCHAR

STARTCHAR cns3_2559
ENCODING 9561
SWIDTH 960 0
DWIDTH 24 0
BBX 24 24 0 -2
BITMAP
001C00
001800
201804
3FFFFE
60000C
E03818
C01800
000840
1FFFE0
0000E0
0000C0
0000C0
000180
000180
000300
000600
000E00
001800
107000
19C000
370000
660000
C3FFFE
01FFFC
ENDCHAR

STARTCHAR cns3_255A
ENCODING 9562
SWIDTH 960 0
DWIDTH 24 0
BBX 24 24 0 -2
BITMAP
001800
001C00
000C00
200C02
3FFFFF
600003
E00006
C03000
003800
001800
00180C
7FFFFE
000000
000000
008100
01C0C0
038060
030030
060038
0C001C
18000E
30000E
C00006
000000
ENDCHAR

STARTCHAR cns3_255B
ENCODING 9563
SWIDTH 960 0
DWIDTH 24 0
BBX 24 24 0 -2
BITMAP
003000
003800
201802
7FFFFF
600007
C00006
C00808
01C400
018600
038300
030180
0630C0
0C3870
18303C
30701F
C0600C
00C100
0180C0
030060
060060
040FF0
7FF838
3F0018
000018
ENDCHAR

STARTCHAR cns3_255C
ENCODING 9564
SWIDTH 960 0
DWIDTH 24 0
BBX 24 24 0 -2
BITMAP
18001C
1C0018
0C0018
0C0018
0C2018
FFF019
40C7FF
40C018
40C018
40C018
40C018
218418
218218
318318
130198
130198
1A0018
0E0018
0C0018
1E0018
1B0018
31C018
60F3F8
804070
ENDCHAR

STARTCHAR cns3_255D
ENCODING 9565
SWIDTH 960 0
DWIDTH 24 0
BBX 24 24 0 -2
BITMAP
003800
003000
00300C
7FFFFE
003000
003000
1FFFF8
006000
006006
FFFFFF
00C000
00C070
018060
030060
06006C
0DFFFE
380060
E04060
003060
001860
001860
000060
000FE0
0001C0
ENDCHAR

STARTCHAR cns3_255E
ENCODING 9566
SWIDTH 960 0
DWIDTH 24 0
BBX 24 24 0 -2
BITMAP
000180
000FE0
007C00
03C020
1C1810
010C18
03060C
06060C
060000
0001C0
000180
000180
00018C
7FFFFE
000180
018180
00C180
006180
006180
000180
000180
000180
003F80
000700
ENDCHAR

STARTCHAR cns3_255F
ENCODING 9567
SWIDTH 960 0
DWIDTH 24 0
BBX 24 24 0 -2
BITMAP
000000
000000
004018
FFEFFC
3180C0
3180C0
3180C0
3180C0
3180C0
3180C8
318FFC
3180C0
3180C0
3180C0
3180C0
3180C0
3180C0
3180CC
319FFE
318000
618002
618002
C1FFFF
80FFFE
ENDCHAR

STARTCHAR cns3_2560
ENCODING 9568
SWIDTH 960 0
DWIDTH 24 0
BBX 24 24 0 -2
BITMAP
1C00E0
1800C0
1800C0
1800C0
1800C0
DB98C2
DB1FFF
DB18C7
DB18C6
DB18C6
DB18C6
DB18C6
DB18C6
DB18C6
DB1FFE
DB18C6
DB00C0
DB00C0
FF00C0
C300C0
C000C0
0000C0
0000C0
0000C0
ENDCHAR

STARTCHAR cns3_2561
ENCODING 9569
SWIDTH 960 0
DWIDTH 24 0
BBX 24 24 0 -2
BITMAP
0E0804
0C0FFE
0C0C0E
0C0C0C
0C0C0C
ECEC0C
CCCC0C
CCCFFC
CCCC0C
CCCC0C
CCCC0C
CCCC0C
CCCC0C
CCCFFC
CCCC0C
CCCC0C
CCCC0C
CCD80C
FFD80C
C0D80C
C0300C
00600C
0001FC
000038
ENDCHAR

STARTCHAR cns3_2562
ENCODING 9570
SWIDTH 960 0
DWIDTH 24 0
BBX 24 24 0 -2
BITMAP
1C0040
180640
180660
180620
180C30
DB8C10
DB1818
DB180C
DB300E
DB4007
DB0008
DB3FFC
DB031C
DB0318
DB0318
DB0618
DB0618
DB0C18
FF0C18
C31818
C01818
003038
0061F0
008060
ENDCHAR

STARTCHAR cns3_2563
ENCODING 9571
SWIDTH 960 0
DWIDTH 24 0
BBX 24 24 0 -2
BITMAP
001C00
001800
1C181C
181818
181818
1FFFF8
180018
000000
100008
1FFFFC
18181C
181818
181818
181818
181818
1FFFF8
180018
180000
180000
180002
180002
180003
1FFFFF
0FFFFE
ENDCHAR

STARTCHAR cns3_2564
ENCODING 9572
SWIDTH 960 0
DWIDTH 24 0
BBX 24 24 0 -2
BITMAP
001C00
001800
1C181C
181818
181818
181818
1FFFF8
180018
003000
003800
001806
FFFFFF
030180
030180
018180
018300
00C300
006600
003C00
003C00
006700
01C1E0
0F00FF
F0001E
ENDCHAR

STARTCHAR cns3_2565
ENCODING 9573
SWIDTH 960 0
DWIDTH 24 0
BBX 24 24 0 -2
BITMAP
1C0300
180380
180380
180180
180186
187FFF
DB0818
DB0818
DB0818
DB0818
DB0818
DB0430
DB0430
DB0630
DB0220
DB0260
DB0340
DB01C0
FF0180
C303C0
C30660
000C38
00301F
004006
ENDCHAR

STARTCHAR cns3_2566
ENCODING 9574
SWIDTH 960 0
DWIDTH 24 0
BBX 24 24 0 -2
BITMAP
1C0000
180000
182006
183FFF
183000
183000
DB3000
DB3004
DB37FE
DB340E
DB320C
DB320C
DB3218
DB3118
DB3130
DB3120
DB60E0
DB60C0
FF40E0
C341B0
C38318
00060E
000C07
007002
ENDCHAR

STARTCHAR cns3_2567
ENCODING 9575
SWIDTH 960 0
DWIDTH 24 0
BBX 24 24 0 -2
BITMAP
000070
0007F8
20FF80
3F8000
300000
300006
3FFFFF
300000
300000
310008
31FFFC
31861C
318618
318618
318618
318618
31FFF8
318000
618000
618002
418002
418003
81FFFF
00FFFE
ENDCHAR

STARTCHAR cns3_2568
ENCODING 9576
SWIDTH 960 0
DWIDTH 24 0
BBX 24 24 0 -2
BITMAP
0E0060
0C0320
0C03B0
0C0310
8C4718
FFE618
CCEE0C
CCCC0E
CCD807
CCD002
CCE004
CCDFFE
CCC30E
CCC30C
CCC30C
CCC30C
CDC60C
CC860C
0C060C
0C0C0C
0C0C0C
0C1818
0C30F8
0CC030
ENDCHAR

STARTCHAR cns3_2569
ENCODING 9577
SWIDTH 960 0
DWIDTH 24 0
BBX 24 24 0 -2
BITMAP
0E00E0
0C00C0
0C01E0
0C01A0
8C4330
FFE710
CCE618
CCCC0C
CCD80E
CCD007
CCE61A
CCC718
CCC618
CCC618
CCC618
CCC618
CDC618
CC8618
0C0C18
0C0C18
0C1818
0C1818
0C1018
0C2018
ENDCHAR

STARTCHAR cns3_256A
ENCODING 9578
SWIDTH 960 0
DWIDTH 24 0
BBX 24 24 0 -2
BITMAP
001C00
001818
00189C
0FFFD8
001830
001860
0019C6
FFFFFF
000E00
003800
00E000
038E00
0E0C08
3FFFFC
E60C1C
060C18
060C18
060C18
060C18
060CF8
060C30
000C00
000C00
000C00
ENDCHAR

STARTCHAR cns3_256B
ENCODING 9579
SWIDTH 960 0
DWIDTH 24 0
BBX 24 24 0 -2
BITMAP
000700
207F80
3FF800
301800
301818
3FFFFC
301800
301C00
300704
307384
37C1C4
3E00E6
38387E
00300C
203010
3FFFF8
303038
303030
303030
303030
3033F0
3030E0
003000
003000
ENDCHAR

STARTCHAR cns3_256C
ENCODING 9580
SWIDTH 960 0
DWIDTH 24 0
BBX 24 24 0 -2
BITMAP
003000
001800
201806
3FFFFF
300000
303980
3030E0
303060
30300C
37FFFE
301800
301800
301C10
300C38
300C30
300E60
3006C0
200780
200704
600D84
4019C4
4030EC
80C07E
87001C
ENDCHAR

STARTCHAR cns3_256D
ENCODING 9581
SWIDTH 960 0
DWIDTH 24 0
BBX 24 24 0 -2
BITMAP
001800
000C00
200C0C
3FFFFE
300000
300000
300700
300600
300600
300600
300608
31FFFC
300600
300600
3006C0
300660
200630
200638
600610
400600
400600
800606
87FFFF
000000
ENDCHAR

STARTCHAR cns3_256E
ENCODING 9582
SWIDTH 960 0
DWIDTH 24 0
BBX 24 24 0 -2
BITMAP
007000
403806
7FFFFF
600000
600070
6001F8
611F00
61F000
618004
61FFFE
61800E
61800C
61800C
61FFFC
61800C
618000
630000
430000
430000
460000
860000
8C0000
080000
100000
ENDCHAR

STARTCHAR cns3_256F
ENCODING 9583
SWIDTH 960 0
DWIDTH 24 0
BBX 24 24 0 -2
BITMAP
003000
003800
00180E
7FFFFF
003000
006000
00C0C0
018030
030018
0607EC
1FFE0E
0C0004
000000
00C1C0
00C180
00C186
FFFFFF
018180
018180
030180
030180
060180
180180
600180
ENDCHAR

STARTCHAR cns3_2570
ENCODING 9584
SWIDTH 960 0
DWIDTH 24 0
BBX 24 24 0 -2
BITMAP
008300
FFC380
01C300
018300
018306
41BFFF
7F8300
618300
600300
600638
C00630
C08630
FFC630
C1CC60
018C60
018CC0
0188C8
019884
019186
019106
03A21B
072FE3
7E4703
0C4000
ENDCHAR

STARTCHAR cns3_2571
ENCODING 9585
SWIDTH 960 0
DWIDTH 24 0
BBX 24 24 0 -2
BITMAP
008700
FFC600
01C600
018C00
018C04
419FFE
7F9987
619186
60218C
602188
C00180
C08340
FFC340
C1C340
018360
018660
018660
018630
018C30
018C30
039818
07301C
7E600F
0C8006
ENDCHAR

STARTCHAR cns3_2572
ENCODING 9586
SWIDTH 960 0
DWIDTH 24 0
BBX 24 24 0 -2
BITMAP
060000
070006
070006
03000C
030C18
FFFE30
1030C0
103102
103003
103007
10300E
086018
086030
0C60C0
044100
04C002
068007
03800E
030018
078030
0CC0C0
187800
603FFF
8007FC
ENDCHAR

STARTCHAR cns3_2573
ENCODING 9587
SWIDTH 960 0
DWIDTH 24 0
BBX 24 24 0 -2
BITMAP
1C0000
180000
180100
1800C0
180060
1C0070
5A0030
5B0720
5B0600
D90600
982600
982608
182604
186606
186603
186603
18C603
18C601
18C604
180604
180604
180606
1807FE
1803FC
ENDCHAR

STARTCHAR cns3_2574
ENCODING 9588
SWIDTH 960 0
DWIDTH 24 0
BBX 24 24 0 -2
BITMAP
1C0380
180320
180318
18030C
18030C
1C0300
5A0306
5B7FFF
5B0300
D90300
9803E0
9803C0
1803C0
1806C0
1806C0
1806C0
180CC0
180CC0
180CC2
1818C2
1818C2
1830C3
1860FF
18807E
ENDCHAR

STARTCHAR cns3_2575
ENCODING 9589
SWIDTH 960 0
DWIDTH 24 0
BBX 24 24 0 -2
BITMAP
1C1C00
181800
181806
183FFF
183000
1C2000
5A2018
5B5FFC
5B4000
D90000
980008
981FFC
18001C
180038
180060
1801C0
180300
180E00
181802
183002
186002
186003
187FFF
183FFE
ENDCHAR

STARTCHAR cns3_2576
ENCODING 9590
SWIDTH 960 0
DWIDTH 24 0
BBX 24 24 0 -2
BITMAP
1C0100
1801C0
180180
180340
180360
180630
5E0C30
5B1818
5B300E
D96007
98C003
990739
180630
180630
180630
180630
180C30
180C30
180C30
181830
181830
183030
186030
188030
ENDCHAR

STARTCHAR cns3_2577
ENCODING 9591
SWIDTH 960 0
DWIDTH 24 0
BBX 24 24 0 -2
BITMAP
001C00
001C00
000C00
20080E
3FFFFE
300000
300000
300000
300200
303300
303980
3038D8
3030CE
3130C6
313042
313002
213000
233010
633010
673018
463038
463FF0
C01FE0
800000
ENDCHAR

STARTCHAR cns3_2578
ENCODING 9592
SWIDTH 960 0
DWIDTH 24 0
BBX 24 24 0 -2
BITMAP
0003F0
007F80
1FF800
001800
001800
00180C
7FFFFE
001800
001800
001800
001800
001800
001800
000000
002000
039800
130C20
130E18
33040C
33004E
630043
E30063
43FFE0
01FFC0
ENDCHAR

STARTCHAR cns3_2579
ENCODING 9593
SWIDTH 960 0
DWIDTH 24 0
BBX 24 24 0 -2
BITMAP
1C0000
180180
1801C0
1800C0
1800C6
1C3FFF
5A0300
5B0300
5B0300
D90302
9803FF
980307
180306
180306
180306
180606
180606
180606
180C06
180C06
18180C
18301C
1861F8
198070
ENDCHAR

STARTCHAR cns3_257A
ENCODING 9594
SWIDTH 960 0
DWIDTH 24 0
BBX 24 24 0 -2
BITMAP
1C0300
180380
180180
180180
180186
1C7FFF
5A0000
5B0000
5B1010
D91FF8
981838
981830
181830
181830
181830
181830
181832
183032
183032
186032
186032
18C033
19803F
1A001E
ENDCHAR

STARTCHAR cns3_257B
ENCODING 9595
SWIDTH 960 0
DWIDTH 24 0
BBX 24 24 0 -2
BITMAP
1C0300
180380
180380
180180
180186
1C7FFF
5A0818
5B0818
5B0818
D90818
980818
980430
180430
180630
180220
180260
180340
1801C0
180180
1803C0
180660
180C38
18301F
184006
ENDCHAR

STARTCHAR cns3_257C
ENCODING 9596
SWIDTH 960 0
DWIDTH 24 0
BBX 24 24 0 -2
BITMAP
1C0004
183FFE
18000E
18001C
181830
1C0660
5A0380
5B0180
5B0102
D97FFF
980186
98018E
18018C
180198
180180
180180
180180
180180
180180
180180
180180
180180
181F80
180700
ENDCHAR

STARTCHAR cns3_257D
ENCODING 9597
SWIDTH 960 0
DWIDTH 24 0
BBX 24 24 0 -2
BITMAP
1C0000
180018
181FFC
180000
180000
1C0000
5A0000
5B0000
5B0006
D97FFF
980180
980180
180180
180380
180300
180310
180618
18060C
180406
180C06
18083E
187FC3
187C03
182003
ENDCHAR

STARTCHAR cns3_257E
ENCODING 9598
SWIDTH 960 0
DWIDTH 24 0
BBX 24 24 0 -2
BITMAP
1C01C0
180198
18018C
180186
180184
1C0180
5A0182
5B3FFF
5B0180
D90180
980180
980340
180340
180340
180640
180620
180620
180C30
180C18
181818
18180C
18300C
182007
184002
ENDCHAR

STARTCHAR cns3_2621
ENCODING 9761
SWIDTH 960 0
DWIDTH 24 0
BBX 24 24 0 -2
BITMAP
1C0380
180300
180300
180300
180300
1C0304
5E030E
5AFFFF
5B0300
D90300
D80300
980300
180300
180680
180680
1806C0
180640
180C60
180E30
181B38
18199C
18310E
18600F
198006
ENDCHAR

STARTCHAR cns3_2622
ENCODING 9762
SWIDTH 960 0
DWIDTH 24 0
BBX 24 24 0 -2
BITMAP
1C0700
180600
180600
180620
187FF0
1A0670
5A0660
5B0662
598C62
D90C62
D81863
98307F
18C03E
180380
180300
180300
180306
19FFFF
180300
180300
180300
180300
180300
180300
ENDCHAR

STARTCHAR cns3_2623
ENCODING 9763
SWIDTH 960 0
DWIDTH 24 0
BBX 24 24 0 -2
BITMAP
1C0000
180038
1801FC
183F80
180180
1C0180
5A0180
5B0180
5B0180
D90180
980184
98018E
187FFF
180180
180180
180180
180180
180180
180180
180180
180180
18018C
183FFE
180000
ENDCHAR

STARTCHAR cns3_2624
ENCODING 9764
SWIDTH 960 0
DWIDTH 24 0
BBX 24 24 0 -2
BITMAP
1C0020
180620
180610
180610
180C18
1C0808
5A180C
5B1006
5B3007
D92003
984000
983FFE
18030E
18030C
18030C
18060C
18060C
180C0C
180C0C
18180C
181818
183018
1861F8
188070
ENDCHAR

STARTCHAR cns3_2625
ENCODING 9765
SWIDTH 960 0
DWIDTH 24 0
BBX 24 24 0 -2
BITMAP
000730
000618
000618
000602
FFFFFF
000600
000600
000606
202307
3FF306
30730C
30630C
306198
306198
3061B0
3061E0
3FE0E0
3060C2
3001E2
000362
000632
001C3B
00701F
03C00E
ENDCHAR

STARTCHAR cns3_2626
ENCODING 9766
SWIDTH 960 0
DWIDTH 24 0
BBX 24 24 0 -2
BITMAP
000730
000618
000600
000602
FFFFFF
000600
000600
070606
060307
060306
0C030C
0C830C
0C4198
186198
10F1B0
7F31E0
3820E0
0000C2
0071E2
078362
FE0632
700C3B
00301F
01C00E
ENDCHAR

STARTCHAR cns3_2627
ENCODING 9767
SWIDTH 960 0
DWIDTH 24 0
BBX 24 24 0 -2
BITMAP
000740
000630
000618
000610
200606
3FFFFF
300600
300600
300618
30261C
3FF618
318318
318330
318330
318360
3181E0
3181C0
6181C2
618362
4F8662
430C32
80183B
80301F
01C00E
ENDCHAR

STARTCHAR cns3_2628
ENCODING 9768
SWIDTH 960 0
DWIDTH 24 0
BBX 24 24 0 -2
BITMAP
0001E0
20FFF8
3FF000
300008
3FFFFC
30001C
300018
300018
3FFFF8
300018
300E00
300C00
300C00
300C04
37FFFE
300C00
301C00
301A00
203300
606180
40C0C0
4180F0
87007E
9C0038
ENDCHAR

STARTCHAR cns3_2629
ENCODING 9769
SWIDTH 960 0
DWIDTH 24 0
BBX 24 24 0 -2
BITMAP
000000
00240C
3FE7FE
006600
006600
006600
006600
206604
3FE7FE
30660E
30660C
30660C
30660C
30660C
30660C
3FE7FC
30660C
006600
006600
00C600
00C600
018600
030600
0C0600
ENDCHAR

STARTCHAR cns3_262A
ENCODING 9770
SWIDTH 960 0
DWIDTH 24 0
BBX 24 24 0 -2
BITMAP
0E0000
0C000C
0C7FFE
0C0180
0C0180
0D0180
FF8180
0C0180
0C0180
0C0180
0C018C
0C3FFE
0C0180
0F0180
FC0180
6C0180
0C0180
0C0180
0C0180
0C0180
0C0180
0C0186
7C7FFF
180000
ENDCHAR

STARTCHAR cns3_262B
ENCODING 9771
SWIDTH 960 0
DWIDTH 24 0
BBX 24 24 0 -2
BITMAP
0E0004
0C3FFE
0C0C30
0C0C30
0C8C30
FFCC30
0C1830
0C1830
0C1836
0C1FFF
0C0070
0FC0F0
FC00F0
6C01B0
0C01B0
0C0330
0C0330
0C0630
0C0C30
0C1830
0C2030
0C0030
FC03F0
380060
ENDCHAR

STARTCHAR cns3_262C
ENCODING 9772
SWIDTH 960 0
DWIDTH 24 0
BBX 24 24 0 -2
BITMAP
0E01C0
0C0198
0C018C
0C0186
0C0184
0D0180
FF8182
0C3FFF
0C0180
0C0180
0C0180
0C0340
0C0340
0F0340
FC0620
6C0620
0C0630
0C0C30
0C0C18
0C1818
0C180C
0C300E
7C2007
184002
ENDCHAR

STARTCHAR cns3_262D
ENCODING 9773
SWIDTH 960 0
DWIDTH 24 0
BBX 24 24 0 -2
BITMAP
0E0038
0C00FC
0C07E0
0C3F00
0C8300
7FC300
0C0300
0C0318
0C3FFC
0C0300
0C0300
0C0300
0F8300
FC030C
6C7FFE
0C0300
0C0300
0C0302
0C0302
0C0302
0C0303
0C03FF
7C01FE
180000
ENDCHAR

STARTCHAR cns3_262E
ENCODING 9774
SWIDTH 960 0
DWIDTH 24 0
BBX 24 24 0 -2
BITMAP
0E0E00
0C0C0E
0C0C0C
0C0C0C
0C0C0C
0C0C0C
7F8C0C
0C0FFC
0C0C0C
0C0C00
0C0C00
0D8C04
1F0FFE
7C0C0E
6C0C0C
0C0C0C
0C0C0C
0C180C
0C180C
0C180C
0C100C
0C300C
7C200C
18400C
ENDCHAR

STARTCHAR cns3_262F
ENCODING 9775
SWIDTH 960 0
DWIDTH 24 0
BBX 24 24 0 -2
BITMAP
0E0000
0C0180
0C00C0
0C0060
0C0070
0D0030
FF8000
0C0380
0C0300
0C0300
0C0308
0C1304
0C1306
0F1303
FC3303
6C3303
0C6300
0C6300
0C6308
0C0308
0C0308
0C030C
FC03FC
3801F8
ENDCHAR

STARTCHAR cns3_2630
ENCODING 9776
SWIDTH 960 0
DWIDTH 24 0
BBX 24 24 0 -2
BITMAP
0E0000
0C0180
0C01C0
0C00C0
0C00C6
0D3FFF
FF8300
0C0300
0C0300
0C0302
0C03FF
0C0307
0C0306
0F0306
FC0306
6C0606
0C0606
0C0606
0C0C06
0C0C06
0C180C
0C301C
FC61F8
398070
ENDCHAR

STARTCHAR cns3_2631
ENCODING 9777
SWIDTH 960 0
DWIDTH 24 0
BBX 24 24 0 -2
BITMAP
0E0000
0C2004
0C3FFE
0C300E
0C300C
0C300C
0D300C
FFB00C
0C3FFC
0C310C
0C3100
0C3080
0C3080
0F30C0
7C30C0
6C3060
0C6060
0C6030
0C6030
0CC018
0CC01C
0C800F
7D8006
190000
ENDCHAR

STARTCHAR cns3_2632
ENCODING 9778
SWIDTH 960 0
DWIDTH 24 0
BBX 24 24 0 -2
BITMAP
0E1004
0C1FFE
0C180E
0C180C
0C180C
0D180C
FF980C
0C18FC
0C1818
0C1800
0C1804
0C1FFE
0C1A0E
0F1A0C
FC190C
6C1918
0C1898
0C18F0
0C1860
0C18F0
0C18B8
0C191C
FC1A0F
381806
ENDCHAR

STARTCHAR cns3_2633
ENCODING 9779
SWIDTH 960 0
DWIDTH 24 0
BBX 24 24 0 -2
BITMAP
1C7038
186030
186030
186030
186030
1A6032
FE64FF
19FE37
186E36
186C36
186C36
1B6C66
3C6C66
F86C66
D86CC6
186CC6
18CD8E
18CE3C
18CC08
198C01
198C01
190C03
FA0FFF
3207FE
ENDCHAR

STARTCHAR cns3_2634
ENCODING 9780
SWIDTH 960 0
DWIDTH 24 0
BBX 24 24 0 -2
BITMAP
0E0600
0C0700
0C0600
0C0600
0C0606
0D7FFF
FF8600
0C0600
0C0600
0C0604
0C07FE
0C0C0E
0C0C0C
0F0D0C
FC0D18
6C1898
0C18B0
0C18E0
0C3060
0C30F0
0C21B8
0C431C
FC8C0F
383004
ENDCHAR

STARTCHAR cns3_2635
ENCODING 9781
SWIDTH 960 0
DWIDTH 24 0
BBX 24 24 0 -2
BITMAP
1C0038
1801FE
183F80
180180
180180
1A0180
FF0180
180184
187FFE
180180
180180
1B0180
3C0180
F80186
D8FFFF
180180
180180
180180
180180
180180
180180
180180
F81F80
300700
ENDCHAR

STARTCHAR cns3_2636
ENCODING 9782
SWIDTH 960 0
DWIDTH 24 0
BBX 24 24 0 -2
BITMAP
1C009C
1803D8
181F18
187618
180618
1A0618
FF0618
180618
180618
180618
180619
18FFFF
1E0618
F80618
D80C18
180C18
180C18
181818
181818
183018
183018
186018
784018
308018
ENDCHAR

STARTCHAR cns3_2637
ENCODING 9783
SWIDTH 960 0
DWIDTH 24 0
BBX 24 24 0 -2
BITMAP
1C1C00
181800
181800
183001
183FFF
186003
FE6003
18C383
188303
190303
180203
1A0603
3C0603
F80443
D80C43
180863
181063
187FB3
183833
180006
180006
18000C
F80078
300030
ENDCHAR

STARTCHAR cns3_2638
ENCODING 9784
SWIDTH 960 0
DWIDTH 24 0
BBX 24 24 0 -2
BITMAP
1C1C00
181800
181802
1831FF
183007
1A3006
FF6606
186606
18C606
198C06
18CC06
1B6C06
1C3806
F81806
D83006
183006
186406
184606
188F06
1BF306
198306
18000E
F8007C
300018
ENDCHAR

STARTCHAR cns3_2639
ENCODING 9785
SWIDTH 960 0
DWIDTH 24 0
BBX 24 24 0 -2
BITMAP
1C0380
180300
180300
180680
180640
1A0C60
FF1830
18301C
18600F
188006
180000
180C00
1E0380
F800E0
D80070
180030
180000
180000
181C00
180700
1801C0
180070
780038
300018
ENDCHAR

STARTCHAR cns3_263A
ENCODING 9786
SWIDTH 960 0
DWIDTH 24 0
BBX 24 24 0 -2
BITMAP
010700
7F8600
0C0600
0C0600
0C0600
0C0C06
0C0FFF
0D8C18
FFDA18
0C1218
0C2218
0C0218
0C0130
0C0130
0C00B0
0C00E0
0C00C0
0C00E0
0C01B0
0C0318
0C061C
0C0C0E
7C1807
186002
ENDCHAR

STARTCHAR cns3_263B
ENCODING 9787
SWIDTH 960 0
DWIDTH 24 0
BBX 24 24 0 -2
BITMAP
003000
003800
001806
FFFFFF
018180
00C300
006600
003C00
007600
01C3E0
0F00FF
F01C1E
001800
001860
0FFFF0
001800
001800
001818
3FFFFC
001800
001800
001800
001800
001800
ENDCHAR

STARTCHAR cns3_263C
ENCODING 9788
SWIDTH 960 0
DWIDTH 24 0
BBX 24 24 0 -2
BITMAP
000700
000600
410600
7F8C00
638C06
630FFF
630800
631800
631000
633008
7F2FFC
630038
630060
6300C0
630180
630300
630600
630600
7F0C02
631802
601802
001803
000FFF
0007FE
ENDCHAR

STARTCHAR cns3_263D
ENCODING 9789
SWIDTH 960 0
DWIDTH 24 0
BBX 24 24 0 -2
BITMAP
000038
000030
408030
7FC030
61C030
618032
619FFF
618030
618030
618030
7F8030
618830
618430
618630
618330
618330
618030
618030
7F8030
618030
600030
000030
0007F0
0000E0
ENDCHAR

STARTCHAR cns3_263E
ENCODING 9790
SWIDTH 960 0
DWIDTH 24 0
BBX 24 24 0 -2
BITMAP
080010
0FFFF8
0C0038
0C0030
0C0030
0FFFF0
0C0030
0C0030
0C0030
0FFFF0
0C0020
000000
000006
FFFFFF
00C300
00C300
018300
018300
030300
030300
060300
0C0300
1803FF
6001FE
ENDCHAR

STARTCHAR cns3_263F
ENCODING 9791
SWIDTH 960 0
DWIDTH 24 0
BBX 24 24 0 -2
BITMAP
080010
0FFFF8
0C0038
0C0030
0C0030
0FFFF0
0C0030
0C0030
0C0030
0FFFF0
0C0020
000000
001C00
001800
001800
001818
001FFC
001800
001800
001800
001800
001806
FFFFFF
000000
ENDCHAR

STARTCHAR cns3_2640
ENCODING 9792
SWIDTH 960 0
DWIDTH 24 0
BBX 24 24 0 -2
BITMAP
080010
0FFFF8
0C0038
0C0030
0C0030
0FFFF0
0C0030
0C0030
0C0030
0FFFF0
0C0020
000080
07FFC0
0001C0
000300
001C00
001806
FFFFFF
001800
001800
001800
001800
01F800
007000
ENDCHAR

STARTCHAR cns3_2641
ENCODING 9793
SWIDTH 960 0
DWIDTH 24 0
BBX 24 24 0 -2
BITMAP
003810
00300C
003007
203013
3FFFF8
303038
303030
303030
3FFFF0
303030
303030
303030
3FFFF0
303000
003010
00183C
001870
000DC0
000702
000F82
0038C2
01E073
0F003F
F0000E
ENDCHAR

STARTCHAR cns3_2642
ENCODING 9794
SWIDTH 960 0
DWIDTH 24 0
BBX 24 24 0 -2
BITMAP
0E0000
0C0002
0C0FFF
0C0007
0C0006
0CC006
FFE006
0C0406
0C07FE
1C0606
1E0600
1D8600
3CCC02
2CCFFF
6C6007
4C0006
8C0006
8C0006
0C0006
0C0006
0C000C
0C001C
0C00F8
0C0030
ENDCHAR

STARTCHAR cns3_2643
ENCODING 9795
SWIDTH 960 0
DWIDTH 24 0
BBX 24 24 0 -2
BITMAP
0E00C0
0C00E0
0C00C0
0C00C0
0C80C0
FFC0C0
0C00C0
1C00C0
1C0ED0
3E0CD0
2D0CC8
6D8CCC
4CCCCC
4C8CC6
8C18C6
8C18C6
0C18C3
0C30C3
0C30C3
0C20C3
0C40C0
0C00C0
0C0FC0
0C0380
ENDCHAR

STARTCHAR cns3_2644
ENCODING 9796
SWIDTH 960 0
DWIDTH 24 0
BBX 24 24 0 -2
BITMAP
0E0018
0C003C
0C01F0
0C1F80
0C0180
0C8180
FFC180
0C0180
0C0180
1C018C
1F1FFE
3D8180
2CC180
6CC180
4C0180
CC0180
8C0180
8C0182
0C0182
0C0182
0C0183
0C0183
0C01FF
0C00FE
ENDCHAR

STARTCHAR cns3_2645
ENCODING 9797
SWIDTH 960 0
DWIDTH 24 0
BBX 24 24 0 -2
BITMAP
0E0000
0C0002
0C3FFF
0C0187
0C0186
0C8186
FF8186
0C0186
0C2186
1C1D86
1C0F86
1E0786
3F0186
2D8306
6C8306
4C8306
4C0306
8C0606
8C0606
0C0606
0C0C0E
0C0C0C
0C187C
0C3018
ENDCHAR

STARTCHAR cns3_2646
ENCODING 9798
SWIDTH 960 0
DWIDTH 24 0
BBX 24 24 0 -2
BITMAP
0E0000
0C0008
0C3FFC
0C061C
0C0618
0D0618
FF8618
0C0618
0C0618
1C0618
1E0618
1D3FD8
3D8618
2C8618
4C0618
4C0618
8C0619
0C0619
0C0619
0C0619
0C0619
0C0619
0C061F
0C060E
ENDCHAR

STARTCHAR cns3_2647
ENCODING 9799
SWIDTH 960 0
DWIDTH 24 0
BBX 24 24 0 -2
BITMAP
200004
3FFFFE
30000E
30000C
30000C
3FFFFC
300000
300700
300600
300600
30060C
37FFFE
300700
300F00
301E80
301EC0
203660
206670
60C638
43861F
4E060C
800600
800600
000600
ENDCHAR

STARTCHAR cns3_2648
ENCODING 9800
SWIDTH 960 0
DWIDTH 24 0
BBX 24 24 0 -2
BITMAP
0E001C
0C01FE
0C3F80
0C0180
0C0180
0C0180
FF8180
0C0180
0C0180
1C0186
1E7FFF
1D0180
3D8180
2C8180
4C0180
4C0180
8C0180
0C0180
0C0180
0C0180
0C0180
0C0180
0C0180
0C0180
ENDCHAR

STARTCHAR cns3_2649
ENCODING 9801
SWIDTH 960 0
DWIDTH 24 0
BBX 24 24 0 -2
BITMAP
0E0E07
0C0C06
0C0CE6
0C0CC6
0C8CC6
FFCCC6
0C0CC6
1C0CC6
1C0CC6
3E0CC6
2D0CC6
6D8CC6
4CCCC6
CC8CC6
8C0CC6
0C0CC6
0C18C6
0C18C6
0C18C6
0C10C6
0C30C6
0C3006
0C4006
0C8006
ENDCHAR

STARTCHAR cns3_264A
ENCODING 9802
SWIDTH 960 0
DWIDTH 24 0
BBX 24 24 0 -2
BITMAP
038000
070030
0FFFF8
0C0070
1980E0
30C1C0
407700
001C00
007780
01C0F0
0F003F
F81C0C
001800
001800
001818
3FFFFC
001800
019980
0318C0
061870
1C1838
38181C
30180C
001800
ENDCHAR

STARTCHAR cns3_264B
ENCODING 9803
SWIDTH 960 0
DWIDTH 24 0
BBX 24 24 0 -2
BITMAP
30001C
180018
0C1818
080618
000318
010198
610198
330018
321018
020C18
060618
040318
0C0318
0C0018
18001A
78FFFF
300018
300018
300018
180018
180018
180018
180018
180018
ENDCHAR

STARTCHAR cns3_264C
ENCODING 9804
SWIDTH 960 0
DWIDTH 24 0
BBX 24 24 0 -2
BITMAP
180010
0C7FFC
06001C
040038
00B060
008D80
C08600
610300
610102
037FFF
020307
060306
06030C
0C0310
0C0300
1C0300
780300
380300
180300
180300
0C0300
0C0300
0C3F00
0C0E00
ENDCHAR

STARTCHAR cns3_264D
ENCODING 9805
SWIDTH 960 0
DWIDTH 24 0
BBX 24 24 0 -2
BITMAP
000000
180010
0E3FF8
060C38
000C30
000C30
620C30
320C30
320C30
020C30
040C3C
047FFC
0C0C30
0C0C30
180C30
180C30
780C30
300C30
300C30
300C30
180C30
180C34
18FFFE
180000
ENDCHAR

STARTCHAR cns3_264E
ENCODING 9806
SWIDTH 960 0
DWIDTH 24 0
BBX 24 24 0 -2
BITMAP
000000
300000
180006
19FFFF
000300
000300
C00300
640300
648304
04FFFE
08C30E
08C30C
18C30C
18C30C
30C30C
30C30C
F0C30C
60C37C
60C318
600300
300300
300300
300300
300300
ENDCHAR

STARTCHAR cns3_264F
ENCODING 9807
SWIDTH 960 0
DWIDTH 24 0
BBX 24 24 0 -2
BITMAP
000700
180640
0E0630
060618
000618
010600
01060C
617FFE
330600
320600
060618
06061C
0C0618
0C0330
1C0330
1803E0
7801C0
380180
3003C2
3006C2
180C62
18183A
18601F
198006
ENDCHAR

STARTCHAR cns3_2650
ENCODING 9808
SWIDTH 960 0
DWIDTH 24 0
BBX 24 24 0 -2
BITMAP
600E00
300C00
180C00
100C00
001800
021802
C21FFF
663007
646006
044006
0C8006
080186
181FC6
180006
300006
F000C6
603FE6
600006
600006
300006
30000C
30001C
3003FC
300078
ENDCHAR

STARTCHAR cns3_2651
ENCODING 9809
SWIDTH 960 0
DWIDTH 24 0
BBX 24 24 0 -2
BITMAP
3000E0
1818C0
0C1CC0
0818C0
0118C0
0130CC
C13FFE
6220C0
6260C0
0640C0
0480C0
0C00C0
0C00C0
1800C6
187FFF
3800C0
F000C0
7000C0
3000C0
3000C0
1800C0
1800C0
1800C0
1800C0
ENDCHAR

STARTCHAR cns3_2652
ENCODING 9810
SWIDTH 960 0
DWIDTH 24 0
BBX 24 24 0 -2
BITMAP
601C00
301800
181800
103001
003FFF
026003
C26003
66C383
648303
050303
0C0203
080603
180603
180443
300C43
F00863
601063
607FB3
603833
300006
300006
30001C
3003F8
300070
ENDCHAR

STARTCHAR cns3_2653
ENCODING 9811
SWIDTH 960 0
DWIDTH 24 0
BBX 24 24 0 -2
BITMAP
300380
180300
0C0680
0806C0
010C60
010C30
C11818
62300E
626007
068022
041FF0
0C0000
0C0000
180008
183FFC
38001C
F00018
700030
300030
300030
180060
180060
1800C0
180180
ENDCHAR

STARTCHAR cns3_2654
ENCODING 9812
SWIDTH 960 0
DWIDTH 24 0
BBX 24 24 0 -2
BITMAP
006000
003000
003800
201006
3FFFFF
600006
E0000C
C01C08
001800
001810
001818
009830
7FDC60
01DC80
019A00
019B00
031980
0318C0
061870
0C183C
18181F
301806
C1F800
003000
ENDCHAR

STARTCHAR cns3_2655
ENCODING 9813
SWIDTH 960 0
DWIDTH 24 0
BBX 24 24 0 -2
BITMAP
001C00
0E1838
0C1830
0C1830
0C1830
0C1830
0FFFF0
0C0030
001C00
001800
001808
00981C
FFDC70
019EC0
019B00
031980
0318C0
061860
0C1830
18181C
30180F
C01806
01F800
003000
ENDCHAR

STARTCHAR cns3_2656
ENCODING 9814
SWIDTH 960 0
DWIDTH 24 0
BBX 24 24 0 -2
BITMAP
003004
303FFE
1C300E
0C300C
00300C
00300C
02300C
C2300C
663FFC
64320C
0C3200
0C3300
183300
183180
383180
307180
F060C0
7060C0
60C060
60C070
318038
31001C
32000F
340006
ENDCHAR

STARTCHAR cns3_2657
ENCODING 9815
SWIDTH 960 0
DWIDTH 24 0
BBX 24 24 0 -2
BITMAP
600000
300038
18C037
10C036
00C036
02E066
C2D066
66D866
64CCC6
04C6C6
0CC386
08C386
18C3C6
18C6E6
30C676
F0CC3E
60C81E
60D01E
60D00E
30E006
30C006
30FFFE
30C006
30C000
ENDCHAR

STARTCHAR cns3_2658
ENCODING 9816
SWIDTH 960 0
DWIDTH 24 0
BBX 24 24 0 -2
BITMAP
000E00
300C00
1C0C00
0C1C00
001800
001806
023FFF
C23818
666818
644818
0C8838
0D0C30
180430
180460
380660
3002C0
F003C0
700180
6003C0
6006E0
300C70
30183C
30601F
318006
ENDCHAR

STARTCHAR cns3_2659
ENCODING 9817
SWIDTH 960 0
DWIDTH 24 0
BBX 24 24 0 -2
BITMAP
301020
181FF0
0C1870
081860
001860
021860
C23060
643060
646060
08407F
09803E
180000
180008
30FFFC
301018
701030
F00860
600CC0
600780
600700
300D80
3018F0
30703F
33C00E
ENDCHAR

STARTCHAR cns3_265A
ENCODING 9818
SWIDTH 960 0
DWIDTH 24 0
BBX 24 24 0 -2
BITMAP
000E00
300C00
1C0C00
0C1C00
00180C
013FFE
03330C
C2630C
664318
648310
0C0300
0C0380
180780
180680
3806C0
300CC0
F00C60
701860
601830
603030
306018
30C01C
31800F
360006
ENDCHAR

STARTCHAR cns3_265B
ENCODING 9819
SWIDTH 960 0
DWIDTH 24 0
BBX 24 24 0 -2
BITMAP
000018
60007C
3803C0
184E00
007800
046002
047FFF
C46007
686006
686006
086006
186006
106006
307FFE
306006
306000
70C000
F0C000
60C000
618000
618000
330000
320000
300000
ENDCHAR

STARTCHAR cns3_265C
ENCODING 9820
SWIDTH 960 0
DWIDTH 24 0
BBX 24 24 0 -2
BITMAP
000030
6001F8
384740
187C40
006040
006640
026640
626660
326660
366620
046630
0C6630
0C6630
186630
186618
306618
F0C618
60C618
60C60C
71860C
31860E
310606
320607
320606
ENDCHAR

STARTCHAR cns3_265D
ENCODING 9821
SWIDTH 960 0
DWIDTH 24 0
BBX 24 24 0 -2
BITMAP
300020
180620
0C0720
080630
010630
010C10
C10C18
621818
62180C
06300E
046187
0C8182
0C0380
180300
180300
380610
F00608
700C0C
300C06
301806
18107F
187FC3
183803
180000
ENDCHAR

STARTCHAR cns3_265E
ENCODING 9822
SWIDTH 960 0
DWIDTH 24 0
BBX 24 24 0 -2
BITMAP
0E0018
0C003C
0C01F0
0C1F80
0D8180
4D8180
4D0180
4F0180
6E0180
6C018C
6C3FFE
0C0180
0C0180
0C0180
0C0180
1C0180
1A0180
1B0182
318182
318182
200183
400183
4001FF
8000FE
ENDCHAR

STARTCHAR cns3_265F
ENCODING 9823
SWIDTH 960 0
DWIDTH 24 0
BBX 24 24 0 -2
BITMAP
001C00
041818
061838
063430
073460
036680
006300
00C300
018180
0300E0
060078
18001F
E00006
00C1C0
00C180
00C186
FFFFFF
00C180
018180
018180
030180
060180
180180
600180
ENDCHAR

STARTCHAR cns3_2660
ENCODING 9824
SWIDTH 960 0
DWIDTH 24 0
BBX 24 24 0 -2
BITMAP
003000
003800
101802
3FFFFF
300007
300006
70000C
201C08
001800
001800
011818
01181C
031830
061860
0E34C0
0C3500
006300
006180
00C180
00C0C0
0180E0
030070
06003C
38001F
ENDCHAR

STARTCHAR cns3_2661
ENCODING 9825
SWIDTH 960 0
DWIDTH 24 0
BBX 24 24 0 -2
BITMAP
0E0380
0C0300
0C0300
0C0300
0D8300
4D8302
4D03FF
4F0607
6E0606
6C0606
6C0606
0C0D86
0C0CCC
0C186C
0C107C
1C2038
1A0018
1B0030
318030
318060
2000C0
400180
400700
803800
ENDCHAR

STARTCHAR cns3_2662
ENCODING 9826
SWIDTH 960 0
DWIDTH 24 0
BBX 24 24 0 -2
BITMAP
000020
1FFFF0
000070
000066
FFFFFF
000060
000060
1FFFE0
000060
000000
003800
003000
183070
0E30F8
0731C0
033700
003000
006800
006400
00C600
018380
0700F0
1C007F
F0001C
ENDCHAR

STARTCHAR cns3_2663
ENCODING 9827
SWIDTH 960 0
DWIDTH 24 0
BBX 24 24 0 -2
BITMAP
001C00
001800
001818
3FFFFC
001800
001800
001800
001806
FFFFFF
000000
001C00
001800
0C1838
07187C
0398E0
019B80
001800
003400
003200
006300
00C1C0
038078
0E003F
78000C
ENDCHAR

STARTCHAR cns3_2664
ENCODING 9828
SWIDTH 960 0
DWIDTH 24 0
BBX 24 24 0 -2
BITMAP
0E0000
0C0300
6C0380
6C0380
4C8180
7F8180
4C0186
CCFFFF
8C3000
8C3000
0C3000
0DB000
0E3000
1C3000
FC3000
EC3000
0C3000
0C3000
0C3000
0C3000
0C3000
0C3FFF
0C1FFE
0C0000
ENDCHAR

STARTCHAR cns3_2665
ENCODING 9829
SWIDTH 960 0
DWIDTH 24 0
BBX 24 24 0 -2
BITMAP
0E0000
0C000C
6C1FFE
6C00C0
6C00C0
4D00C0
7F80C0
CC00C0
8C00C0
8C00C0
0C00C6
0C3FFF
0C80C0
1F00C0
FC00C0
EC00C0
0C00C0
0C00C0
0C00C0
0C00C0
0C00C0
0C00C0
0C00C0
0C00C0
ENDCHAR

STARTCHAR cns3_2666
ENCODING 9830
SWIDTH 960 0
DWIDTH 24 0
BBX 24 24 0 -2
BITMAP
000180
800180
430180
230186
167FFF
1C0180
380180
6C0180
862184
0E3FFE
0F318E
1B318C
1B318C
33318C
23318C
43318C
83318C
03318C
0331BC
033198
060180
0E0180
7C0180
180180
ENDCHAR

STARTCHAR cns3_2667
ENCODING 9831
SWIDTH 960 0
DWIDTH 24 0
BBX 24 24 0 -2
BITMAP
0C0070
8E0660
4CFF60
580660
380660
300C60
701060
981860
181860
0C1860
1C1F60
1DFC60
36D860
661860
861860
061860
061862
061862
061862
061862
0C1863
1C187F
F8F83E
303000
ENDCHAR

STARTCHAR cns3_2668
ENCODING 9832
SWIDTH 960 0
DWIDTH 24 0
BBX 24 24 0 -2
BITMAP
0001C0
800180
410180
230180
160180
1C0180
380186
6C7FFF
860380
0E03C0
0F07C0
1B07A0
130DB0
330D90
231998
43198C
83318E
032187
034182
060180
0E0180
7C0180
180180
000180
ENDCHAR

STARTCHAR cns3_2669
ENCODING 9833
SWIDTH 960 0
DWIDTH 24 0
BBX 24 24 0 -2
BITMAP
0101C0
838180
630180
36018C
1C0186
180186
1C0180
340186
663FFF
860180
070180
0F0180
0F0380
1B03C0
1B03C0
3306C0
6306C0
8306C0
030CC0
030CC2
0318C2
0730C3
7E60FF
1C807E
ENDCHAR

STARTCHAR cns3_266A
ENCODING 9834
SWIDTH 960 0
DWIDTH 24 0
BBX 24 24 0 -2
BITMAP
060380
870320
660318
3C030C
1C030C
180300
3C0306
6CFFFF
860300
060300
060300
0F0680
1B0680
3306C0
630640
830C40
030C60
030C20
031830
031818
06301C
0E600E
7CC007
1B0002
ENDCHAR

STARTCHAR cns3_266B
ENCODING 9835
SWIDTH 960 0
DWIDTH 24 0
BBX 24 24 0 -2
BITMAP
0381C0
018198
01818C
818186
418184
618180
318182
19BFFF
1D8180
0D8180
018180
018340
018340
078340
0D8640
398620
E18620
C18C30
018C18
019818
01980C
01B00C
01A007
01C002
ENDCHAR

STARTCHAR cns3_266C
ENCODING 9836
SWIDTH 960 0
DWIDTH 24 0
BBX 24 24 0 -2
BITMAP
000380
838300
630338
3603FC
1C7F00
1C0300
380300
6C731C
866318
066318
036318
076318
0F6318
1B6318
336318
637FF8
836318
030302
030302
030302
030303
070303
3E03FF
0C01FE
ENDCHAR

STARTCHAR cns3_266D
ENCODING 9837
SWIDTH 960 0
DWIDTH 24 0
BBX 24 24 0 -2
BITMAP
010000
83801C
6310FE
361F80
1C1800
181800
1C1800
341800
661800
861806
071FFF
0F1830
0F1830
1B1830
131830
333030
633030
833030
032030
036030
034030
06C030
7E8030
1C8030
ENDCHAR

STARTCHAR cns3_266E
ENCODING 9838
SWIDTH 960 0
DWIDTH 24 0
BBX 24 24 0 -2
BITMAP
000000
030004
FFBFFE
18000E
18000C
18000C
18000C
18000C
18000C
19100C
FF9FFC
18180C
181800
181800
181800
181800
181800
181802
181802
1F1802
F81803
601FFF
000FFE
000000
ENDCHAR

STARTCHAR cns3_266F
ENCODING 9839
SWIDTH 960 0
DWIDTH 24 0
BBX 24 24 0 -2
BITMAP
000004
011FFE
FF8007
180006
18000C
180018
180030
1800E0
1800C0
1900C0
FF80C0
1800C6
183FFF
1800C0
1800C0
1800C0
1800C0
1800C0
1B80C0
FE00C0
7000C0
0000C0
000FC0
000380
ENDCHAR

STARTCHAR cns3_2670
ENCODING 9840
SWIDTH 960 0
DWIDTH 24 0
BBX 24 24 0 -2
BITMAP
000000
01000C
FFBFFE
180000
180000
180000
180006
187FFF
180C00
190C00
FF9800
181802
181FFF
180007
180006
180006
180006
180006
1B0006
FC000C
70000C
000038
0007F0
0001C0
ENDCHAR

STARTCHAR cns3_2671
ENCODING 9841
SWIDTH 960 0
DWIDTH 24 0
BBX 24 24 0 -2
BITMAP
000000
010008
FFBFFC
18061C
180618
180618
180618
180618
180618
190618
FF8618
181E18
180E18
180718
1807D8
180699
180619
180619
1B0C19
FE0C19
701819
003019
00601F
00800E
ENDCHAR

STARTCHAR cns3_2672
ENCODING 9842
SWIDTH 960 0
DWIDTH 24 0
BBX 24 24 0 -2
BITMAP
0000E0
8010C0
FFF8C0
C638C0
C630C0
C630C0
C630C0
C630C0
C630C0
C630E0
C630E0
FFF1A0
C631A0
C631A0
C63190
C63190
C63190
C63318
C63308
FFF30C
C03606
C00607
000403
000802
ENDCHAR

STARTCHAR cns3_2673
ENCODING 9843
SWIDTH 960 0
DWIDTH 24 0
BBX 24 24 0 -2
BITMAP
000C00
100606
1FFFFF
180000
180000
980040
D9FFE0
7860E0
5860C0
1860C0
186180
186188
3863FC
78631C
D86018
986018
186018
10C018
30C018
218018
218018
430038
4401F0
000060
ENDCHAR

STARTCHAR cns3_2674
ENCODING 9844
SWIDTH 960 0
DWIDTH 24 0
BBX 24 24 0 -2
BITMAP
007000
006000
10C008
1FFFFC
18001C
18001C
180018
1FFFF8
180018
180018
180018
1FFFF8
180018
000000
0E0000
0C0030
0C01F8
0C3F00
0FE000
0C0004
0C0004
0C0006
0FFFFE
07FFFC
ENDCHAR

STARTCHAR cns3_2675
ENCODING 9845
SWIDTH 960 0
DWIDTH 24 0
BBX 24 24 0 -2
BITMAP
007000
006000
10C008
1FFFFC
18001C
180018
180018
1FFFF8
180018
180018
180018
1FFFF8
180018
007000
006000
006000
00C000
00C080
018060
030030
0603F8
7FFE1C
3E000C
000008
ENDCHAR

STARTCHAR cns3_2676
ENCODING 9846
SWIDTH 960 0
DWIDTH 24 0
BBX 24 24 0 -2
BITMAP
00E000
00C000
018000
130008
1FFFFC
18001C
180018
180018
1FFFF8
180018
180018
180018
1FFFF8
18C318
00C300
00C300
018300
018302
030302
030302
060303
0C03FF
1801FE
600000
ENDCHAR

STARTCHAR cns3_2677
ENCODING 9847
SWIDTH 960 0
DWIDTH 24 0
BBX 24 24 0 -2
BITMAP
001C00
001800
001800
001800
001E00
001980
0018C0
001860
001870
001830
001830
001800
001800
001800
100010
1FFFF8
18C638
18C630
18C630
18C630
18C630
18C636
FFFFFF
000000
ENDCHAR

STARTCHAR cns3_2678
ENCODING 9848
SWIDTH 960 0
DWIDTH 24 0
BBX 24 24 0 -2
BITMAP
000040
1FFFE0
0180E0
0180C0
0180C2
0181FF
018187
018006
018006
030006
030006
06000E
0C007C
300018
000000
100010
1FFFF8
18C638
18C630
18C630
18C630
18C632
FFFFFF
000000
ENDCHAR

STARTCHAR cns3_2679
ENCODING 9849
SWIDTH 960 0
DWIDTH 24 0
BBX 24 24 0 -2
BITMAP
000000
608006
7FDFFF
61C300
618300
618300
618600
618600
7F8C02
618FFF
618C07
618006
618006
618006
7F8006
618006
618006
618006
618006
61800C
7F800C
61801C
6003F8
000070
ENDCHAR

STARTCHAR cns3_267A
ENCODING 9850
SWIDTH 960 0
DWIDTH 24 0
BBX 24 24 0 -2
BITMAP
000E00
000C00
018C00
FFCC00
180C00
180C00
180C00
180C0C
180C1E
308C70
3FCFC0
31DC00
718C00
718C00
718C00
F18C00
B18C00
B18C02
318C02
3F8C02
318C02
300C03
000FFF
0007FE
ENDCHAR

STARTCHAR cns3_267B
ENCODING 9851
SWIDTH 960 0
DWIDTH 24 0
BBX 24 24 0 -2
BITMAP
000000
00000E
033FFF
FF8060
180060
180060
180060
180060
180060
308060
3FC060
31C060
718060
718060
718060
B18060
B18060
B18060
318060
3F8060
318060
300060
0007E0
0001C0
ENDCHAR

STARTCHAR cns3_267C
ENCODING 9852
SWIDTH 960 0
DWIDTH 24 0
BBX 24 24 0 -2
BITMAP
000007
006006
7FF1C6
0C0186
0C0186
0C0186
0C0186
0C0186
180186
182186
1FF186
387186
386186
786186
586186
586186
986186
986186
186186
1FE006
186006
180006
0000FE
00001C
ENDCHAR

STARTCHAR cns3_267D
ENCODING 9853
SWIDTH 960 0
DWIDTH 24 0
BBX 24 24 0 -2
BITMAP
060000
1F0010
F83FF8
180C38
180C30
1A0C30
FF0C30
180C60
180C62
380C7F
380C67
3C0C06
7A0C06
7B1806
D91806
981806
981806
183006
183006
183006
186006
18600C
18C1FC
190078
ENDCHAR

STARTCHAR cns3_267E
ENCODING 9854
SWIDTH 960 0
DWIDTH 24 0
BBX 24 24 0 -2
BITMAP
180000
1C0810
0C0FF8
0C8C38
FFCC30
000C30
000C30
038C30
430C30
430C30
230C30
220C30
320C30
320C30
340C30
240C30
04CC30
0F1830
FC1832
701032
003032
002033
00403F
00001E
ENDCHAR

STARTCHAR cns3_2721
ENCODING 10017
SWIDTH 960 0
DWIDTH 24 0
BBX 24 24 0 -2
BITMAP
1800E0
1C00C0
0C00C0
0C80C0
FFC0C0
0000C0
4100C0
4180C0
2180C6
219FFF
2180C0
3300C0
3300C0
3200C0
3200C0
2400C0
2400C0
0000C0
0780C0
FC00C0
7000C0
0000C0
0000C0
0000C0
ENDCHAR

STARTCHAR cns3_2722
ENCODING 10018
SWIDTH 960 0
DWIDTH 24 0
BBX 24 24 0 -2
BITMAP
000380
060300
0C0300
180300
300300
60C300
C0C300
618300
330300
1E0300
0C0300
180300
308300
60C300
FFC300
E06300
006302
000302
488302
488302
CCC302
CCE303
8C43FF
0001FE
ENDCHAR

STARTCHAR cns3_2723
ENCODING 10019
SWIDTH 960 0
DWIDTH 24 0
BBX 24 24 0 -2
BITMAP
410000
7F8018
639FFC
630000
630000
630000
7B0006
6F7FFF
670600
630600
630C00
630C04
631FFE
67180E
6F000C
7B000C
63000C
63000C
63000C
43001C
430018
830038
8F03F0
060060
ENDCHAR

STARTCHAR cns3_2724
ENCODING 10020
SWIDTH 960 0
DWIDTH 24 0
BBX 24 24 0 -2
BITMAP
410600
7F8700
638600
630C00
630C02
631FFF
733007
7B2006
6F4006
630006
630806
630606
630306
6F0386
7B0186
730106
630006
630006
630006
63000E
43000C
43001C
8F01F8
860070
ENDCHAR

STARTCHAR cns3_2725
ENCODING 10021
SWIDTH 960 0
DWIDTH 24 0
BBX 24 24 0 -2
BITMAP
410700
7F8600
638600
630600
630600
630600
7B0618
6F7FFF
630C18
630C18
630C18
630C18
631830
6F1830
7B1830
633060
633E60
6333C0
6300E0
4301B0
43031C
C3060E
9F1C06
867000
ENDCHAR

STARTCHAR cns3_2726
ENCODING 10022
SWIDTH 960 0
DWIDTH 24 0
BBX 24 24 0 -2
BITMAP
4100E0
7F80C0
6380C0
631CC0
6318C0
6318C2
7B18CF
6F19F7
671EC6
6378C6
6318C6
6318CC
6318CC
6718C8
6F18D0
7B18C0
6318C0
6318C0
6318C0
4318C2
431802
C31803
9F1FFF
860FFE
ENDCHAR

STARTCHAR cns3_2727
ENCODING 10023
SWIDTH 960 0
DWIDTH 24 0
BBX 24 24 0 -2
BITMAP
070070
060060
064064
7FE7FE
060060
060060
001C00
001800
001800
001800
001800
061880
071860
0E1830
0C1818
18180C
30180E
601807
801803
001800
001800
001800
07F800
007000
ENDCHAR

STARTCHAR cns3_2728
ENCODING 10024
SWIDTH 960 0
DWIDTH 24 0
BBX 24 24 0 -2
BITMAP
070070
060060
064064
7FE7FE
060060
060060
000000
000000
000010
007018
041C38
040630
020060
0300C0
018180
00C300
006600
003C00
003E00
006700
00C3C0
0380F0
0E007C
78001F
ENDCHAR

STARTCHAR cns3_2729
ENCODING 10025
SWIDTH 960 0
DWIDTH 24 0
BBX 24 24 0 -2
BITMAP
070070
060060
064066
FFE7FF
060060
060060
000010
1FFFF8
000000
000000
000006
FFFFFF
030000
030000
060010
0FFFF8
0C0038
000030
000030
000060
0000E0
0001C0
007F80
000700
ENDCHAR

STARTCHAR cns3_272A
ENCODING 10026
SWIDTH 960 0
DWIDTH 24 0
BBX 24 24 0 -2
BITMAP
070070
060060
064064
7FE7FE
060060
060060
060060
000000
000008
1FFFFC
00001C
000018
180018
180018
180018
1FFFF8
180018
180000
180000
180002
180002
180003
1FFFFF
0FFFFE
ENDCHAR

STARTCHAR cns3_272B
ENCODING 10027
SWIDTH 960 0
DWIDTH 24 0
BBX 24 24 0 -2
BITMAP
070070
060060
064066
FFE7FF
060060
060060
00E000
00C000
018010
01FFF8
030038
060030
0D8060
18C060
6070C0
003180
001300
000600
000C00
001800
006000
01C000
070000
780000
ENDCHAR

STARTCHAR cns3_272C
ENCODING 10028
SWIDTH 960 0
DWIDTH 24 0
BBX 24 24 0 -2
BITMAP
070070
060060
064064
7FE7FE
060060
060060
000000
038000
030000
030010
07FFF8
060038
0C0030
0D0060
1900C0
208180
004300
006600
003C00
003C00
006700
01C3C0
0F00FE
780038
ENDCHAR

STARTCHAR cns3_272D
ENCODING 10029
SWIDTH 960 0
DWIDTH 24 0
BBX 24 24 0 -2
BITMAP
0E0380
0C0300
0C0300
0C0300
0C0300
8C4300
FFE300
CCE300
CCC300
CCC300
CCC300
CCC300
CCC300
FFC300
CC0300
0C0300
0D0302
0C8302
0DC302
1E6302
F84302
E00303
0003FF
0001FE
ENDCHAR

STARTCHAR cns3_272E
ENCODING 10030
SWIDTH 960 0
DWIDTH 24 0
BBX 24 24 0 -2
BITMAP
0001F0
007FFC
1FF800
001800
001800
001800
201804
3FFFFE
30180E
30180C
30180C
30180C
30180C
3FFFFC
30180C
301800
001980
001860
001838
00181C
001FFE
7FFC07
7F8003
200003
ENDCHAR

STARTCHAR cns3_272F
ENCODING 10031
SWIDTH 960 0
DWIDTH 24 0
BBX 24 24 0 -2
BITMAP
000C00
001E00
00F000
078180
3803C0
001E00
01F018
3E007C
0007C0
007C00
07D800
7C1800
001800
001800
061800
061818
0C1FFC
0C1800
1A1800
1B1800
31D800
60F800
403FFF
800FFE
ENDCHAR

STARTCHAR cns3_2730
ENCODING 10032
SWIDTH 960 0
DWIDTH 24 0
BBX 24 24 0 -2
BITMAP
000600
600700
300600
180600
100600
00060C
01FFFE
080600
FC0600
1C0D00
180D00
180D80
301880
6018C0
303060
183070
186038
18C01E
1B0008
100000
3C0000
670000
E3FFFF
40FFFE
ENDCHAR

STARTCHAR cns3_2731
ENCODING 10033
SWIDTH 960 0
DWIDTH 24 0
BBX 24 24 0 -2
BITMAP
000000
400070
300060
180060
0C0060
080066
007FFF
040060
FE0060
0E0060
0C0060
0C1060
180860
300C60
180660
0C0660
0C0060
0C0060
0C0060
0807E0
1C01C0
330000
E1FFFF
407FFC
ENDCHAR

STARTCHAR cns3_2732
ENCODING 10034
SWIDTH 960 0
DWIDTH 24 0
BBX 24 24 0 -2
BITMAP
000000
400004
301FFE
18000E
0C000C
080018
000030
0400C0
FE00C0
0E00C6
0CFFFF
0C00C0
1800C0
3000C0
1800C0
0C00C0
0C00C0
0C00C0
0C00C0
080FC0
1C0380
330000
E1FFFF
407FFC
ENDCHAR

STARTCHAR cns3_2733
ENCODING 10035
SWIDTH 960 0
DWIDTH 24 0
BBX 24 24 0 -2
BITMAP
00001C
0001FE
603F80
300180
180180
180180
000180
040180
FE0186
0E7FFF
0C0180
0C0180
180180
300180
180180
0C0180
0C0180
0C0180
0C0180
180180
140180
360000
E3FFFF
40FFFE
ENDCHAR

STARTCHAR cns3_2734
ENCODING 10036
SWIDTH 960 0
DWIDTH 24 0
BBX 24 24 0 -2
BITMAP
070082
0600FF
0600C3
0608C3
061CC3
861CC6
C618C6
E630CC
6630D8
6660C6
0600C3
0700C3
0700C3
0700C3
0D00C3
0D80C7
0D80FE
18C0CC
18C0C0
3060C0
3070C0
6038C0
403CC0
8010C0
ENDCHAR

STARTCHAR cns3_2735
ENCODING 10037
SWIDTH 960 0
DWIDTH 24 0
BBX 24 24 0 -2
BITMAP
006000
23F204
3E03FE
30030E
30030C
300318
302318
3FF330
318360
318318
31830C
31830C
318306
318306
318306
318306
21830E
61837C
618318
418300
C18300
818300
818300
018300
ENDCHAR

STARTCHAR cns3_2736
ENCODING 10038
SWIDTH 960 0
DWIDTH 24 0
BBX 24 24 0 -2
BITMAP
000182
0001FF
006187
3FF186
00018C
00018C
000188
000190
0019A0
FFFD98
06018C
060186
0E0186
0C0183
0C0183
184183
186183
103187
3039BE
20F98C
FF1980
F01980
400180
000180
ENDCHAR

STARTCHAR cns3_2737
ENCODING 10039
SWIDTH 960 0
DWIDTH 24 0
BBX 24 24 0 -2
BITMAP
038000
030102
0301FF
030187
030186
03318C
7FF98C
030198
0701B0
07818C
078186
0F4186
0F6183
1B2183
1B3183
331983
631D87
8309BE
03018C
030180
030180
030180
030180
030180
ENDCHAR

STARTCHAR cns3_2738
ENCODING 10040
SWIDTH 960 0
DWIDTH 24 0
BBX 24 24 0 -2
BITMAP
201106
3FF9FF
303986
303186
34318C
36318C
333188
333190
303188
30358C
FFFF86
303186
303183
303183
303183
303183
303183
303187
6031BE
60318C
603180
403180
C1F180
806180
ENDCHAR

STARTCHAR cns3_2739
ENCODING 10041
SWIDTH 960 0
DWIDTH 24 0
BBX 24 24 0 -2
BITMAP
070182
0601FF
060187
063186
FFF98C
06018C
060188
060190
E639A0
C63198
C6318C
C63186
C63186
C63183
FFF183
C63183
060183
060187
0601BE
06098C
060980
060D80
07FD80
03F980
ENDCHAR

STARTCHAR cns3_273A
ENCODING 10042
SWIDTH 960 0
DWIDTH 24 0
BBX 24 24 0 -2
BITMAP
410070
7F8060
631860
660E60
640660
680060
6C0060
661860
660C60
630660
630660
630060
630060
660062
7CFFFF
680060
600060
600060
600060
600060
600060
600060
600060
600060
ENDCHAR

STARTCHAR cns3_273B
ENCODING 10043
SWIDTH 960 0
DWIDTH 24 0
BBX 24 24 0 -2
BITMAP
820380
FF0300
C30300
C60300
C64306
CC630E
C8331C
C43B18
C61B30
C61B40
C30300
C30300
C30680
C30680
C70680
DE0CC0
CC0C40
C01860
C01860
C03030
C03038
C0601C
C0C01F
C3000C
ENDCHAR

STARTCHAR cns3_273C
ENCODING 10044
SWIDTH 960 0
DWIDTH 24 0
BBX 24 24 0 -2
BITMAP
820000
FF0006
C37FFF
C600E0
C600C0
C400C0
C80180
C80180
C40300
C603A0
C60790
C30D98
C3198C
C33186
C34187
C70183
DE0180
CC0180
C00180
C00180
C00180
C00180
C00180
C00180
ENDCHAR

STARTCHAR cns3_273D
ENCODING 10045
SWIDTH 960 0
DWIDTH 24 0
BBX 24 24 0 -2
BITMAP
408000
7FD002
61DFFF
619807
619806
631806
631806
661806
681806
661806
631806
639FFE
619806
619806
619806
619806
639806
6F1806
661806
601806
601FFE
601806
601800
600000
ENDCHAR

STARTCHAR cns3_273E
ENCODING 10046
SWIDTH 960 0
DWIDTH 24 0
BBX 24 24 0 -2
BITMAP
409004
7FDFFE
63980E
63180C
66180C
6C180C
68180C
641FFC
66180C
63180C
63980C
61980C
61980C
619FFC
63980C
6F180C
62180C
60300C
60300C
60600C
60600C
60C00C
6180FC
620038
ENDCHAR

STARTCHAR cns3_273F
ENCODING 10047
SWIDTH 960 0
DWIDTH 24 0
BBX 24 24 0 -2
BITMAP
820338
FF0FB0
C37C30
C60C30
C60C30
CC0C30
C80C30
CC0C30
C60C30
C60C30
C30C32
C37FFF
C30C30
C30C30
C70C30
DE1830
C41830
C01830
C03030
C03030
C06030
C0C030
C18030
C20030
ENDCHAR

STARTCHAR cns3_2740
ENCODING 10048
SWIDTH 960 0
DWIDTH 24 0
BBX 24 24 0 -2
BITMAP
000000
00C006
FFE7FF
000000
000000
000000
804402
FFE7FF
C0E607
C0C606
C0C606
D0C686
C8C646
CCC666
C6C636
C6C636
C4C626
C0C606
C0C606
C0C606
C0C606
C7C63E
C1860C
000000
ENDCHAR

STARTCHAR cns3_2741
ENCODING 10049
SWIDTH 960 0
DWIDTH 24 0
BBX 24 24 0 -2
BITMAP
002002
FFF7FF
007007
00C00C
638338
1C00C0
0E0060
070070
022022
FFF7FF
063063
066066
064064
068068
060060
060060
060060
060060
060060
060060
060060
060060
3E07E0
0C00C0
ENDCHAR

STARTCHAR cns3_2742
ENCODING 10050
SWIDTH 960 0
DWIDTH 24 0
BBX 24 24 0 -2
BITMAP
006000
007000
00C180
0180C0
070FE0
7FFC30
3F0038
000010
000000
0E01C0
0C0180
0D8198
18C306
33633B
FE6FE3
602602
000000
000000
000060
0FFFF0
000000
000000
00000C
7FFFFE
ENDCHAR

STARTCHAR cns3_2743
ENCODING 10051
SWIDTH 960 0
DWIDTH 24 0
BBX 24 24 0 -2
BITMAP
038380
030300
030308
067FFC
06031C
060318
0C031A
0CFFFF
180318
1C0318
3C0318
6C7FF8
8C0300
0C0300
0C030C
0C7FFE
0C0300
0C0300
0C0306
0CFFFF
0C0300
0C0300
0C0300
0C0300
ENDCHAR

STARTCHAR cns3_2744
ENCODING 10052
SWIDTH 960 0
DWIDTH 24 0
BBX 24 24 0 -2
BITMAP
01C1C0
018180
01A18C
03318E
03118C
061998
061990
0E1990
0E01A0
1E0182
163FFF
360660
260660
460660
860660
060660
060660
060C60
060C62
060C62
061862
061863
06307F
06003E
ENDCHAR

STARTCHAR cns3_2745
ENCODING 10053
SWIDTH 960 0
DWIDTH 24 0
BBX 24 24 0 -2
BITMAP
070180
060198
0601FC
0C3F80
0C0180
0C0180
180188
183FFC
180180
300180
30018C
587FFE
580380
9807C0
1807C0
180DA0
1819B0
18319C
18618F
198186
180180
180180
180180
180180
ENDCHAR

STARTCHAR cns3_2746
ENCODING 10054
SWIDTH 960 0
DWIDTH 24 0
BBX 24 24 0 -2
BITMAP
068008
06FFFC
06C01C
0CC018
0CC198
0CDFD8
18C618
18C618
18CC58
38CFF8
38CCF8
78D8D8
5890D8
58A998
988D98
998799
198319
190319
19060D
190C0D
1A180D
1A6007
1C0007
180002
ENDCHAR

STARTCHAR cns3_2747
ENCODING 10055
SWIDTH 960 0
DWIDTH 24 0
BBX 24 24 0 -2
BITMAP
060E00
070C08
061FFC
0E180C
0C3418
0C6230
0C0360
1801C0
180360
38063C
380C0F
6C30C2
4C00C0
CC00C4
0C3FFE
0C30C0
0C30C0
0C30C0
0C30C6
0C3FFF
0C00C0
0C00C0
0C00C0
0C00C0
ENDCHAR

STARTCHAR cns3_2748
ENCODING 10056
SWIDTH 960 0
DWIDTH 24 0
BBX 24 24 0 -2
BITMAP
060000
0701C0
060180
060184
0C218E
0C118C
0C1998
180D90
180DA0
380986
3CFFFE
6C0180
4C0380
8C03C0
0C07C0
0C07A0
0C0DB0
0C1998
0C319C
0C618F
0C8186
0C0180
0C0180
0C0180
ENDCHAR

STARTCHAR cns3_2749
ENCODING 10057
SWIDTH 960 0
DWIDTH 24 0
BBX 24 24 0 -2
BITMAP
0C0700
0E0600
0C0600
0C0600
18060C
1BFFFE
180600
318610
30C638
306630
784660
580640
99FFFE
980600
180600
180D00
180C80
1818C0
181860
183030
186018
18C01C
19800F
1A0006
ENDCHAR

STARTCHAR cns3_274A
ENCODING 10058
SWIDTH 960 0
DWIDTH 24 0
BBX 24 24 0 -2
BITMAP
0C0006
0EFFFF
0C0180
0C0180
182184
183FFE
18318E
30318C
30318C
30318C
78FFFF
58318C
98318C
98318C
18318D
18FFFF
18300C
18300C
18300C
18300C
18300C
18300C
18307C
183018
ENDCHAR

STARTCHAR cns3_274B
ENCODING 10059
SWIDTH 960 0
DWIDTH 24 0
BBX 24 24 0 -2
BITMAP
0C0018
0EFFFC
0C0CC0
0C0CC0
180CC0
180CC0
180CC0
308CC4
30FFFE
30CCCE
78CCCC
58CCCC
98CCCC
98CCCC
18CCCC
18CCCC
18CCCC
18CCCC
18CCCC
18CCCC
18FFFC
18C00C
180000
180000
ENDCHAR

STARTCHAR cns3_274C
ENCODING 10060
SWIDTH 960 0
DWIDTH 24 0
BBX 24 24 0 -2
BITMAP
0C0E00
0E0C00
0C0C00
1C0C06
19FFFF
181800
181800
303008
3033FC
706018
706018
586030
D8E060
98E060
196066
186FFF
186060
186060
186060
186060
186060
186060
1863E0
1860C0
ENDCHAR

STARTCHAR cns3_274D
ENCODING 10061
SWIDTH 960 0
DWIDTH 24 0
BBX 24 24 0 -2
BITMAP
062004
063FFE
06300E
0C300C
0C300C
0C300C
18300C
18300C
183FFC
30300C
300000
700000
580000
984002
987FFF
186007
186006
186006
186006
186006
186006
187FFE
186006
186000
ENDCHAR

STARTCHAR cns3_274E
ENCODING 10062
SWIDTH 960 0
DWIDTH 24 0
BBX 24 24 0 -2
BITMAP
064004
067FFE
06600E
0C600C
0C600C
0C600C
18600C
18600C
187FFC
30600C
300000
70318C
58318C
98318C
986318
186318
18C630
198C60
18C630
186318
186318
18318C
18318C
18318C
ENDCHAR

STARTCHAR cns3_274F
ENCODING 10063
SWIDTH 960 0
DWIDTH 24 0
BBX 24 24 0 -2
BITMAP
070700
060600
060600
0C0C08
0C0FFC
0C181C
181818
183430
384630
2C0360
6C02C0
4C0180
8C0300
0C0604
0C1FFE
0C3C0E
0CCC0C
0C0C0C
0C0C0C
0C0C0C
0C0C0C
0C0FFC
0C0C0C
0C0C00
ENDCHAR

STARTCHAR cns3_2750
ENCODING 10064
SWIDTH 960 0
DWIDTH 24 0
BBX 24 24 0 -2
BITMAP
060180
0701C0
060300
0C0200
0C4404
0C7FFE
18600E
18600C
18600C
30600C
307FFC
58600C
58600C
98600C
18600C
187FFC
18600C
18600C
18600C
18600C
187FFC
18600C
18600C
180000
ENDCHAR

STARTCHAR cns3_2751
ENCODING 10065
SWIDTH 960 0
DWIDTH 24 0
BBX 24 24 0 -2
BITMAP
003800
003000
006400
00C300
0180C0
070078
1DFF9F
F0000C
000040
07FFE0
0000C0
0000C0
000190
0FFFF8
000000
000004
1FFFFE
00E000
00C0C0
018030
010018
0200FC
1FFF0C
0F000C
ENDCHAR

STARTCHAR cns3_2752
ENCODING 10066
SWIDTH 960 0
DWIDTH 24 0
BBX 24 24 0 -2
BITMAP
003000
003804
00180E
7FFFFF
008100
01C080
038060
070030
0C001C
38E00F
E0C186
018060
030030
0607D8
1FFE1C
0CC608
00C600
018602
018602
030602
030602
060603
1C07FF
F003FE
ENDCHAR

STARTCHAR cns3_2753
ENCODING 10067
SWIDTH 960 0
DWIDTH 24 0
BBX 24 24 0 -2
BITMAP
000008
1FFFFC
00301C
003018
006018
01C1F8
0F0030
000008
1FFFFC
18181C
181818
181818
181818
181818
1FFFF8
183618
003680
006662
006672
00C632
018623
070603
1C07FF
F003FE
ENDCHAR

STARTCHAR cns3_2754
ENCODING 10068
SWIDTH 960 0
DWIDTH 24 0
BBX 24 24 0 -2
BITMAP
040020
07FFF0
060070
060060
060060
07FFE0
060060
060060
060060
07FFE0
060060
060060
060060
07FFE0
060060
000000
000006
FFFFFF
018180
038060
070038
0C001C
18000E
600006
ENDCHAR

STARTCHAR cns3_2755
ENCODING 10069
SWIDTH 960 0
DWIDTH 24 0
BBX 24 24 0 -2
BITMAP
200004
3FFFFE
30000E
30000C
3FFFFC
30000C
30000C
3FFFFC
30000C
000000
080010
0FFFF8
0C0038
0C0030
0FFFF0
0C0030
0C0030
0FFFF0
0C0030
0C0030
180030
180030
3007F0
4000E0
ENDCHAR

STARTCHAR cns3_2756
ENCODING 10070
SWIDTH 960 0
DWIDTH 24 0
BBX 24 24 0 -2
BITMAP
003870
603060
303060
183060
183060
003064
01FFFE
043060
043060
043060
0C3060
083060
183060
183066
33FFFF
300000
F01000
6018C0
603830
60301C
30600E
30C007
318003
360003
ENDCHAR

STARTCHAR cns3_2757
ENCODING 10071
SWIDTH 960 0
DWIDTH 24 0
BBX 24 24 0 -2
BITMAP
008002
20FFFF
30C007
18C006
18C006
00C026
00DFF6
00C006
04C006
04C826
04CFE6
08CC66
18CC66
18CC66
38CC66
30CC66
F0CFE6
70CC66
60CC06
60C006
30C006
30C006
30C03E
30C00C
ENDCHAR

STARTCHAR cns3_2758
ENCODING 10072
SWIDTH 960 0
DWIDTH 24 0
BBX 24 24 0 -2
BITMAP
0003C0
3001C0
180360
0C0660
090630
010C18
01181C
023007
024002
061FF8
040180
0C0180
0C0180
180180
180188
381FFC
F00180
700180
300180
300180
180180
180186
187FFF
180000
ENDCHAR

STARTCHAR cns3_2759
ENCODING 10073
SWIDTH 960 0
DWIDTH 24 0
BBX 24 24 0 -2
BITMAP
0E0018
0CFFFC
180300
180300
300300
300302
73FFFF
580300
980300
980300
180300
18030C
19FFFE
180000
020080
03FFC0
0301C0
030180
030180
030180
060182
0C0182
1801FF
6000FE
ENDCHAR

STARTCHAR cns3_275A
ENCODING 10074
SWIDTH 960 0
DWIDTH 24 0
BBX 24 24 0 -2
BITMAP
000060
0FFFF0
0000E0
000380
000E00
001800
001800
701807
601816
601BF6
685836
6FD836
6CDA26
6CDA26
6CD9E6
6CD8C6
6CD8E6
6FD8A6
6059B6
601B1E
60FA16
607006
7FFFFE
600006
ENDCHAR

STARTCHAR cns3_275B
ENCODING 10075
SWIDTH 960 0
DWIDTH 24 0
BBX 24 24 0 -2
BITMAP
000007
001806
FFFCE6
0000C6
0000C6
4008C6
7FFCC6
601CC6
6018C6
6018C6
6018C6
7FF8C6
6018C6
6018C6
6018C6
6018C6
6018C6
7FF8C6
6018C6
000006
000006
007C06
FFC0FE
78001C
ENDCHAR

STARTCHAR cns3_275C
ENCODING 10076
SWIDTH 960 0
DWIDTH 24 0
BBX 24 24 0 -2
BITMAP
000007
003006
FDF9C6
18C186
18C186
18C186
18C186
18C186
18C186
18C986
FDFD86
18C186
18C186
18C186
18C186
18C186
18C186
18C186
30C186
20C006
60C006
40C006
80C07E
00C01C
ENDCHAR

STARTCHAR cns3_275D
ENCODING 10077
SWIDTH 960 0
DWIDTH 24 0
BBX 24 24 0 -2
BITMAP
070002
060FFF
060187
062186
7FF186
060186
060186
060586
060386
063186
FFF9C6
0E01E6
0C01B6
0C019E
18818E
184307
104307
306306
20E606
FF3606
F00C0C
00181C
0031F8
00C070
ENDCHAR

STARTCHAR cns3_275E
ENCODING 10078
SWIDTH 960 0
DWIDTH 24 0
BBX 24 24 0 -2
BITMAP
001007
7FF806
0C3006
0C30E6
0C64C6
0C7EC6
180CC6
180CC6
301CC6
C078C6
0390C6
0300C6
030CC6
FFFEC6
0300C6
0780C6
0760C6
0F30C6
1B18C6
330C06
C30C06
030006
03007E
03000C
ENDCHAR

STARTCHAR cns3_275F
ENCODING 10079
SWIDTH 960 0
DWIDTH 24 0
BBX 24 24 0 -2
BITMAP
003807
387006
06E006
0380E6
03C0C6
0E60C6
3830C6
E020C6
0380C6
0300C6
0318C6
FFFCC6
0300C6
0760C6
0F60C6
0F60C6
1B60C6
1B60C6
337CC6
633806
C30006
030006
03007E
03000C
ENDCHAR

STARTCHAR cns3_2760
ENCODING 10080
SWIDTH 960 0
DWIDTH 24 0
BBX 24 24 0 -2
BITMAP
0C00E0
0E00C0
0630C0
FFF8C0
00C0C0
1860C0
1830C2
301BFF
2098C7
70C0C6
90C0C6
18C0C6
0D80C6
0D80C6
0700C6
0300C6
038186
068186
06C186
0C6306
18720E
30320C
60247C
800818
ENDCHAR

STARTCHAR cns3_2761
ENCODING 10081
SWIDTH 960 0
DWIDTH 24 0
BBX 24 24 0 -2
BITMAP
003800
0830E0
0E31C0
063180
063300
026418
3FFFFC
006400
006600
00C306
FFFFFF
018180
0300E0
063870
0C303C
30304F
CFFFE6
0030E0
0060C0
0060C0
00C0C0
0181C0
031F80
0C0300
ENDCHAR

STARTCHAR cns3_2762
ENCODING 10082
SWIDTH 960 0
DWIDTH 24 0
BBX 24 24 0 -2
BITMAP
0701C0
060180
060180
064188
7FEFFC
06019C
060198
07C198
7F0799
3601D9
060359
06020D
3E040F
0C0006
003800
003008
3FFFFC
00601C
006018
00C018
018018
030038
0C07F0
7000E0
ENDCHAR

STARTCHAR cns3_2763
ENCODING 10083
SWIDTH 960 0
DWIDTH 24 0
BBX 24 24 0 -2
BITMAP
080020
040030
020070
030060
0180C0
01C180
008200
100008
1FFFFC
18181C
181818
181818
1FFFF8
181818
181818
181818
1FFFF8
001800
001806
FFFFFF
001800
001800
001800
001800
ENDCHAR

STARTCHAR cns3_2764
ENCODING 10084
SWIDTH 960 0
DWIDTH 24 0
BBX 24 24 0 -2
BITMAP
001C00
001818
001FFC
001800
001800
201804
3FFFFE
30000E
30000C
30000C
31008C
31FFCC
3181CC
31818C
31818C
31818C
31818C
31FF8C
31818C
30000C
30000C
3FFFFC
30000C
300000
ENDCHAR

STARTCHAR cns3_2765
ENCODING 10085
SWIDTH 960 0
DWIDTH 24 0
BBX 24 24 0 -2
BITMAP
070102
0621FF
0FF187
187186
306186
6CE186
86C186
018186
030186
060186
0C0186
3B0186
E61186
0FF986
183986
303186
4C7186
066186
06C1BE
01818C
030180
060180
1C0180
F00180
ENDCHAR

STARTCHAR cns3_2766
ENCODING 10086
SWIDTH 960 0
DWIDTH 24 0
BBX 24 24 0 -2
BITMAP
3FFFF8
0000E0
000300
001C00
FF1838
0618E0
061B00
0C18C0
181870
30181F
60180E
003000
3FFFFC
000000
000080
07FFC0
0301C0
030180
030180
030F88
030308
03000C
03FFFC
01FFF8
ENDCHAR

STARTCHAR cns3_2767
ENCODING 10087
SWIDTH 960 0
DWIDTH 24 0
BBX 24 24 0 -2
BITMAP
000000
200006
3FFFFF
300000
300700
300600
300600
300618
33FFFC
300600
300600
300600
300606
37FFFF
300000
300700
300600
200618
63FFFC
400600
400600
800600
800606
07FFFF
ENDCHAR

STARTCHAR cns3_2768
ENCODING 10088
SWIDTH 960 0
DWIDTH 24 0
BBX 24 24 0 -2
BITMAP
100006
1FFFFF
180000
180600
180300
180306
19FFFF
181800
181800
181A0C
18320E
183218
187330
186140
18E100
19E180
3160C0
3260C0
306060
206170
20663C
406C1F
40780C
003000
ENDCHAR

STARTCHAR cns3_2769
ENCODING 10089
SWIDTH 960 0
DWIDTH 24 0
BBX 24 24 0 -2
BITMAP
006000
00E000
01C180
030060
0603B8
7FFC1C
3E600C
006000
00C006
FFFFFF
030100
060180
0C00E0
180038
30006F
DFFFF6
000000
000000
0000C0
0FFFE0
000000
000000
000006
FFFFFF
ENDCHAR

STARTCHAR cns3_276A
ENCODING 10090
SWIDTH 960 0
DWIDTH 24 0
BBX 24 24 0 -2
BITMAP
006000
00E000
01C180
030060
0603B8
7FFC1C
3E600C
006000
00C006
FFFFFF
030100
060180
0C04E0
180E38
303C0F
C1E086
1F01C0
000F00
007810
1FC038
0001E0
000F00
01F800
3F0000
ENDCHAR

STARTCHAR cns3_276B
ENCODING 10091
SWIDTH 960 0
DWIDTH 24 0
BBX 24 24 0 -2
BITMAP
000000
00600C
7FF3FE
006006
70C00C
1D838C
0700D8
078070
1CE0DC
F04187
000600
00200C
7FF3FE
00600C
20620C
10C218
18C118
0D81B0
0700B0
0700E0
0D80F0
18E19C
30470F
C01C02
ENDCHAR

STARTCHAR cns3_276C
ENCODING 10092
SWIDTH 960 0
DWIDTH 24 0
BBX 24 24 0 -2
BITMAP
003000
003800
001818
3FFFFC
000000
040040
0200E0
0300C0
018180
018300
01040C
7FFFFE
000000
000000
080020
0FFFF0
0C0070
0C0060
0C0060
0C0060
0C0060
0C0060
0FFFE0
0C0060
ENDCHAR

STARTCHAR cns3_276D
ENCODING 10093
SWIDTH 960 0
DWIDTH 24 0
BBX 24 24 0 -2
BITMAP
000600
000700
000300
000300
00030C
827FFE
FF0000
C70018
C6401C
C64018
C62018
C63030
C61030
C61830
C61830
C60860
C60C60
C60C60
FE0C40
C60CC0
C00080
000106
00FFFF
000000
ENDCHAR

STARTCHAR cns3_276E
ENCODING 10094
SWIDTH 960 0
DWIDTH 24 0
BBX 24 24 0 -2
BITMAP
000000
000600
820380
FF01C0
C70086
C67FFF
C601C0
C60380
C60700
C60600
C60C30
C61838
C63870
C60C60
C606C0
C603C0
C60180
FE0310
C6060C
C00C06
00107E
007FC3
007E03
003002
ENDCHAR

STARTCHAR cns3_276F
ENCODING 10095
SWIDTH 960 0
DWIDTH 24 0
BBX 24 24 0 -2
BITMAP
00000C
00FFFE
821800
FF1800
C71800
C61800
C61808
C61FFC
C6181C
C61818
C61818
C61818
C61C18
C63630
C63730
C63330
C63230
C63032
FE6062
C66162
C06662
00F862
01C07F
00003E
ENDCHAR

STARTCHAR cns3_2770
ENCODING 10096
SWIDTH 960 0
DWIDTH 24 0
BBX 24 24 0 -2
BITMAP
000380
000300
820300
FF0300
C74308
C67FFC
C6631C
C66318
C66318
C66318
C66318
C66318
C6631A
C6FFFF
C60300
C60700
FE0640
C60E30
C00C18
00180C
003006
006007
018003
060002
ENDCHAR

STARTCHAR cns3_2771
ENCODING 10097
SWIDTH 960 0
DWIDTH 24 0
BBX 24 24 0 -2
BITMAP
0001C0
000180
001980
001980
811980
FF998C
C39FFE
C33180
C33180
C32180
C34180
C30186
C33FFF
C30180
C30180
C30340
C30340
FF0360
C30630
C00638
000C1C
00180E
003007
00C002
ENDCHAR

STARTCHAR cns3_2772
ENCODING 10098
SWIDTH 960 0
DWIDTH 24 0
BBX 24 24 0 -2
BITMAP
080010
0FFFF8
0C0038
0C0030
0C0030
0FFFF0
0C1820
001800
101808
1FFFFC
18181C
181818
181818
1FFFF8
181818
181818
181818
1FFFF8
181800
001802
001802
001803
001FFF
000FFE
ENDCHAR

STARTCHAR cns3_2773
ENCODING 10099
SWIDTH 960 0
DWIDTH 24 0
BBX 24 24 0 -2
BITMAP
001800
000600
000380
000180
810000
FF8080
C3BFC0
C301C0
C30186
C30186
C301CC
C37DD8
C30DA0
C30DA0
C319A0
C319B0
C31190
C33198
FF218C
C36186
C04187
008182
001F80
000700
ENDCHAR

STARTCHAR cns3_2774
ENCODING 10100
SWIDTH 960 0
DWIDTH 24 0
BBX 24 24 0 -2
BITMAP
000000
000008
003FFC
820000
FF0000
C70000
C60000
C60006
C6FFFF
C60180
C60180
C60180
C60180
C609A0
C61D90
C61998
C6318C
C6318E
FE6187
C64183
C08182
000180
000180
000180
ENDCHAR

STARTCHAR cns3_2775
ENCODING 10101
SWIDTH 960 0
DWIDTH 24 0
BBX 24 24 0 -2
BITMAP
001C00
001800
0019CE
81198C
FF998C
C3998C
C3198C
C3198C
C3198D
C37FFF
C3198C
C3198C
C3198C
C3198C
C3198C
C3198C
C319FC
C3198C
C31800
C31800
FF1800
C31806
C01FFF
001800
ENDCHAR

STARTCHAR cns3_2776
ENCODING 10102
SWIDTH 960 0
DWIDTH 24 0
BBX 24 24 0 -2
BITMAP
404404
7FE7FE
60C60E
60C60C
60C60C
60C60C
7FC7FC
60000C
000000
000018
3FFFFC
006000
006000
00C000
00C010
01FFF8
018038
000030
000030
000060
000060
0000E0
001FC0
000380
ENDCHAR

STARTCHAR cns3_2777
ENCODING 10103
SWIDTH 960 0
DWIDTH 24 0
BBX 24 24 0 -2
BITMAP
0001C0
000180
000180
C18198
FF81FC
C18180
C18180
C18180
C18186
C19FFF
C18180
C18180
C181C0
C181B0
C1819C
C1818E
C18187
C18183
FF8180
C18180
C00180
000180
000180
000180
ENDCHAR

STARTCHAR cns3_2778
ENCODING 10104
SWIDTH 960 0
DWIDTH 24 0
BBX 24 24 0 -2
BITMAP
000000
002004
003FFE
C1300E
FFB00C
C3B00C
C3300C
C3300C
C3300C
C3300C
C33FFC
C30060
C30760
C30660
C30660
C30660
C30660
C30660
FF0C62
C30C62
C01862
001863
00307F
00403E
ENDCHAR

STARTCHAR cns3_2779
ENCODING 10105
SWIDTH 960 0
DWIDTH 24 0
BBX 24 24 0 -2
BITMAP
00001C
0000FE
001FC0
8100C0
FF80C0
C380C0
C300C0
C300C6
C33FFF
C301C0
C301E0
C303E0
C303D0
C306D8
C306CC
C30CCE
C318C7
C360C2
FF00C0
C300C0
C000C0
0000C0
0000C0
0000C0
ENDCHAR

STARTCHAR cns3_277A
ENCODING 10106
SWIDTH 960 0
DWIDTH 24 0
BBX 24 24 0 -2
BITMAP
0000E0
0000C0
000180
811302
FF9FFF
C39807
C31806
C31806
C31806
C31806
C31806
C31806
C31FFE
C31806
C31806
C31806
C31806
C31806
C31806
FF1806
C31806
C01FFE
001806
001806
ENDCHAR

STARTCHAR cns3_277B
ENCODING 10107
SWIDTH 960 0
DWIDTH 24 0
BBX 24 24 0 -2
BITMAP
600002
7FFFFF
600007
600006
600046
67FFE6
601806
601806
601806
601806
601806
601886
63FFC6
601806
601806
601986
6018C6
601886
601866
6FFFF6
600006
600006
7FFFFE
600006
ENDCHAR

STARTCHAR cns3_277C
ENCODING 10108
SWIDTH 960 0
DWIDTH 24 0
BBX 24 24 0 -2
BITMAP
400002
7FFFFF
600007
640046
67FFE6
6600E6
6600C6
6600C6
67FFC6
6618C6
661806
661866
67FFF6
661806
660C06
660C06
660606
666626
6783A6
6701F6
620066
600006
7FFFFE
600006
ENDCHAR

STARTCHAR cns3_277D
ENCODING 10109
SWIDTH 960 0
DWIDTH 24 0
BBX 24 24 0 -2
BITMAP
400002
7FFFFF
600007
600006
600046
67FFE6
601806
601806
601806
601806
639806
631886
631FC6
631806
631806
631806
631806
631806
631826
6FFFF6
600006
600006
7FFFFE
600006
ENDCHAR

STARTCHAR cns3_277E
ENCODING 10110
SWIDTH 960 0
DWIDTH 24 0
BBX 24 24 0 -2
BITMAP
600002
7FFFFF
600007
600006
640026
67FFF6
661876
661866
661866
67FFE6
661866
661866
661866
67FFE6
661846
601806
601806
601806
601806
601806
601806
600006
7FFFFE
600006
ENDCHAR

STARTCHAR cns3_2821
ENCODING 10273
SWIDTH 960 0
DWIDTH 24 0
BBX 24 24 0 -2
BITMAP
400002
7FFFFF
600007
603806
603006
606106
6060C6
60C066
6107F6
6FFC36
678036
600006
620046
63FFE6
6300E6
6300C6
6300C6
6300C6
6300C6
63FFC6
6300C6
600006
7FFFFE
600006
ENDCHAR

STARTCHAR cns3_2822
ENCODING 10274
SWIDTH 960 0
DWIDTH 24 0
BBX 24 24 0 -2
BITMAP
600002
7FFFFF
606307
606306
606306
60C306
60C306
618306
6303F6
6C01E6
601C06
601806
601806
601886
63FFC6
601806
601806
601806
601866
6FFFF6
600006
600006
7FFFFE
600006
ENDCHAR

STARTCHAR cns3_2823
ENCODING 10275
SWIDTH 960 0
DWIDTH 24 0
BBX 24 24 0 -2
BITMAP
000000
1C1008
181FFC
18181C
181818
181818
181818
181818
191FF8
FF9818
181818
181818
181818
181818
181818
181FF8
181818
181818
1B9818
1E1818
F81818
E01818
407FFE
000000
ENDCHAR

STARTCHAR cns3_2824
ENCODING 10276
SWIDTH 960 0
DWIDTH 24 0
BBX 24 24 0 -2
BITMAP
000700
1C0600
180600
180602
180FFF
180C60
180C60
181860
191060
FFA060
180066
187FFF
180060
180060
180060
1800D0
1800D0
1800D8
1B8198
1E018C
F8030C
E00606
400C07
001002
ENDCHAR

STARTCHAR cns3_2825
ENCODING 10277
SWIDTH 960 0
DWIDTH 24 0
BBX 24 24 0 -2
BITMAP
001C00
081810
061838
031870
0398C0
211902
3FFFFF
600007
C00006
C0000C
001C00
001800
001800
001800
001830
1FFFF8
001800
001800
001800
001800
001800
001806
FFFFFF
000000
ENDCHAR

STARTCHAR cns3_2826
ENCODING 10278
SWIDTH 960 0
DWIDTH 24 0
BBX 24 24 0 -2
BITMAP
1C0006
183FFF
180300
180300
180300
180600
180600
190600
FF8C00
180C04
181FFE
181C0E
183C0C
182C0C
184C0C
180C0C
180C0C
1B8C0C
1E0C0C
F80C0C
E00FFC
400C0C
000C00
000000
ENDCHAR

STARTCHAR cns3_2827
ENCODING 10279
SWIDTH 960 0
DWIDTH 24 0
BBX 24 24 0 -2
BITMAP
1C01C0
180180
180180
182184
183FFE
18318E
1A318C
FF318C
18318C
18FFFF
18318C
18318C
18318C
18318C
18318D
18FFFF
18300C
1F300C
F8300C
60300C
00300C
00300C
00307C
003018
ENDCHAR

STARTCHAR cns3_2828
ENCODING 10280
SWIDTH 960 0
DWIDTH 24 0
BBX 24 24 0 -2
BITMAP
000380
1C0300
180300
180300
180620
180618
18060C
190C0E
FF8837
183FC3
181C02
180000
180000
181004
181FFE
18180E
18180C
1F180C
F8180C
E0180C
40180C
001FFC
00180C
00180C
ENDCHAR

STARTCHAR cns3_2829
ENCODING 10281
SWIDTH 960 0
DWIDTH 24 0
BBX 24 24 0 -2
BITMAP
000E00
1C0C00
180C00
181800
181802
183FFF
183007
1A6006
FF4046
189FE6
1818E6
1818C6
1818C6
1818C6
1818C6
1818C6
181FC6
1818C6
181806
1F000E
FC000C
70001C
0003F8
000030
ENDCHAR

STARTCHAR cns3_282A
ENCODING 10282
SWIDTH 960 0
DWIDTH 24 0
BBX 24 24 0 -2
BITMAP
1C1C38
181830
181830
183030
183030
183030
1A6033
FF6FFF
18E030
18E030
196030
186030
186430
186330
1861B0
186130
196030
1E6030
F86030
E06030
006030
006030
0063F0
0060E0
ENDCHAR

STARTCHAR cns3_282B
ENCODING 10283
SWIDTH 960 0
DWIDTH 24 0
BBX 24 24 0 -2
BITMAP
00E380
00C300
00C318
7FC3FC
00C300
00C302
00C302
00E303
07C3FF
FCC1FE
600000
001C00
001800
001800
001800
001818
3FFFFC
001800
001800
001800
001804
00180E
FFFFFF
000000
ENDCHAR

STARTCHAR cns3_282C
ENCODING 10284
SWIDTH 960 0
DWIDTH 24 0
BBX 24 24 0 -2
BITMAP
001C00
001800
309830
3FD838
31D830
319830
319860
319860
3198D0
3198CC
3F9986
319983
301B02
001C00
001818
3FFFFC
001800
001800
001800
001800
001804
00180E
FFFFFF
000000
ENDCHAR

STARTCHAR cns3_282D
ENCODING 10285
SWIDTH 960 0
DWIDTH 24 0
BBX 24 24 0 -2
BITMAP
001C00
001806
FFFFFF
001800
001800
001818
1FFFFC
000000
400002
7FFFFF
C00006
C0000C
CFFFF0
000000
020080
03FFC0
0301C0
030180
030180
030182
060182
060182
1C01FF
F000FE
ENDCHAR

STARTCHAR cns3_282E
ENCODING 10286
SWIDTH 960 0
DWIDTH 24 0
BBX 24 24 0 -2
BITMAP
001C00
001800
001806
FFFFFF
001800
003200
006100
00C0C0
038070
1E003F
F0001C
080010
0FFFF8
0C1838
0C1830
0C1830
0C1830
0FFFF0
0C1830
0C1830
0C1830
0C1830
0FFFF0
0C0030
ENDCHAR

STARTCHAR cns3_282F
ENCODING 10287
SWIDTH 960 0
DWIDTH 24 0
BBX 24 24 0 -2
BITMAP
001C00
001800
001818
001FFC
001800
001800
081810
0FFFF8
0C0038
0C0030
0C0030
0C0030
0FFFF0
0C1830
001800
001806
FFFFFF
001800
003400
003300
006180
01C0E0
0F007F
F8001C
ENDCHAR

STARTCHAR cns3_2830
ENCODING 10288
SWIDTH 960 0
DWIDTH 24 0
BBX 24 24 0 -2
BITMAP
1C000C
187FFE
180180
180180
330180
FFA18E
33318C
33318C
331998
631998
6319B0
6309A0
660186
C67FFF
C60180
F60180
DC0180
0E0180
1B0180
198180
310180
600180
400180
800180
ENDCHAR

STARTCHAR cns3_2831
ENCODING 10289
SWIDTH 960 0
DWIDTH 24 0
BBX 24 24 0 -2
BITMAP
1C0006
183FFF
180060
180060
3300C0
FF80C0
330180
330180
330380
6307E0
630D98
63198C
663186
664187
F60182
DC0180
0C0180
0E0180
1B0180
198180
318180
200006
407FFF
800000
ENDCHAR

STARTCHAR cns3_2832
ENCODING 10290
SWIDTH 960 0
DWIDTH 24 0
BBX 24 24 0 -2
BITMAP
1C0380
180300
180306
183FFF
330300
FF8600
3306C0
330CC0
330CC2
631FFF
633CC7
632CC6
664CC6
660CC6
F60CC6
DC0CC6
0E0CC6
1B0CC6
198CC6
318CDE
300CCC
6000C0
4000C0
8000C0
ENDCHAR

STARTCHAR cns3_2833
ENCODING 10291
SWIDTH 960 0
DWIDTH 24 0
BBX 24 24 0 -2
BITMAP
0E0380
0C0330
0C0318
180318
180306
189FFF
FFC300
31C300
31830E
31830C
31860C
31868C
618698
618E98
630CD8
F30C58
DE0C70
061830
0F1870
0DB0D0
19A198
30C30C
60060F
801806
ENDCHAR

STARTCHAR cns3_2834
ENCODING 10292
SWIDTH 960 0
DWIDTH 24 0
BBX 24 24 0 -2
BITMAP
1C0002
183FFF
180007
180006
330006
FF8046
331FE6
330006
330006
631046
631FE6
6318E6
6618C6
C618C6
C618C6
F618C6
DC1FC6
0E1806
1B1806
198006
310006
600006
4000FE
80001C
ENDCHAR

STARTCHAR cns3_2835
ENCODING 10293
SWIDTH 960 0
DWIDTH 24 0
BBX 24 24 0 -2
BITMAP
1C0000
182002
183FFF
183007
333006
FFB006
333006
333FFE
3330C6
6330C0
6330C0
6330C6
633FFF
6630C0
C630C0
F63060
DC3060
0E3061
1B3031
19B0F1
313719
603C1D
40180F
800002
ENDCHAR

STARTCHAR cns3_2836
ENCODING 10294
SWIDTH 960 0
DWIDTH 24 0
BBX 24 24 0 -2
BITMAP
1C0000
180000
181002
181FFF
3318C7
FF98C6
3318C6
3318C6
3318C6
6318C6
6318C6
6318C6
631FFE
6618C6
C618C6
F618C6
DC18C6
0E18C6
1B18C6
1998C6
3118C6
601FFE
401806
801806
ENDCHAR

STARTCHAR cns3_2837
ENCODING 10295
SWIDTH 960 0
DWIDTH 24 0
BBX 24 24 0 -2
BITMAP
1C0000
180018
18007C
1803C0
331F80
FF8180
3301C0
3300C0
3300C4
633FFE
63000C
63001C
630038
660070
C600C0
F60180
DC0300
0E0600
1B0C00
199800
313C00
603600
4003FF
8001FE
ENDCHAR

STARTCHAR cns3_2838
ENCODING 10296
SWIDTH 960 0
DWIDTH 24 0
BBX 24 24 0 -2
BITMAP
1C0700
180600
180600
180C00
330C06
FF8FFF
331980
331980
331180
633180
63218C
6301FE
630180
660180
C60180
F60180
DC0186
0E01FF
1B0180
198180
310180
600180
400180
800180
ENDCHAR

STARTCHAR cns3_2839
ENCODING 10297
SWIDTH 960 0
DWIDTH 24 0
BBX 24 24 0 -2
BITMAP
1C0700
180600
180600
180602
330FFF
FF8C07
330806
331806
331006
632FE6
630C66
630C66
630C66
660C66
C60FE6
F60C06
DC0C0E
0E0CFC
1B0C18
198C00
310C02
600C02
400FFF
8007FE
ENDCHAR

STARTCHAR cns3_283A
ENCODING 10298
SWIDTH 960 0
DWIDTH 24 0
BBX 24 24 0 -2
BITMAP
1C0380
180300
180600
180608
330FFC
FF8C0C
331A18
332230
330160
6301C0
6301C0
630360
630630
660C1C
C6190F
F660C6
DC0060
0E0030
1B0000
198700
3101E0
600078
40001C
800008
ENDCHAR

STARTCHAR cns3_283B
ENCODING 10299
SWIDTH 960 0
DWIDTH 24 0
BBX 24 24 0 -2
BITMAP
1C0000
18001C
1811FE
181F00
331800
FF9800
331800
331800
331804
631FFE
631830
631830
631830
661830
C61830
F61830
DC1830
0E1830
1B1830
199830
319830
601832
407FFF
800000
ENDCHAR

STARTCHAR cns3_283C
ENCODING 10300
SWIDTH 960 0
DWIDTH 24 0
BBX 24 24 0 -2
BITMAP
000006
007FFF
010300
FF8300
0C0602
0C0FFF
0C0C07
0C0006
0CE006
FF000E
78001C
0003F8
007060
006006
FFFFFF
0180C0
0301C0
060180
0FFF00
0C0780
001CE0
007038
03C00E
7C0006
ENDCHAR

STARTCHAR cns3_283D
ENCODING 10301
SWIDTH 960 0
DWIDTH 24 0
BBX 24 24 0 -2
BITMAP
070000
060902
FFFDFF
061D87
061986
0C1986
0C1986
181986
183186
3071FE
67E186
818000
007000
0060C6
FFFFFF
0180C0
0300C0
060180
0FFF00
0C0780
001CE0
007038
03C00E
7C0006
ENDCHAR

STARTCHAR cns3_283E
ENCODING 10302
SWIDTH 960 0
DWIDTH 24 0
BBX 24 24 0 -2
BITMAP
100008
1FFFFC
18181C
181818
181818
1FFFF8
181818
181818
181818
1FFFF8
18C018
00E0C0
00C0E0
00C0C6
FFFFFF
0180C0
0180C0
030180
07E300
027E00
001F80
00F0F0
07803C
7C000C
ENDCHAR

STARTCHAR cns3_283F
ENCODING 10303
SWIDTH 960 0
DWIDTH 24 0
BBX 24 24 0 -2
BITMAP
380300
3001C0
3000E0
300046
333FFF
3300C0
FFC0C0
3300C0
3310C2
331FFF
3318C7
3318C6
6318C6
6318C6
6618C6
F618C6
5C18C6
0E18C6
1B18C6
1998DE
30D8CC
60C0C0
4000C0
8000C0
ENDCHAR

STARTCHAR cns3_2840
ENCODING 10304
SWIDTH 960 0
DWIDTH 24 0
BBX 24 24 0 -2
BITMAP
1C0006
187FFF
18000C
18000C
33000C
FF800C
33208C
333FCC
3331CC
63318C
63318C
63318C
63318C
66318C
C6318C
F63F8C
DC318C
0E300C
1B000C
19800C
31800C
60000C
4001FC
800038
ENDCHAR

STARTCHAR cns3_2841
ENCODING 10305
SWIDTH 960 0
DWIDTH 24 0
BBX 24 24 0 -2
BITMAP
0E0006
0C3FFF
0C0300
0C0300
180300
198600
FFC600
198600
198C00
318C04
319FFE
319C0E
333C0C
632C0C
634C0C
760C0C
6C0C0C
0E0C0C
1B0C0C
198C0C
318FFC
600C0C
400C00
800000
ENDCHAR

STARTCHAR cns3_2842
ENCODING 10306
SWIDTH 960 0
DWIDTH 24 0
BBX 24 24 0 -2
BITMAP
383800
303000
303000
303000
323000
FF3142
66FF7F
663367
663366
663366
663366
C63366
CC3366
CC3366
CC3366
E82366
B82366
1C2366
362366
336366
63437E
604366
401F60
800600
ENDCHAR

STARTCHAR cns3_2843
ENCODING 10307
SWIDTH 960 0
DWIDTH 24 0
BBX 24 24 0 -2
BITMAP
1C0000
182004
183FFE
18300E
31300C
FFB00C
33300C
33300C
333FFC
63300C
633000
633000
663000
663004
F63FFE
DE300E
0C300C
0E300C
1B300C
19B00C
31B00C
303FFC
60300C
803000
ENDCHAR

STARTCHAR cns3_2844
ENCODING 10308
SWIDTH 960 0
DWIDTH 24 0
BBX 24 24 0 -2
BITMAP
1C0020
187FF0
181830
181862
3318FF
FF98C7
333006
333006
33600E
63407C
638018
630030
633FF8
660070
C600C0
F60300
DC0306
0EFFFF
1B0300
198300
318300
600300
401F00
800600
ENDCHAR

STARTCHAR cns3_2845
ENCODING 10309
SWIDTH 960 0
DWIDTH 24 0
BBX 24 24 0 -2
BITMAP
1C01C0
180180
181980
181980
181980
33198C
FFBFFE
333180
333180
632180
634180
630186
663FFF
C60180
F60180
DC0340
0E0340
1B0360
198630
318638
600C1C
40180E
803007
00C002
ENDCHAR

STARTCHAR cns3_2846
ENCODING 10310
SWIDTH 960 0
DWIDTH 24 0
BBX 24 24 0 -2
BITMAP
1C2102
183F7F
183367
183366
193366
FFB366
333366
333366
333366
333366
633366
637FFF
663366
663366
C63366
F43366
CC3366
0E3366
1B3366
313366
203366
406366
80476E
008204
ENDCHAR

STARTCHAR cns3_2847
ENCODING 10311
SWIDTH 960 0
DWIDTH 24 0
BBX 24 24 0 -2
BITMAP
1C00E0
1800C0
1800C0
1800C0
1901A0
FF8190
330318
33060E
331C07
3370E2
6300C0
6300C0
4600C0
C606C8
E606C4
B60CC6
1C0CC6
0E18C3
1B10C3
19A0C3
3180C0
2000C0
400FC0
800380
ENDCHAR

STARTCHAR cns3_2848
ENCODING 10312
SWIDTH 960 0
DWIDTH 24 0
BBX 24 24 0 -2
BITMAP
FFFFFC
00001C
000318
7FFF98
000018
1FFE18
180E18
180C18
1FFC18
180C18
000018
0003F8
000070
000080
1FFFC0
000380
001E00
001806
FFFFFF
001800
001800
001800
01F800
003000
ENDCHAR

STARTCHAR cns3_2849
ENCODING 10313
SWIDTH 960 0
DWIDTH 24 0
BBX 24 24 0 -2
BITMAP
101002
1FFBFF
183807
183006
1C300C
1B3018
19B030
19B030
183030
183430
FFFC30
303036
3033FF
343030
333030
31B030
31B030
303030
303430
3FFC30
303030
007030
03E1F0
00C060
ENDCHAR

STARTCHAR cns3_284A
ENCODING 10314
SWIDTH 960 0
DWIDTH 24 0
BBX 24 24 0 -2
BITMAP
003000
003800
201802
3FFFFF
600007
E00006
C0800C
3FC1C0
01C180
018180
118180
1F8180
198180
180180
304300
3FE300
30E300
00C310
00C618
00C60C
01843E
03BFE6
1F1E06
060004
ENDCHAR

STARTCHAR cns3_284B
ENCODING 10315
SWIDTH 960 0
DWIDTH 24 0
BBX 24 24 0 -2
BITMAP
003000
003800
201802
3FFFFF
600006
E0000C
C60010
039C00
011800
0C1800
061800
031800
021800
00180C
7FFFFE
001800
003800
003400
006600
00C300
0181C0
0700F0
1C003F
F0000E
ENDCHAR

STARTCHAR cns3_284C
ENCODING 10316
SWIDTH 960 0
DWIDTH 24 0
BBX 24 24 0 -2
BITMAP
003000
003800
201802
3FFFFF
600007
E00006
C0300C
001800
001800
000018
3FFFFC
001800
001800
001800
001800
001830
1FFFF8
001800
001800
001800
001808
00181C
3FFFFE
000000
ENDCHAR

STARTCHAR cns3_284D
ENCODING 10317
SWIDTH 960 0
DWIDTH 24 0
BBX 24 24 0 -2
BITMAP
003000
003800
201802
3FFFFF
600006
E0000C
C01C10
001800
001840
07FFE0
001800
001860
0FFFF0
001800
00180C
7FFFFE
003800
003400
006600
00C300
0181C0
0700F0
1C003F
F0000E
ENDCHAR

STARTCHAR cns3_284E
ENCODING 10318
SWIDTH 960 0
DWIDTH 24 0
BBX 24 24 0 -2
BITMAP
003000
003800
201802
3FFFFF
600006
E0000C
C00008
000060
0FFFF0
001800
001800
001800
001800
001830
0FFFF8
001800
001800
001900
0018C0
001860
001840
001818
7FFFFE
000000
ENDCHAR

STARTCHAR cns3_284F
ENCODING 10319
SWIDTH 960 0
DWIDTH 24 0
BBX 24 24 0 -2
BITMAP
003000
003800
201802
3FFFFF
600006
E0000C
C01C08
001800
001800
001830
1FFFF8
001800
001800
001800
001800
0C1810
0FFFF8
0C0038
0C0030
0C0030
0C0030
0FFFF0
0C0030
000000
ENDCHAR

STARTCHAR cns3_2850
ENCODING 10320
SWIDTH 960 0
DWIDTH 24 0
BBX 24 24 0 -2
BITMAP
806038
FFF030
C00030
C00030
C00030
C00030
C84032
CFEFFF
CCE030
CCC030
CCC030
CCC830
CCC430
CCC630
CFC630
CCC330
CC0230
C00030
C00030
C00030
C03030
FFF830
C003F0
C000E0
ENDCHAR

STARTCHAR cns3_2851
ENCODING 10321
SWIDTH 960 0
DWIDTH 24 0
BBX 24 24 0 -2
BITMAP
001C00
001800
0118E0
039838
0E181C
38180C
007800
201004
3FFFFE
30000E
30000C
31008C
31FFCC
31818C
31818C
31818C
31818C
31FF8C
31818C
31800C
30000C
30000C
3000FC
300038
ENDCHAR

STARTCHAR cns3_2852
ENCODING 10322
SWIDTH 960 0
DWIDTH 24 0
BBX 24 24 0 -2
BITMAP
100002
1FFFFF
180007
180006
1FFFFE
180000
180C00
180E00
18060C
19FFFE
180010
184018
182018
182030
183030
183060
301860
301840
3018C0
601080
600080
40010C
83FFFE
000000
ENDCHAR

STARTCHAR cns3_2853
ENCODING 10323
SWIDTH 960 0
DWIDTH 24 0
BBX 24 24 0 -2
BITMAP
200008
3FFFFC
30001C
300018
300018
300018
3FFFF8
300000
300000
300E00
300C00
304C10
37EDF8
300C00
300C00
304C10
37EDF8
200C00
600C00
400C02
400C02
400C03
800FFF
0007FE
ENDCHAR

STARTCHAR cns3_2854
ENCODING 10324
SWIDTH 960 0
DWIDTH 24 0
BBX 24 24 0 -2
BITMAP
200008
3FFFFC
30001C
300018
300018
3FFFF8
300000
31C000
318E70
318C60
318C60
318C60
318C64
37FFFE
318C60
218C60
218C60
618C60
418C60
418FE0
818000
81800C
01FFFE
018000
ENDCHAR

STARTCHAR cns3_2855
ENCODING 10325
SWIDTH 960 0
DWIDTH 24 0
BBX 24 24 0 -2
BITMAP
000000
200004
3FFFFE
30000E
30000C
30000C
3FFFFC
30000C
300700
300600
300600
320604
33FFFE
33060E
33060C
33060C
33060C
23FFFC
63060C
43060C
43060C
83060C
83FFFC
03000C
ENDCHAR

STARTCHAR cns3_2856
ENCODING 10326
SWIDTH 960 0
DWIDTH 24 0
BBX 24 24 0 -2
BITMAP
0E1002
0C1FFF
0C1807
0C1806
0C1806
0C1806
ECDFFE
CCD806
CCD800
CCD800
CCDB80
CCDB00
CCDB00
CCDB0C
CCDBFE
CCDB00
CCDB00
FFDB00
C0D302
003302
002303
0063FF
00C1FE
010000
ENDCHAR

STARTCHAR cns3_2857
ENCODING 10327
SWIDTH 960 0
DWIDTH 24 0
BBX 24 24 0 -2
BITMAP
1C0018
1821FC
183F80
183180
183180
183180
DBB180
DB3180
DB318C
DB3FFE
DB30C0
DB30C0
DB30C0
DB30C0
DB3060
DB3060
DB30E0
DB3331
DB3E31
FF1C19
C3001D
C0004F
001FE6
000000
ENDCHAR

STARTCHAR cns3_2858
ENCODING 10328
SWIDTH 960 0
DWIDTH 24 0
BBX 24 24 0 -2
BITMAP
001C00
1C181C
181818
181818
181818
1FFFF8
180018
006000
21F202
3E03FF
300307
307306
306306
306306
306306
306306
31C306
36C306
3CC306
19837E
01831C
030300
0E0300
700300
ENDCHAR

STARTCHAR cns3_2859
ENCODING 10329
SWIDTH 960 0
DWIDTH 24 0
BBX 24 24 0 -2
BITMAP
0000F0
001FF8
7FF800
001800
001800
001806
FFFFFF
003800
007C00
00DB00
0199C0
061878
18181F
E01806
000000
001C00
001800
1C181C
181818
181818
181818
181818
1FFFF8
180018
ENDCHAR

STARTCHAR cns3_285A
ENCODING 10330
SWIDTH 960 0
DWIDTH 24 0
BBX 24 24 0 -2
BITMAP
1C2006
183FFF
183000
183000
183008
1833FC
DBB060
DB3060
DB3060
DB3060
DB3060
DB3066
DB37FF
DB3060
DB3060
DB3060
DB6060
DB6060
DB6060
FF4060
C34060
C04060
008060
008060
ENDCHAR

STARTCHAR cns3_285B
ENCODING 10331
SWIDTH 960 0
DWIDTH 24 0
BBX 24 24 0 -2
BITMAP
1C0000
180006
187FFF
18000C
18000C
18000C
D9000C
D9208C
D93FCC
D931CC
D9318C
D9318C
D9318C
D9318C
D93F8C
D9318C
D9300C
D9300C
D9000C
FF000C
C3000C
C001FC
000038
000000
ENDCHAR

STARTCHAR cns3_285C
ENCODING 10332
SWIDTH 960 0
DWIDTH 24 0
BBX 24 24 0 -2
BITMAP
0E0002
0C1FFF
0C0187
0C0186
0C0186
CC8186
CC8306
CC830C
CC860C
CC860C
CC8CF8
CC9030
CC8000
CC8802
CC8FFF
CC8C07
CC8C06
CC8C06
FF8C06
C08C06
C00C06
000C06
000FFE
000C06
ENDCHAR

STARTCHAR cns3_285D
ENCODING 10333
SWIDTH 960 0
DWIDTH 24 0
BBX 24 24 0 -2
BITMAP
0E0700
0C0600
0C0600
0C0C00
0C0C06
CC8FFF
CC9980
CC9180
CCB180
CCB180
CCA18C
CCC1FE
CC8180
CC8180
CC8180
CC8186
CC81FF
CC8180
CC8180
FF8180
C08180
C00180
000180
000180
ENDCHAR

STARTCHAR cns3_285E
ENCODING 10334
SWIDTH 960 0
DWIDTH 24 0
BBX 24 24 0 -2
BITMAP
1C0000
18001C
1811FE
181F00
181800
181800
DB9800
DB1800
DB1804
DB1FFE
DB1830
DB1830
DB1830
DB1830
DB1830
DB1830
DB1830
DB1830
DB1830
FF1830
C31830
C01832
00FFFF
000000
ENDCHAR

STARTCHAR cns3_285F
ENCODING 10335
SWIDTH 960 0
DWIDTH 24 0
BBX 24 24 0 -2
BITMAP
001C00
1C181C
181818
181818
1FFFF8
003000
006800
00C600
018300
0301C0
060078
19FF9F
E00006
000000
000010
0FFFF8
000070
000060
0000C0
004180
003700
001C00
000E00
000600
ENDCHAR

STARTCHAR cns3_2860
ENCODING 10336
SWIDTH 960 0
DWIDTH 24 0
BBX 24 24 0 -2
BITMAP
002000
7FF004
0C77FE
0C660E
0C660C
0C660C
18660C
18660C
30660C
30E60C
63C7FC
80860C
202600
3FF600
307600
306600
306600
306602
306602
306602
306603
3FE7FF
3063FE
306000
ENDCHAR

STARTCHAR cns3_2861
ENCODING 10337
SWIDTH 960 0
DWIDTH 24 0
BBX 24 24 0 -2
BITMAP
0E01C0
0C0180
0C0180
0C018C
0C3FFE
0C8180
FFE180
CCE180
CCC180
CCC198
CCDFFC
CCC380
CCC3C0
CFC7C0
CD8DA0
0C0DB0
0C1998
0C3198
0C618C
0CC187
0D0182
0C0180
0C0180
0C0180
ENDCHAR

STARTCHAR cns3_2862
ENCODING 10338
SWIDTH 960 0
DWIDTH 24 0
BBX 24 24 0 -2
BITMAP
060EC0
060C60
0E0C60
0C0C0C
1C07FE
18FE00
380300
6C0302
8C0182
0C00E2
0C007F
0C1C1E
001800
181808
1FFFFC
18181C
181818
181818
181818
181818
1818F8
181830
001800
001800
ENDCHAR

STARTCHAR cns3_2863
ENCODING 10339
SWIDTH 960 0
DWIDTH 24 0
BBX 24 24 0 -2
BITMAP
01C070
018060
0100C0
030080
02000C
7FE7FE
0300C0
0300C0
0300C0
0300C0
0300C0
0300C0
0300C6
FFE7FF
0600C0
0600C0
0600C0
0600C0
0600C0
0C00C0
0C00C0
1800C0
3000C0
C000C0
ENDCHAR

STARTCHAR cns3_2864
ENCODING 10340
SWIDTH 960 0
DWIDTH 24 0
BBX 24 24 0 -2
BITMAP
000C00
000E00
100606
1FFFFF
180000
180000
188010
18FFF8
18C038
18C030
18C030
18C030
18FFF0
18C030
18C030
10C030
30C030
30FFF0
20C030
60C030
40C030
80C032
8FFFFF
000000
ENDCHAR

STARTCHAR cns3_2865
ENCODING 10341
SWIDTH 960 0
DWIDTH 24 0
BBX 24 24 0 -2
BITMAP
001800
001C00
200C06
3FFFFF
300000
300000
320004
33FFFE
33060E
33060C
33060C
33FFFC
33060C
33060C
33060C
33FFFC
23060C
620600
600600
400600
400600
800600
800600
000600
ENDCHAR

STARTCHAR cns3_2866
ENCODING 10342
SWIDTH 960 0
DWIDTH 24 0
BBX 24 24 0 -2
BITMAP
001800
000C00
200C06
3FFFFF
300000
303000
327800
33C104
3301FE
33198E
33198C
33198C
33198C
33198C
33198C
33198C
23798C
23998C
61198C
4031BC
403198
806180
80C180
030180
ENDCHAR

STARTCHAR cns3_2867
ENCODING 10343
SWIDTH 960 0
DWIDTH 24 0
BBX 24 24 0 -2
BITMAP
003000
001800
201806
3FFFFF
300000
300700
300600
300600
300600
320604
33FFFE
33060E
33060C
33060C
33060C
33060C
23FFFC
23060C
63060C
43060C
43060C
83060C
83FFFC
03000C
ENDCHAR

STARTCHAR cns3_2868
ENCODING 10344
SWIDTH 960 0
DWIDTH 24 0
BBX 24 24 0 -2
BITMAP
001800
200C06
3FFFFF
303000
303000
306020
307FF0
30E060
31B0C0
321980
300F00
300600
300F80
3038F0
30E03F
378C0E
600300
6001C0
6030C0
400C00
400600
800380
800180
000000
ENDCHAR

STARTCHAR cns3_2869
ENCODING 10345
SWIDTH 960 0
DWIDTH 24 0
BBX 24 24 0 -2
BITMAP
0201C0
FF0180
070180
060180
060180
0C2184
0C3FFE
18318E
19318C
3FB18C
31B18C
01BFFC
03318C
43318C
63318C
26318C
36318C
1C3FFC
1C300C
1C3000
370000
61C000
C0FFFE
803FFC
ENDCHAR

STARTCHAR cns3_286A
ENCODING 10346
SWIDTH 960 0
DWIDTH 24 0
BBX 24 24 0 -2
BITMAP
000000
004002
047FFF
FE6007
0C6006
0C6426
0867E6
186666
106666
126666
3F6666
066666
066666
0667E6
066606
0C6006
4C6006
2C6006
38607E
18601C
1C0000
370000
63FFFF
80FFFE
ENDCHAR

STARTCHAR cns3_286B
ENCODING 10347
SWIDTH 960 0
DWIDTH 24 0
BBX 24 24 0 -2
BITMAP
020000
7F01C0
070180
060300
0C0600
0C2404
183FFE
32300E
3F300C
07300C
06300C
06300C
063FFC
06300C
0E300C
4C300C
6C300C
38300C
183FFC
3C300C
363000
638000
C1FFFF
807FFE
ENDCHAR

STARTCHAR cns3_286C
ENCODING 10348
SWIDTH 960 0
DWIDTH 24 0
BBX 24 24 0 -2
BITMAP
39C39C
318318
318318
318318
318318
FFEFFE
318318
318318
318318
318318
318318
318318
31A31A
FFEFFF
318318
318318
318318
618618
618618
618618
418418
418418
818818
818818
ENDCHAR

STARTCHAR cns3_286D
ENCODING 10349
SWIDTH 960 0
DWIDTH 24 0
BBX 24 24 0 -2
BITMAP
001C00
001800
001860
07FFF0
001800
001818
3FFFFC
003000
003030
006018
0183FC
0FFE0E
078006
00C0E0
00C0C0
00C0C6
7FFFFF
0180C0
0180C0
0300C0
0600C0
0C00C0
1800C0
6000C0
ENDCHAR

STARTCHAR cns3_286E
ENCODING 10350
SWIDTH 960 0
DWIDTH 24 0
BBX 24 24 0 -2
BITMAP
008000
FFD006
01DFFF
019800
019800
019800
419800
7F9804
619FFE
60180E
60180C
60180C
60980C
7FD80C
61DFFC
01980C
019800
019800
019800
039800
019806
039FFF
7F1800
061800
ENDCHAR

STARTCHAR cns3_286F
ENCODING 10351
SWIDTH 960 0
DWIDTH 24 0
BBX 24 24 0 -2
BITMAP
020700
FF0600
070600
060C00
060806
061FFF
463000
7E2060
604060
600E62
C00C6F
C20CF7
FF0F66
873C66
060C66
060C64
060C64
060C60
060C60
060C00
060C02
0C0C02
FC0FFF
1807FE
ENDCHAR

STARTCHAR cns3_2870
ENCODING 10352
SWIDTH 960 0
DWIDTH 24 0
BBX 24 24 0 -2
BITMAP
020700
FF0600
070600
060C00
060C06
060FFF
4618C0
7E10C0
6030C0
6020C0
C04EC0
C20CC8
FF0CCC
8718C4
0618C6
0610C6
0630C7
0620C3
0640C3
0640C3
0600C0
0C00C0
FC0FC0
180380
ENDCHAR

STARTCHAR cns3_2871
ENCODING 10353
SWIDTH 960 0
DWIDTH 24 0
BBX 24 24 0 -2
BITMAP
000020
0FFFF0
000070
000060
07FFE0
000060
000066
FFFFFF
000C00
000C00
180C08
070C1C
01CE30
008EC0
001D00
003D80
00ECC0
038C70
1E0C3F
780C1C
000C00
000C00
01FC00
003800
ENDCHAR

STARTCHAR cns3_2872
ENCODING 10354
SWIDTH 960 0
DWIDTH 24 0
BBX 24 24 0 -2
BITMAP
0E0006
0C0007
0C000E
0C001C
188038
186060
1030C0
103900
20D804
FF1C07
70080E
00001C
000030
401060
7FF8C0
603904
603007
60300E
60301C
603038
603060
7FF0C0
603180
603600
ENDCHAR

STARTCHAR cns3_2873
ENCODING 10355
SWIDTH 960 0
DWIDTH 24 0
BBX 24 24 0 -2
BITMAP
187006
186007
18600E
18601C
186838
7FFC60
1860C0
186100
1E6004
1B6007
19600E
18601C
186C30
FFFE60
1860C0
186104
186007
10600E
10601C
306038
206060
2060C0
406180
406600
ENDCHAR

STARTCHAR cns3_2874
ENCODING 10356
SWIDTH 960 0
DWIDTH 24 0
BBX 24 24 0 -2
BITMAP
0701C0
060180
0C0180
0C0180
180180
300180
674182
867FFF
066187
0C6186
0C6186
186186
186186
306186
707FFE
586186
986186
186186
186186
186186
186186
186186
187FFE
186006
ENDCHAR

STARTCHAR cns3_2875
ENCODING 10357
SWIDTH 960 0
DWIDTH 24 0
BBX 24 24 0 -2
BITMAP
06000C
06FFFE
0C100C
0C1018
180830
300C60
6706C0
860780
060DC0
0C18F0
0C603F
19800E
180700
300600
700600
580618
98FFFC
180600
180600
180600
180600
180606
19FFFF
180000
ENDCHAR

STARTCHAR cns3_2876
ENCODING 10358
SWIDTH 960 0
DWIDTH 24 0
BBX 24 24 0 -2
BITMAP
0E0380
0C0300
183300
303300
603300
8E6318
0C7FFC
0C6300
18C300
188300
310300
780300
580300
980318
187FFC
180300
180300
180300
180300
180300
180300
180306
19FFFF
180000
ENDCHAR

STARTCHAR cns3_2877
ENCODING 10359
SWIDTH 960 0
DWIDTH 24 0
BBX 24 24 0 -2
BITMAP
1C0300
180380
180180
180180
180186
1C7FFF
5A0180
5B0300
5B0200
D90600
980C30
981838
180C70
180660
1806C0
1800C0
180180
180318
18060C
180806
18103E
187FC3
187C03
180003
ENDCHAR

STARTCHAR cns3_2878
ENCODING 10360
SWIDTH 960 0
DWIDTH 24 0
BBX 24 24 0 -2
BITMAP
0E0000
0C1006
0C1FFF
0C1800
0C1800
0E1800
2D1800
2D9804
2D9FFE
6C980E
CC180C
CC180C
0C180C
0C180C
0C1FFC
0C180C
0C1800
0C1800
0C1800
0C1800
0C1806
0C1FFF
0C1800
0C1800
ENDCHAR

STARTCHAR cns3_2879
ENCODING 10361
SWIDTH 960 0
DWIDTH 24 0
BBX 24 24 0 -2
BITMAP
1C0E1C
180C18
180C18
180C18
180C18
1C0C1A
5B3FFF
598C18
598C18
D80C18
D80C18
980C18
980C18
180FF8
180C18
180C18
180C18
180C18
180C18
180C18
180C18
180FF8
180C18
180C00
ENDCHAR

STARTCHAR cns3_287A
ENCODING 10362
SWIDTH 960 0
DWIDTH 24 0
BBX 24 24 0 -2
BITMAP
1C00E0
1800C0
1800C0
1820C2
183FFF
1C30C3
5B30C6
59B0CC
59B0C0
D830C0
983FFE
98320E
18320C
18320C
183218
186118
186130
1861E0
1840C0
18C1E0
188330
19061C
19180F
186006
ENDCHAR

STARTCHAR cns3_287B
ENCODING 10363
SWIDTH 960 0
DWIDTH 24 0
BBX 24 24 0 -2
BITMAP
0003E0
001FF8
3FF800
001800
001800
001800
001806
FFFFFF
003400
003200
006300
00C180
0180C0
070070
1C003F
F00C1C
00E600
00C310
08C208
08C04C
18C046
30C066
30FFE4
007FC0
ENDCHAR

STARTCHAR cns3_287C
ENCODING 10364
SWIDTH 960 0
DWIDTH 24 0
BBX 24 24 0 -2
BITMAP
000018
3FFFFC
0C1800
0C1800
0C1800
181800
181806
3FFFFF
303600
003600
006604
00C604
018606
0707FE
1C03FC
F00000
000600
00E308
08C184
10C126
30C023
60C033
60FFF2
007FE0
ENDCHAR

STARTCHAR cns3_287D
ENCODING 10365
SWIDTH 960 0
DWIDTH 24 0
BBX 24 24 0 -2
BITMAP
000080
3FFFC0
0301C0
030180
030310
03FFF8
030038
034030
063060
0618C0
0C0D80
0C0700
180F00
3039E0
C1E07F
0F000C
001800
138C10
13064C
230446
630047
C30063
C3FFE0
01FFC0
ENDCHAR

STARTCHAR cns3_287E
ENCODING 10366
SWIDTH 960 0
DWIDTH 24 0
BBX 24 24 0 -2
BITMAP
000600
000300
01C180
0380C0
070070
0C383C
38311F
E060C4
006060
00C070
0187F0
1FFC38
0F0030
000010
004000
003000
071C20
260C18
26000C
260046
660046
C60063
C7FFE0
03FFC0
ENDCHAR

STARTCHAR cns3_2921
ENCODING 10529
SWIDTH 960 0
DWIDTH 24 0
BBX 24 24 0 -2
BITMAP
1C01C0
180180
180180
180180
18018C
1C1FFE
5A0180
5B0180
5B0180
D90186
983FFF
980180
1803C0
1803C0
1807A0
1805B0
180D98
180988
18198C
181186
182187
180182
180180
180180
ENDCHAR

STARTCHAR cns3_2922
ENCODING 10530
SWIDTH 960 0
DWIDTH 24 0
BBX 24 24 0 -2
BITMAP
1C1C00
1819CE
18198C
18198C
18198C
1C198C
5A198C
5B198C
5B7FFF
D9198C
98198C
98198C
18198C
18198C
18198C
18198C
1819FC
18198C
181980
181800
181806
181FFF
181800
181800
ENDCHAR

STARTCHAR cns3_2923
ENCODING 10531
SWIDTH 960 0
DWIDTH 24 0
BBX 24 24 0 -2
BITMAP
1C01C0
180180
180180
180180
180180
1C018C
5A7FFE
5B0180
5B0380
D903C0
9807C0
9807A0
180DB0
180D98
18198E
183187
18C182
180188
187FFC
180180
180180
180180
180180
180180
ENDCHAR

STARTCHAR cns3_2924
ENCODING 10532
SWIDTH 960 0
DWIDTH 24 0
BBX 24 24 0 -2
BITMAP
1C01C0
180180
180180
180180
180306
1C7FFF
5A0300
5B0300
5B0600
D90600
980C00
980C04
181FFE
181C0E
182C0C
186C0C
18CC0C
190C0C
180C0C
180C0C
180C0C
180FFC
180C0C
180C0C
ENDCHAR

STARTCHAR cns3_2925
ENCODING 10533
SWIDTH 960 0
DWIDTH 24 0
BBX 24 24 0 -2
BITMAP
0E01C0
0C0180
0C0180
0C0198
0C1FFC
0C0180
FFC180
0C0180
0C0180
0C018C
0C3FFE
0D8380
1E03C0
FC07C0
EC0DA0
0C0DB0
0C1998
0C3198
0C618C
0CC187
0D0182
0C0180
FC0180
380180
ENDCHAR

STARTCHAR cns3_2926
ENCODING 10534
SWIDTH 960 0
DWIDTH 24 0
BBX 24 24 0 -2
BITMAP
0E0000
0C0006
0C7FFF
0C000C
0D000C
FF800C
0C208C
0C3FCC
0C31CC
0C318C
0C318C
0FB18C
FC318C
EC318C
0C318C
0C3F8C
0C318C
0C300C
0C000C
0C000C
0C000C
0C000C
FC01FC
380078
ENDCHAR

STARTCHAR cns3_2927
ENCODING 10535
SWIDTH 960 0
DWIDTH 24 0
BBX 24 24 0 -2
BITMAP
1C01C0
180180
180180
180306
18FFFF
1A0600
FF0600
180C30
181818
18307C
187FC6
183006
1E0000
F80E70
D80C60
180C60
180C60
180C60
180C60
180C62
181862
181863
F8307F
30403E
ENDCHAR

STARTCHAR cns3_2928
ENCODING 10536
SWIDTH 960 0
DWIDTH 24 0
BBX 24 24 0 -2
BITMAP
0E0006
0C3FFF
0C0060
0C0060
0C80C0
FF80C0
0C0180
0C0180
0C0380
0C07E0
0C0D98
0F198C
FC3186
6CC187
0C0182
0C0180
0C0180
0C0180
0C0180
0C0180
0C0180
0C0006
7C7FFF
180000
ENDCHAR

STARTCHAR cns3_2929
ENCODING 10537
SWIDTH 960 0
DWIDTH 24 0
BBX 24 24 0 -2
BITMAP
1C01C0
180180
180180
18018C
1801FE
190180
FF8180
180180
180186
187FFF
180180
180180
1B01A0
1C0198
F8018C
D8018E
180186
180186
180180
180180
180180
180180
F80180
300180
ENDCHAR

STARTCHAR cns3_292A
ENCODING 10538
SWIDTH 960 0
DWIDTH 24 0
BBX 24 24 0 -2
BITMAP
0E0000
0C2008
0C3FFC
0C301C
0D3018
FFB018
0C3018
0C3018
0C3018
0C3018
0C3018
0F3018
FC3FF8
6C3018
0C0000
0C0E60
0C0C30
0C1818
0C180C
0C300E
0C6006
0CC007
7D0003
180000
ENDCHAR

STARTCHAR cns3_292B
ENCODING 10539
SWIDTH 960 0
DWIDTH 24 0
BBX 24 24 0 -2
BITMAP
0E000C
0C3FFE
0C0C00
0C0C00
0C8C00
FFCC00
0C0C08
0C0FFC
0C0C1C
0C0C18
0C0C18
0C8C18
0F0C18
FC1A30
6C1B30
0C19B0
0C1930
0C1832
0C1832
0C3132
0C3632
0C7C33
7C303F
18001E
ENDCHAR

STARTCHAR cns3_292C
ENCODING 10540
SWIDTH 960 0
DWIDTH 24 0
BBX 24 24 0 -2
BITMAP
1C0600
184E00
187882
1860FF
1A66C7
FF66C6
1866C6
1866C6
1866C6
1866C6
1866C6
1E66C6
F866C6
D866C6
1866C6
186EC6
1876C6
1826C6
180CC6
180CDE
1818CC
1818C0
7830C0
30C0C0
ENDCHAR

STARTCHAR cns3_292D
ENCODING 10541
SWIDTH 960 0
DWIDTH 24 0
BBX 24 24 0 -2
BITMAP
0E0018
0C003C
0C00F0
0C3F80
0D3190
FFB190
0C3190
0C3198
0C3198
0C3198
0DB318
0F3318
FC330C
6C330C
0C330C
0C360C
0C662C
0C662C
0C6434
0CC9F6
0CDFB6
0CCC13
7D8003
1A0001
ENDCHAR

STARTCHAR cns3_292E
ENCODING 10542
SWIDTH 960 0
DWIDTH 24 0
BBX 24 24 0 -2
BITMAP
0E0180
0C01C0
0C00C0
0C1042
0C1FFF
0D3003
FFB006
0C3004
0C2000
0C0E00
0C0C00
0D8C00
1E0C0C
FC0C1E
EC0CF0
0C0F80
0C0C00
0C0C00
0C0C02
0C0C02
0C0C03
0C0FFF
FC07FE
180000
ENDCHAR

STARTCHAR cns3_292F
ENCODING 10543
SWIDTH 960 0
DWIDTH 24 0
BBX 24 24 0 -2
BITMAP
0E0180
0C00C0
0C20C6
0C3FFF
0D3000
FFB000
0C30E0
0C30C0
0C30C0
0C30C0
0C30C0
0C3180
0F3180
FC3190
6C3188
0C330C
0C3306
0C6306
0C621B
0C4FE3
0C4383
0C8002
7C8000
180000
ENDCHAR

STARTCHAR cns3_2930
ENCODING 10544
SWIDTH 960 0
DWIDTH 24 0
BBX 24 24 0 -2
BITMAP
0E0000
0C0006
0C1FFF
0C00C0
0C80C0
FFC0C0
0C00CC
0C1FFE
0C00C0
0C00C0
0C80C0
0F00CC
FC1FFE
6C00C0
0C00C0
0C00C0
0C00C6
0C3FFF
0C00C0
0C00C0
0C00C0
0C00C0
7C00C0
1800C0
ENDCHAR

STARTCHAR cns3_2931
ENCODING 10545
SWIDTH 960 0
DWIDTH 24 0
BBX 24 24 0 -2
BITMAP
1C0000
180006
18FFFF
180180
180180
180180
FF0180
184182
187FFF
186187
186186
1B6306
3C6386
F86246
D86666
186436
186836
187006
186006
186006
186006
186006
F8607E
30601C
ENDCHAR

STARTCHAR cns3_2932
ENCODING 10546
SWIDTH 960 0
DWIDTH 24 0
BBX 24 24 0 -2
BITMAP
1C7000
186000
186000
186000
186642
1AFE7F
FF6667
186666
186666
186666
186666
1B6666
3C6666
F86666
D86666
186666
186666
18C666
18C666
198666
19067E
190666
F83E60
300C00
ENDCHAR

STARTCHAR cns3_2933
ENCODING 10547
SWIDTH 960 0
DWIDTH 24 0
BBX 24 24 0 -2
BITMAP
1C0000
182008
183FFC
18301C
183018
1A3018
FF3018
183018
183018
183FF8
183018
19B018
1F3018
F83018
D83018
183018
183018
183FF8
183018
183000
180000
180006
F9FFFF
300000
ENDCHAR

STARTCHAR cns3_2934
ENCODING 10548
SWIDTH 960 0
DWIDTH 24 0
BBX 24 24 0 -2
BITMAP
0E0000
0C2004
0C3FFE
0C300E
0C300C
0D300C
FF300C
0C300C
0C300C
0C300C
0C3FFC
0D8060
0F0760
FC0660
CC0660
0C0660
0C0660
0C0660
0C0C62
0C0C62
0C1862
0C1863
FC307F
38403E
ENDCHAR

ENDFONT
